<svg xmlns="http://www.w3.org/2000/svg" width="25" height="25.036" viewBox="0 0 25 25.036">
  <path id="community_ico4" d="M142.617-816.355l-7.041-7.041a1.349,1.349,0,0,1-.391-1,1.348,1.348,0,0,1,.391-1,1.349,1.349,0,0,1,1-.392,1.349,1.349,0,0,1,1,.392l7.041,7.041a1.349,1.349,0,0,1,.391,1,1.348,1.348,0,0,1-.391,1,1.349,1.349,0,0,1-1,.392A1.35,1.35,0,0,1,142.617-816.355Zm-20.448-2.561a14.16,14.16,0,0,1-1.636-3.716A14.882,14.882,0,0,1,120-826.6,14.689,14.689,0,0,1,121.031-832a13.842,13.842,0,0,1,3.165-4.766,14.022,14.022,0,0,1,4.783-3.183A14.615,14.615,0,0,1,134.4-841a14.436,14.436,0,0,1,3.965.552,14.044,14.044,0,0,1,3.681,1.653,2.446,2.446,0,0,1,1.173,2.027,2.931,2.931,0,0,1-.925,2.312l-15.79,15.789a2.953,2.953,0,0,1-2.329.925A2.367,2.367,0,0,1,122.169-818.916Zm2.312-1.778,1.92-1.92q-.569-.747-1.085-1.529t-.942-1.564a15.607,15.607,0,0,1-.747-1.564q-.32-.782-.569-1.529a12.172,12.172,0,0,0-.053,4.2A10.386,10.386,0,0,0,124.481-820.694Zm3.983-3.911,7.895-7.966a16.944,16.944,0,0,0-3.076-1.9,12.6,12.6,0,0,0-2.9-1,6.857,6.857,0,0,0-2.436-.089,3,3,0,0,0-1.689.782,3.2,3.2,0,0,0-.782,1.725,6.976,6.976,0,0,0,.089,2.454,12.22,12.22,0,0,0,1,2.9A18.328,18.328,0,0,0,128.464-824.605Zm11.878-11.878a11.325,11.325,0,0,0-3.983-1.493,11.357,11.357,0,0,0-4.2.07q.782.25,1.565.569t1.565.729a16.122,16.122,0,0,1,1.547.925q.765.514,1.511,1.12Z" transform="translate(-120 841)" fill="#fff"/>
</svg>
