<svg xmlns="http://www.w3.org/2000/svg" width="25" height="22.5" viewBox="0 0 25 22.5">
  <path id="community_ico1" d="M92.531-818.657a6.331,6.331,0,0,1-2.016.891,9.015,9.015,0,0,1-2.172.267,8,8,0,0,1-2.156-.3,8.663,8.663,0,0,1-2.031-.86,8.341,8.341,0,0,1-1.422.672,8.225,8.225,0,0,1-1.516.391,1,1,0,0,1-.859-.281,1.157,1.157,0,0,1-.359-.875,1.3,1.3,0,0,1,.344-.906,1.673,1.673,0,0,1,.875-.5,6.086,6.086,0,0,0,1.109-.405,7.808,7.808,0,0,0,1.016-.595,1.323,1.323,0,0,1,.8-.249,1.323,1.323,0,0,1,.8.249,6.293,6.293,0,0,0,1.625.828,5.5,5.5,0,0,0,1.781.3,5.936,5.936,0,0,0,1.8-.281,5.849,5.849,0,0,0,1.641-.812,1.219,1.219,0,0,1,.781-.234,1.39,1.39,0,0,1,.781.266,5.644,5.644,0,0,0,1.609.8,5.924,5.924,0,0,0,1.766.266,5.1,5.1,0,0,0,1.812-.328,7.8,7.8,0,0,0,1.656-.859,1.441,1.441,0,0,1,.719-.234,1.129,1.129,0,0,1,.719.234q.5.344,1,.626a4.631,4.631,0,0,0,1.094.437,2.181,2.181,0,0,1,.906.516,1.186,1.186,0,0,1,.375.891,1.187,1.187,0,0,1-.375.892.989.989,0,0,1-.906.265,6.978,6.978,0,0,1-1.453-.406,10.753,10.753,0,0,1-1.359-.656,8.033,8.033,0,0,1-2.016.86,8.174,8.174,0,0,1-2.172.3,8.173,8.173,0,0,1-2.172-.3A8.03,8.03,0,0,1,92.531-818.657ZM80-823.126v-2.5a13.717,13.717,0,0,1,1.172-5.656,14.3,14.3,0,0,1,3.2-4.562,15,15,0,0,1,4.766-3.047A15.441,15.441,0,0,1,95-840c.354,0,.724,0,1.109.015a7.6,7.6,0,0,1,1.109.109,1.19,1.19,0,0,1,.922.656,1.167,1.167,0,0,1,.016,1.125,7.437,7.437,0,0,0-.484,1.313,5.4,5.4,0,0,0-.172,1.375,4,4,0,0,0,1.219,2.938,4,4,0,0,0,2.938,1.219h2.094a1.211,1.211,0,0,1,.891.359A1.209,1.209,0,0,1,105-830a1.209,1.209,0,0,1-.359.891,1.207,1.207,0,0,1-.891.359h-2.094a6.42,6.42,0,0,1-4.719-1.937A6.42,6.42,0,0,1,95-835.407a7.2,7.2,0,0,1,.063-.922,7.337,7.337,0,0,1,.188-.953,6.77,6.77,0,0,0-3.781,2.391A6.609,6.609,0,0,0,90-830.626a6.369,6.369,0,0,0,.359,2.141,7.565,7.565,0,0,0,1.016,1.922l.406-.28a1.2,1.2,0,0,1,.719-.251,1.2,1.2,0,0,1,.719.251,7.2,7.2,0,0,0,1.672.843,5.374,5.374,0,0,0,1.828.344A5.375,5.375,0,0,0,98.547-826a7.2,7.2,0,0,0,1.672-.843,1.411,1.411,0,0,1,.7-.235,1.2,1.2,0,0,1,.7.2l.688.469q.344.188.7.359a3.9,3.9,0,0,0,.734.266,2.061,2.061,0,0,1,.891.516,1.209,1.209,0,0,1,.359.891,1.183,1.183,0,0,1-.375.891.99.99,0,0,1-.906.266,7.72,7.72,0,0,1-1.422-.391,8.955,8.955,0,0,1-1.391-.672,7.217,7.217,0,0,1-2.031.891,8.582,8.582,0,0,1-2.156.266,8.386,8.386,0,0,1-2.25-.312,6.872,6.872,0,0,1-1.937-.844,7.223,7.223,0,0,1-2.031.859,9.989,9.989,0,0,1-2.156.3,6.917,6.917,0,0,1-2.156-.281,9.19,9.19,0,0,1-2.031-.875,8.777,8.777,0,0,1-2.016.859A7.8,7.8,0,0,1,80-823.126Zm8.281-2.531h.313a1.615,1.615,0,0,0,.313-.031,9.123,9.123,0,0,1-1.047-2.344,9.332,9.332,0,0,1-.359-2.594,9.144,9.144,0,0,1,1.156-4.578,9.467,9.467,0,0,1,3.219-3.359v1.375a12.886,12.886,0,0,0-3.578,1.516,12.31,12.31,0,0,0-2.875,2.453,12.232,12.232,0,0,0-1.984,3.2,11.949,11.949,0,0,0-.906,3.766q.25-.157.469-.281a5.194,5.194,0,0,0,.438-.28,1.294,1.294,0,0,1,.719-.267,1.119,1.119,0,0,1,.719.235c.188.124.375.239.562.343s.385.208.594.313a5.934,5.934,0,0,0,1.094.391A4.749,4.749,0,0,0,88.281-825.657ZM87.219-832.126Z" transform="translate(-80 840)" fill="#fff"/>
</svg>
