<svg xmlns="http://www.w3.org/2000/svg" xmlns:xlink="http://www.w3.org/1999/xlink" width="351" height="56.294" viewBox="0 0 351 56.294">
  <defs>
    <clipPath id="clip-path">
      <rect id="사각형_18" data-name="사각형 18" width="214" height="56.294" fill="none"/>
    </clipPath>
  </defs>
  <g id="logo" transform="translate(-330 -24.278)">
    <g id="그룹_5" data-name="그룹 5" transform="translate(330 24.278)">
      <g id="그룹_4" data-name="그룹 4" transform="translate(0 0)" clip-path="url(#clip-path)">
        <path id="패스_1" data-name="패스 1" d="M79.919,28.146c0,15.546-17.891,28.148-39.963,28.148S0,43.692,0,28.146,17.891,0,39.957,0,79.919,12.6,79.919,28.146" transform="translate(0 0)" fill="#0d3896"/>
        <path id="패스_2" data-name="패스 2" d="M43.389,52.72c-17.09-.769-17.568-1.545-14.432-1.613,0,0,64.221-2.758,15.952-6.346,0,0-7.751-.618,12.967-1.259,0,0,5.331-.936-22.315-2.806,0,0,5.524-2.517,23.873-1.8l-6-12.316s-.982-5.109-1.406-6.819S50.5.453,50.5.453c-1.811.228-3.987.39-3.987.39C38.954.427,27.86,4.193,27.86,4.193L25.372,4.7l-.178,3.218a24.431,24.431,0,0,1,.178,6.605c.155,2.851-3.7,9.258-3.7,9.258l2.383,6.838-.112,4.055,2.491,6.1s15.545,1.609,19.926,1.4c0,0,9.916.478-3.624,1.11,0,0-38.031-.147-28.02,1.438,0,0,17.89,1.537,27.261,2.185,0,0,10.326,1.2-16.2,2.764,0,0-12.432.955-.489,3.279,0,0,19.637,3.067,36.17.02,0,0,5.426-1.55-1.955-.847,0,0-14.361.684-16.115.605" transform="translate(-1.845 -0.064)" fill="#fff"/>
        <path id="패스_3" data-name="패스 3" d="M78.975,30.283s-11.463-.627-13.09,2.585c0,0-3.573,5.1,9.9,3.97,0,0-.974-3.535,3.189-6.555" transform="translate(-9.262 -4.278)" fill="#fc0"/>
        <path id="패스_4" data-name="패스 4" d="M47.452,23.637S36.024,22.994,34.4,26.3c0,0-3.564,5.242,9.87,4.08,0,0-.97-3.636,3.183-6.743" transform="translate(-4.807 -3.337)" fill="#40a629"/>
        <path id="패스_5" data-name="패스 5" d="M62.307,10.3s-11.156-.622-12.738,2.569c0,0-3.477,5.057,9.633,3.941,0,0-.949-3.513,3.1-6.509" transform="translate(-6.955 -1.451)" fill="#ff7f00"/>
        <path id="패스_6" data-name="패스 6" d="M122.9,23.009a3.516,3.516,0,0,1-2.806,1.4,3.46,3.46,0,0,1-2.779-1.38,4.965,4.965,0,0,1,0-6.3,3.479,3.479,0,0,1,2.779-1.357,3.64,3.64,0,0,1,2.806,1.284,4.6,4.6,0,0,1,1.156,3.188,4.856,4.856,0,0,1-1.156,3.163m25.93-1.619h-6.162V11.948h-9.6v1.966h.946a1.788,1.788,0,0,1,1.424.552,1.744,1.744,0,0,1,.473,1.141V29.173a12.013,12.013,0,0,1-2.18.415c-.854.091-2.128.137-3.3.137H123.41V27.446a11.227,11.227,0,0,0,5.11-2.891,6.6,6.6,0,0,0,1.921-4.662,6.93,6.93,0,0,0-3.079-5.7,13.05,13.05,0,0,0-14.862,0,6.935,6.935,0,0,0-3.057,5.7,6.59,6.59,0,0,0,1.919,4.662,11.05,11.05,0,0,0,5.011,2.891v2.278h-9.55v3.918h21.724c1.675,0,3.337-.031,4.458-.1a15.8,15.8,0,0,0,2.915-.413V38.3h6.752V25.241h6.162Zm-5.69,22.344H122.294a.79.79,0,0,1-.521-.158.529.529,0,0,1-.187-.433v-7.2H111.75V37.9h.95a1.938,1.938,0,0,1,1.417.473,1.551,1.551,0,0,1,.477,1.144v5.031a2.93,2.93,0,0,0,.948,2.419,4.547,4.547,0,0,0,2.891.766h24.709Z" transform="translate(-15.115 -1.679)" fill="#fff"/>
        <path id="패스_7" data-name="패스 7" d="M160.823,18.157a1.572,1.572,0,0,0-.462-1.14,1.818,1.818,0,0,0-1.368-.471h-.918V14.58h33.658v3.7H167.612v9.386a.7.7,0,0,0,.252.589.977.977,0,0,0,.619.2h23.48v3.619h-25.88a6.066,6.066,0,0,1-4-1.083,4.524,4.524,0,0,1-1.257-3.6Zm18.837,23.7h15.962v3.889h-38.8V41.856h16.046l-.053-3.928a1.422,1.422,0,0,0-.434-1.082,1.626,1.626,0,0,0-1.167-.413h-.731V34.5h9.124Z" transform="translate(-22.189 -2.063)" fill="#fff"/>
        <path id="패스_8" data-name="패스 8" d="M216,35.281v8.49a.552.552,0,0,0,.181.433.75.75,0,0,0,.5.158H239.6v3.7H212.954a4.284,4.284,0,0,1-2.793-.768,2.987,2.987,0,0,1-.911-2.417V38.863a1.572,1.572,0,0,0-.459-1.141,1.831,1.831,0,0,0-1.374-.471H206.5v-1.97Zm21.737-8.452H242.8V30.76H227.779v8.383h-7.062V30.76H203.554V26.829h27.475a5.774,5.774,0,0,0,.891-2.476,36.319,36.319,0,0,0,.16-3.8v-2.2a.775.775,0,0,0-.18-.592,1.219,1.219,0,0,0-.733-.158h-23.75V13.849h31a.512.512,0,0,1,.342.1.358.358,0,0,1,.112.293v5.822a31.281,31.281,0,0,1-.25,4.388,5.434,5.434,0,0,1-.893,2.377" transform="translate(-28.801 -1.959)" fill="#fff"/>
      </g>
    </g>
    <line id="선_1" data-name="선 1" y2="27" transform="translate(555.5 40.5)" fill="none" stroke="#fff" stroke-width="1" opacity="0.3"/>
    <text id="청산도" transform="translate(567 69)" fill="#fff" font-size="38" font-family="MalgunGothicBold, Malgun Gothic"><tspan x="0" y="0">청산도</tspan></text>
  </g>
</svg>
