<svg xmlns="http://www.w3.org/2000/svg" width="30.5" height="27.45" viewBox="0 0 30.5 27.45">
  <path id="photo_camera_24dp_FILL0_wght400_GRAD0_opsz24" d="M95.25-817.888a6.618,6.618,0,0,0,4.861-2,6.618,6.618,0,0,0,2-4.861,6.618,6.618,0,0,0-2-4.861,6.618,6.618,0,0,0-4.861-2,6.618,6.618,0,0,0-4.861,2,6.618,6.618,0,0,0-2,4.861,6.618,6.618,0,0,0,2,4.861A6.618,6.618,0,0,0,95.25-817.888Zm0-3.05a3.681,3.681,0,0,1-2.707-1.106,3.681,3.681,0,0,1-1.106-2.707,3.681,3.681,0,0,1,1.106-2.707,3.681,3.681,0,0,1,2.707-1.106,3.681,3.681,0,0,1,2.707,1.106,3.681,3.681,0,0,1,1.106,2.707,3.681,3.681,0,0,1-1.106,2.707A3.681,3.681,0,0,1,95.25-820.937Zm-12.2,8.387a2.937,2.937,0,0,1-2.154-.9A2.937,2.937,0,0,1,80-815.6v-18.3a2.937,2.937,0,0,1,.9-2.154,2.937,2.937,0,0,1,2.154-.9h4.8l1.906-2.059a3.063,3.063,0,0,1,1.01-.724A2.977,2.977,0,0,1,92.009-840h6.481a2.977,2.977,0,0,1,1.239.267,3.063,3.063,0,0,1,1.01.724l1.906,2.059h4.8a2.937,2.937,0,0,1,2.154.9,2.937,2.937,0,0,1,.9,2.154v18.3a2.937,2.937,0,0,1-.9,2.154,2.937,2.937,0,0,1-2.154.9Zm0-3.05h24.4v-18.3h-6.176l-2.783-3.05H92.009l-2.783,3.05H83.05ZM95.25-824.75Z" transform="translate(-80 840)" fill="#fff"/>
</svg>
