<svg xmlns="http://www.w3.org/2000/svg" width="26" height="18.909" viewBox="0 0 26 18.909">
  <path id="community_ico2" d="M41.182-781.092a1.1,1.1,0,0,1-.842-.362,1.26,1.26,0,0,1-.34-.9v-16.388a1.267,1.267,0,0,1,.34-.9,1.109,1.109,0,0,1,.842-.362,1.109,1.109,0,0,1,.842.362,1.267,1.267,0,0,1,.34.9v11.346h9.455v-7.564a2.515,2.515,0,0,1,.694-1.781,2.209,2.209,0,0,1,1.669-.74h7.091A4.41,4.41,0,0,1,64.611-796,5.016,5.016,0,0,1,66-792.438v10.086a1.26,1.26,0,0,1-.34.9,1.1,1.1,0,0,1-.842.362,1.1,1.1,0,0,1-.842-.362,1.261,1.261,0,0,1-.34-.9v-2.521H42.364v2.521a1.26,1.26,0,0,1-.34.9A1.1,1.1,0,0,1,41.182-781.092Zm5.909-7.562a3.315,3.315,0,0,1-2.511-1.1,3.776,3.776,0,0,1-1.034-2.68,3.772,3.772,0,0,1,1.034-2.678,3.311,3.311,0,0,1,2.511-1.1,3.311,3.311,0,0,1,2.511,1.1,3.773,3.773,0,0,1,1.034,2.678,3.776,3.776,0,0,1-1.034,2.68A3.316,3.316,0,0,1,47.091-788.654Zm7.091,1.261h9.454v-5.044a2.511,2.511,0,0,0-.694-1.78,2.209,2.209,0,0,0-1.669-.74H54.182Zm-7.091-3.782a1.1,1.1,0,0,0,.842-.363,1.26,1.26,0,0,0,.34-.9,1.261,1.261,0,0,0-.34-.9,1.109,1.109,0,0,0-.842-.362,1.109,1.109,0,0,0-.842.362,1.262,1.262,0,0,0-.34.9,1.261,1.261,0,0,0,.34.9A1.1,1.1,0,0,0,47.091-791.176ZM47.091-792.438Zm7.091-2.521v0Z" transform="translate(-40 800.001)" fill="#fff"/>
</svg>
