<svg xmlns="http://www.w3.org/2000/svg" width="25" height="25.948" viewBox="0 0 25 25.948">
  <path id="community_ico_b3" d="M87.5-852.7a14.365,14.365,0,0,1-5.281-3.666A8.28,8.28,0,0,1,80-862.146a1.29,1.29,0,0,1,.359-.929,1.183,1.183,0,0,1,.891-.374H82.5V-872.7a1.249,1.249,0,0,1,.313-.848,1.231,1.231,0,0,1,.781-.424l20.375-2.378a.815.815,0,0,1,.734.229,1.006,1.006,0,0,1,.3.749.923.923,0,0,1-.25.636.892.892,0,0,1-.594.309l-13.531,1.6v2.216h13.438a.888.888,0,0,1,.672.277.971.971,0,0,1,.266.7.971.971,0,0,1-.266.7.891.891,0,0,1-.672.276H90.625v5.215H103.75a1.183,1.183,0,0,1,.891.374,1.29,1.29,0,0,1,.359.929,8.28,8.28,0,0,1-2.219,5.783A14.366,14.366,0,0,1,97.5-852.7v.978a1.286,1.286,0,0,1-.359.928,1.184,1.184,0,0,1-.891.375h-7.5a1.184,1.184,0,0,1-.891-.375,1.286,1.286,0,0,1-.359-.928Zm0-17.921h1.25V-872.6l-1.25.13Zm-3.125,0h1.25v-1.629l-1.25.131Zm3.125,7.169h1.25v-5.215H87.5Zm-3.125,0h1.25v-5.215h-1.25ZM90-853.022h5v-1.434l1.563-.652a10.227,10.227,0,0,0,3.375-2.247,8.622,8.622,0,0,0,2.125-3.487H82.938a8.743,8.743,0,0,0,2.125,3.5,9.7,9.7,0,0,0,3.375,2.231l1.563.652ZM92.5-860.843Z" transform="translate(-80 876.364)" fill="#1a78da"/>
</svg>
