<svg xmlns="http://www.w3.org/2000/svg" width="12" height="12" viewBox="0 0 12 12">
  <path id="f_more" d="M245.5-713.5h-5a.483.483,0,0,1-.356-.144A.485.485,0,0,1,240-714a.483.483,0,0,1,.144-.356.485.485,0,0,1,.356-.143h5v-5a.483.483,0,0,1,.144-.356A.485.485,0,0,1,246-720a.483.483,0,0,1,.356.144.485.485,0,0,1,.143.356v5h5a.483.483,0,0,1,.356.144A.485.485,0,0,1,252-714a.482.482,0,0,1-.144.356.484.484,0,0,1-.356.143h-5v5a.483.483,0,0,1-.144.356A.485.485,0,0,1,246-708a.482.482,0,0,1-.356-.144.485.485,0,0,1-.143-.356Z" transform="translate(-240 720)" fill="#3d3d3d" opacity="0.8"/>
</svg>
