<svg width="4" height="8" viewBox="0 0 4 8" fill="none" xmlns="http://www.w3.org/2000/svg">
<path d="M2.85024 3.84367L0.144322 0.914304C0.0524255 0.814692 0.00536991 0.689489 0.00315553 0.538693C0.00105187 0.388017 0.0481074 0.260536 0.144322 0.15625C0.240648 0.0520833 0.357345 0 0.494415 0C0.631486 0 0.748183 0.0520833 0.844509 0.15625L3.8301 3.38859C3.89221 3.45595 3.93606 3.52697 3.96164 3.60165C3.98721 3.67633 4 3.757 4 3.84367C4 3.93034 3.98721 4.01101 3.96164 4.08569C3.93606 4.16036 3.89221 4.23139 3.8301 4.29875L0.844509 7.53109C0.752501 7.63058 0.636855 7.68152 0.497571 7.68392C0.358397 7.6862 0.240648 7.63525 0.144322 7.53109C0.0481074 7.4268 0 7.30046 0 7.15206C0 7.00366 0.0481074 6.87732 0.144322 6.77304L2.85024 3.84367Z" fill="white" fill-opacity="0.6"/>
</svg>
