<svg width="6" height="11" viewBox="0 0 6 11" fill="none" xmlns="http://www.w3.org/2000/svg">
<path d="M3.93296 5.30376L0.199146 1.26162C0.0723403 1.12417 0.00740978 0.951405 0.00435422 0.743326C0.00145144 0.535413 0.066382 0.359506 0.199146 0.215604C0.332063 0.0718681 0.49309 0 0.682229 0C0.871368 0 1.0324 0.0718681 1.16531 0.215604L5.28504 4.67581C5.37075 4.76876 5.43125 4.86677 5.46654 4.96981C5.50183 5.07286 5.51948 5.18418 5.51948 5.30376C5.51948 5.42335 5.50183 5.53467 5.46654 5.63771C5.43125 5.74076 5.37075 5.83876 5.28504 5.93172L1.16531 10.3919C1.03835 10.5292 0.878778 10.5995 0.686583 10.6028C0.494541 10.606 0.332063 10.5357 0.199146 10.3919C0.066382 10.248 0 10.0737 0 9.86891C0 9.66414 0.066382 9.48981 0.199146 9.34591L3.93296 5.30376Z" fill="white" fill-opacity="0.6"/>
</svg>
