<svg xmlns="http://www.w3.org/2000/svg" xmlns:xlink="http://www.w3.org/1999/xlink" width="80" height="84.5" viewBox="0 0 80 84.5">
  <defs>
    <clipPath id="clip-path">
      <rect id="사각형_96" data-name="사각형 96" width="80" height="84.5" fill="none"/>
    </clipPath>
    <clipPath id="clip-path-3">
      <rect id="사각형_94" data-name="사각형 94" width="37.485" height="84.5" fill="none"/>
    </clipPath>
  </defs>
  <g id="campaign02" transform="translate(-1018.5 -2458.279)">
    <g id="campaign02-2" data-name="campaign02" transform="translate(1018.5 2458.279)">
      <g id="그룹_64" data-name="그룹 64" clip-path="url(#clip-path)">
        <g id="그룹_63" data-name="그룹 63">
          <g id="그룹_62" data-name="그룹 62" clip-path="url(#clip-path)">
            <path id="패스_276" data-name="패스 276" d="M49.717,84.5c13.279,0,18.5-28.21,20.469-34.771S81.208,35.3,79.633,18.763,58.545,0,49.717,0,21.375,2.23,19.8,18.763s7.479,24.405,9.447,30.966S36.437,84.5,49.717,84.5" transform="translate(-7.202)" fill="#eebb86"/>
            <path id="패스_277" data-name="패스 277" d="M19.8,19.925C18.226,36.458,27.28,44.33,29.248,50.891c.474,1.578,1.139,4.417,2.056,7.808C36.122,49.27,43.983,28.328,41.845,18.35A46.226,46.226,0,0,0,35.306,3.164C27.818,5.456,20.724,10.23,19.8,19.925" transform="translate(-7.202 -1.162)" fill="#8a603e"/>
            <path id="패스_278" data-name="패스 278" d="M85.018,3.367c-3.819,3.8-10.786,12.474-9.44,24.111C76.83,38.3,81.679,47.407,89.955,53.61c.274-1.069.511-1.975.713-2.645C92.636,44.4,101.689,36.532,100.115,20c-.906-9.519-7.76-14.291-15.1-16.632" transform="translate(-27.683 -1.236)" fill="#8a603e"/>
            <path id="패스_279" data-name="패스 279" d="M5.251,16.526C7.787,12.146,14.173,3.012,19.684,5.9c5.306,2.779-.132,28.867-2.231,31.884-1.573,2.263-5.037,1.794-11.021,0C.753,36.081-1,33.035.527,27.285A43.431,43.431,0,0,1,5.251,16.526" transform="translate(0 -1.962)" fill="#47392c"/>
            <path id="패스_280" data-name="패스 280" d="M97.346,25.033c-.161-3.718.692-9.99.449-16.27-.142-3.694-.884-6.641,4.2-4.592,8.791,3.542,16.765,25.453,12.6,34.459-1.444,3.119-10.027-4.281-10.027-4.281s-7.028-4.958-7.217-9.315" transform="translate(-35.73 -1.284)" fill="#47392c"/>
            <path id="패스_281" data-name="패스 281" d="M40.594,47.558A2.362,2.362,0,1,1,38.233,45.2a2.362,2.362,0,0,1,2.361,2.361" transform="translate(-13.169 -16.592)" fill="#23211b"/>
            <path id="패스_282" data-name="패스 282" d="M38.263,47.453a.683.683,0,1,1-.683-.683.683.683,0,0,1,.683.683" transform="translate(-13.546 -17.17)" fill="#fff"/>
            <path id="패스_283" data-name="패스 283" d="M63.217,102.417c1.682-.036,6.3.466,6.3,3.222s-4.461,7.8-6.3,7.669-6.954-4.724-6.823-7.873,4.958-2.978,6.823-3.018" transform="translate(-20.702 -37.598)" fill="#23211b"/>
            <path id="패스_284" data-name="패스 284" d="M89.4,47.558A2.362,2.362,0,1,1,87.04,45.2,2.362,2.362,0,0,1,89.4,47.558" transform="translate(-31.086 -16.592)" fill="#23211b"/>
            <path id="패스_285" data-name="패스 285" d="M87.045,47.453a.683.683,0,1,1-.683-.683.683.683,0,0,1,.683.683" transform="translate(-31.454 -17.17)" fill="#fff"/>
            <g id="그룹_61" data-name="그룹 61" transform="translate(42.515)" opacity="0.1">
              <g id="그룹_60" data-name="그룹 60">
                <g id="그룹_59" data-name="그룹 59" clip-path="url(#clip-path-3)">
                  <path id="패스_286" data-name="패스 286" d="M67.176,84.5c11.92,0,17.347-22.726,19.757-32.125.135-.525.259-1.009.377-1.446,0-.013.007-.026.011-.038.054-.2.105-.39.155-.57.009-.034.018-.065.027-.1.049-.175.1-.342.143-.494,1.209-4.033,5.1-8.567,7.546-15.3,2.578,1.974,7.294,5.156,8.331,2.918,4.169-9.007-3.8-30.918-12.6-34.46C87.649,1.565,86.8,2.327,86.64,4.022A30.867,30.867,0,0,0,82,2.133l-.006,0A50.636,50.636,0,0,0,67.176,0Z" transform="translate(-67.176 0)"/>
                </g>
              </g>
            </g>
          </g>
        </g>
      </g>
    </g>
  </g>
</svg>
