<svg width="180" height="63" viewBox="0 0 180 63" fill="none" xmlns="http://www.w3.org/2000/svg">
<g clip-path="url(#clip0_22_157)">
<path d="M41.6807 40.2097C38.7021 40.2136 36.25 42.5223 36.25 45.4111C36.25 48.3 38.7021 50.5853 41.6807 50.5931C44.6869 50.5814 47.1193 48.2727 47.1193 45.4111C47.1193 42.5496 44.6869 40.2136 41.6807 40.2097ZM41.6061 48.2221C40.0499 48.2221 38.8711 46.9607 38.8711 45.415C38.8711 43.8694 40.1285 42.5807 41.6768 42.5807C43.2251 42.5807 44.4393 43.8383 44.4393 45.415C44.4393 46.9918 43.1661 48.2221 41.6021 48.2221H41.6061Z" fill="white"/>
<path d="M16.7513 36.6279C17.5843 37.4416 18.5353 38.1502 19.4666 38.6096L19.5649 38.6602L21.1681 36.7798L21.0149 36.6941C19.4902 35.8765 18.2956 34.8448 17.5175 33.5405C16.7434 32.2597 16.3465 30.7646 16.3465 28.9854V27.3113H13.4779V28.8063C13.4779 30.7374 13.0338 32.2558 12.2086 33.5873C11.2812 35.0589 9.90979 36.2464 8.15325 37.3443L8 37.4377L9.74475 39.2247L9.83906 39.1702C10.8725 38.6096 11.9728 37.7492 12.9317 36.7914C13.7608 35.9544 14.4799 35.0511 14.9122 34.1985C15.3327 35.0317 15.981 35.8843 16.7552 36.6162L16.7513 36.6279Z" fill="white"/>
<path d="M13.6504 49.3667H25.6672V41.2337H13.6504V49.3667ZM16.35 43.5307H22.9636V47.0736H16.35V43.5307Z" fill="white"/>
<path d="M25.7112 26.8324H23.043V40.3032H25.7112V34.3426H28.8431V31.9482H25.7112V26.8324Z" fill="white"/>
<path d="M93.8577 37.317C94.734 38.0723 95.74 38.7069 96.6831 39.1157L96.7814 39.1624L98.2235 37.2275L98.0703 37.1535C96.6949 36.4527 95.4649 35.5884 94.5847 34.5372C93.6848 33.4588 93.1504 32.1623 93.1504 30.5972V30.1378H97.1232V27.8174H86.3286V30.1378H90.3014V30.6946C90.3014 32.1156 89.822 33.4432 89.0361 34.5917C88.1087 35.97 86.753 37.0834 85.4405 37.7998L85.2676 37.8932L87.0398 39.7114L87.1381 39.6647C88.0969 39.1274 89.15 38.3137 90.0538 37.4027C90.7769 36.6513 91.4253 35.8571 91.8222 35.0667C92.3016 35.8337 93.0364 36.6046 93.8577 37.3209V37.317Z" fill="white"/>
<path d="M113.184 43.5852H122.898V49.3667H125.597V41.2843H113.184V43.5852Z" fill="white"/>
<path d="M119.888 34.3231C119.888 33.05 119.314 31.8781 118.457 30.9827H121.125V28.6895H116.033V26.1628H113.14V28.6895H107.926V30.9827H110.649C109.82 31.8781 109.238 33.0383 109.238 34.3231C109.238 37.1613 111.6 39.47 114.555 39.4778C117.51 39.47 119.888 37.1613 119.891 34.3231H119.888ZM111.812 34.218C111.812 32.6451 113.152 31.3136 114.551 31.3136C115.95 31.3136 117.286 32.6529 117.29 34.218C117.29 35.7636 115.95 37.099 114.551 37.1029C113.148 37.099 111.812 35.7636 111.812 34.218Z" fill="white"/>
<path d="M125.598 26.8324H122.93V40.3499H125.598V35.1913H128.734V32.8008H125.598V26.8324Z" fill="white"/>
<path d="M102.963 26.8324H100.291V40.3499H102.963V34.3426H106.095V31.9482H102.963V26.8324Z" fill="white"/>
<path d="M163.692 37.025H154.658V30.2118H161.538V27.8136H151.954V39.3532H163.692V37.025Z" fill="white"/>
<path d="M44.9459 30.8425H40.7451V33.2135H44.9459V40.7743H47.618V26.8324H44.9459V30.8425Z" fill="white"/>
<path d="M38.1554 36.9783C38.9885 37.792 39.9591 38.5006 40.8944 38.9794L40.9965 39.0378L42.6038 37.1574L42.4466 37.0679C40.9219 36.2814 39.7509 35.2497 38.9689 33.9649C38.1712 32.6918 37.7743 31.1423 37.7743 29.3592V27.3152H34.8978V29.1918C34.8978 31.1228 34.4616 32.6373 33.6521 33.9454C32.7247 35.4444 31.3336 36.6357 29.5732 37.7297L29.4238 37.8231L31.1725 39.6179L31.259 39.5634C32.2964 39.0028 33.3692 38.1891 34.3241 37.2586C35.1846 36.406 35.9077 35.4833 36.34 34.5878C36.7526 35.3976 37.3852 36.2308 38.1476 36.9783H38.1554Z" fill="white"/>
<path d="M97.2296 40.2097C94.2509 40.2136 91.7989 42.5223 91.7949 45.4111C91.7989 48.2727 94.2509 50.5853 97.2296 50.5931C100.232 50.5814 102.668 48.2727 102.668 45.4111C102.668 42.5496 100.232 40.2136 97.2296 40.2097ZM97.151 48.2221C95.5988 48.2221 94.416 46.9607 94.416 45.415C94.416 43.8694 95.6695 42.5807 97.2296 42.5807C98.7896 42.5807 99.9882 43.8383 99.9921 45.415C99.9882 46.9607 98.715 48.2221 97.151 48.2221Z" fill="white"/>
<path d="M158.582 42.1875H155.879V49.3667H168.517V46.9996H158.582V42.1875Z" fill="white"/>
<path d="M168.454 33.0773V26.8324H165.786V43.4528H168.454V35.4638H171.614V33.0773H168.454Z" fill="white"/>
<path d="M145.851 32.9215H143.603V27.214H141.08V48.7866H143.603V35.5183H145.851V49.3667H148.472V26.8324H145.851V32.9215Z" fill="white"/>
<path d="M137.375 35.9116C136.774 34.6073 136.526 33.1551 136.526 31.3642V30.5116H139.556V28.0822H130.746V30.5116H133.874V31.407C133.874 33.1006 133.65 34.4827 133.108 35.7675C132.483 37.2392 131.43 38.5707 129.752 39.9878L129.634 40.0968L131.292 41.7242L131.394 41.6464C132.227 41.0351 133.1 40.1513 133.831 39.2403C134.444 38.4694 134.962 37.6752 135.292 36.9744C135.626 37.6557 136.149 38.4383 136.758 39.1702C137.469 40.0267 138.267 40.8404 139.033 41.3232L139.14 41.3933L140.535 39.7386L140.425 39.6374C138.923 38.341 137.992 37.1847 137.379 35.9077L137.375 35.9116Z" fill="white"/>
<path d="M15.5876 57.1416C14.3066 56.69 14.0669 56.3863 14.0669 55.8646C14.0669 55.3429 14.4362 54.9302 15.3125 54.9302C15.9531 54.9302 16.3853 55.1366 16.849 55.5181L17.3049 54.9614C16.7665 54.537 16.2164 54.2839 15.3597 54.2839C14.1612 54.2839 13.3517 54.8874 13.3517 55.9074C13.3517 56.8223 13.8232 57.2623 15.2025 57.7567C16.3735 58.1733 16.7311 58.512 16.7311 59.096C16.7311 59.7695 16.2006 60.1822 15.3479 60.1822C14.6877 60.1822 14.1297 59.8825 13.6464 59.423L13.1709 59.9486C13.6739 60.4509 14.4559 60.8246 15.3243 60.8246C16.6604 60.8246 17.4463 60.0538 17.4463 59.061C17.4463 58.0682 17.0101 57.6438 15.5915 57.1338L15.5876 57.1416Z" fill="white"/>
<path d="M20.35 55.8763C19.7252 55.8763 19.1554 56.0281 18.735 56.2539L18.9943 56.8068C19.3873 56.5809 19.7999 56.4408 20.3029 56.4408C21.0024 56.4408 21.3482 56.7834 21.3482 57.4959V58.0604C21.0652 57.9047 20.633 57.784 20.1457 57.784C19.1947 57.784 18.3066 58.2395 18.3066 59.3101C18.3066 60.4586 19.0965 60.8285 19.8431 60.8285C20.5308 60.8285 21.0024 60.5132 21.3442 60.1511V60.7312H22.028V57.4141C22.028 56.3084 21.3796 55.8763 20.35 55.8763ZM21.3482 59.5632C21.0574 59.9603 20.5858 60.2796 19.9649 60.2796C19.3794 60.2796 18.9825 59.9681 18.9825 59.2595C18.9825 58.6639 19.4069 58.3212 20.1103 58.3212C20.6958 58.3212 21.0338 58.4264 21.3442 58.5977V59.5593L21.3482 59.5632Z" fill="white"/>
<path d="M28.9248 57.9475V60.7312H29.6125V57.8307C29.6125 56.4408 29.0034 55.8763 28.021 55.8763C27.2429 55.8763 26.85 56.2344 26.567 56.69C26.3391 56.2344 25.9265 55.8763 25.2506 55.8763C24.6808 55.8763 24.2761 56.1449 24.0324 56.5576V55.9775H23.3408V60.7351H24.0324V57.9514C24.0324 56.8963 24.445 56.4641 25.1052 56.4641C25.7654 56.4641 26.1387 56.8613 26.1387 57.9514V60.7351H26.8264V57.9514C26.8264 56.8963 27.2429 56.4641 27.8952 56.4641C28.5908 56.4641 28.9287 56.8613 28.9287 57.9514L28.9248 57.9475Z" fill="white"/>
<path d="M32.3629 57.9708C31.5494 57.6049 31.3058 57.4453 31.3058 57.0442C31.3058 56.7016 31.5966 56.4525 32.1035 56.4525C32.6104 56.4525 32.9248 56.5887 33.2981 56.8807L33.6832 56.3785C33.3178 56.0787 32.8069 55.8763 32.1428 55.8763C31.2744 55.8763 30.6456 56.3629 30.6456 57.0871C30.6456 57.8502 31.0465 58.1383 32.0092 58.5471C32.858 58.9091 33.1449 59.1271 33.1449 59.5165C33.1449 59.9798 32.8344 60.2523 32.1743 60.2523C31.6988 60.2523 31.2508 60.0576 30.8657 59.7267L30.4609 60.2251C30.9207 60.591 31.4944 60.8324 32.1546 60.8324C32.9877 60.8324 33.8011 60.4275 33.8011 59.4931C33.8011 58.6405 33.2706 58.3796 32.3629 57.9747V57.9708Z" fill="white"/>
<path d="M37.8138 58.7534C37.8138 59.7968 37.2872 60.2367 36.6271 60.2367C35.8529 60.2367 35.4875 59.7773 35.4875 58.7534V55.9736H34.8037V58.8702C34.8037 60.2367 35.4678 60.8246 36.4817 60.8246C37.0907 60.8246 37.5348 60.5443 37.8099 60.1472V60.7273H38.4975V55.9697H37.8099V58.7495L37.8138 58.7534Z" fill="white"/>
<path d="M43.3501 60.7312V57.8307C43.3501 56.4603 42.6821 55.8763 41.6643 55.8763C41.0631 55.8763 40.6151 56.1527 40.344 56.5576V55.9775H39.6523V60.7351H40.344V57.9514C40.344 56.9119 40.8587 56.4641 41.5307 56.4641C42.297 56.4641 42.6664 56.9275 42.6664 57.9514V60.7351H43.354L43.3501 60.7312Z" fill="white"/>
<path d="M45.512 61.9653L45.7321 62.4832C47.5161 62.4248 48.1645 61.7395 48.1645 60.3068V55.9736H47.4807V56.507C47.1428 56.1254 46.7341 55.8763 46.129 55.8763C45.119 55.8763 44.3135 56.7406 44.3135 58.4303C44.3135 60.1199 45.0758 60.8285 46.0386 60.8285C46.687 60.8285 47.1467 60.5132 47.4847 60.1511V60.3964C47.4847 61.502 47.1192 61.9186 45.5159 61.9653H45.512ZM46.2075 60.2406C45.4491 60.2406 44.9894 59.6177 44.9894 58.4225C44.9894 57.1416 45.3823 56.4641 46.18 56.4641C46.7498 56.4641 47.2135 56.7834 47.4768 57.1766V59.5554C47.1389 59.9759 46.7184 60.2406 46.2036 60.2406H46.2075Z" fill="white"/>
<path d="M55.7364 57.5153C55.7364 55.339 54.4986 54.3851 52.8167 54.3851H51.123V60.7312H52.687C54.4003 60.7312 55.7364 59.8163 55.7364 57.5114V57.5153ZM51.8382 55.0275H52.7617C54.2353 55.0275 55.0212 55.9191 55.0212 57.5387C55.0212 59.3646 54.1606 60.0888 52.7774 60.0888H51.8343V55.0275H51.8382Z" fill="white"/>
<path d="M57.5676 56.5654V55.9775H56.8799V60.7351H57.5676V57.9436C57.5676 57.0326 57.9409 56.507 58.6128 56.507C58.9311 56.507 59.1433 56.5771 59.332 56.6861L59.5049 56.0008C59.3438 55.9269 59.1119 55.884 58.7582 55.884C58.2435 55.884 57.7837 56.1877 57.5715 56.5732L57.5676 56.5654Z" fill="white"/>
<path d="M63.6117 60.2796L63.2934 59.789C62.8533 60.081 62.5232 60.2406 61.9612 60.2406C61.1792 60.2406 60.692 59.5982 60.6252 58.586H63.8278C63.8514 58.4731 63.8592 58.3757 63.8592 58.2122C63.8592 56.8535 63.1794 55.8763 61.9259 55.8763C60.7823 55.8763 59.9414 56.8145 59.9414 58.3251C59.9414 60.1978 61.0103 60.8285 61.8905 60.8285C62.6135 60.8285 63.0379 60.6377 63.6156 60.2796H63.6117ZM61.918 56.4603C62.7589 56.4603 63.1637 57.1026 63.2187 58.0292H60.6252C60.7037 56.9664 61.2028 56.4603 61.918 56.4603Z" fill="white"/>
<path d="M66.1459 60.8285C66.8335 60.8285 67.309 60.5132 67.647 60.1511V60.7312H68.3347V57.4141C68.3347 56.3084 67.6863 55.8763 66.6488 55.8763C66.024 55.8763 65.4582 56.0281 65.0377 56.2539L65.2971 56.8068C65.69 56.5809 66.1026 56.4408 66.6056 56.4408C67.309 56.4408 67.647 56.7834 67.647 57.4959V58.0604C67.368 57.9047 66.9357 57.784 66.4563 57.784C65.5014 57.784 64.6094 58.2395 64.6094 59.3101C64.6094 60.4586 65.3992 60.8285 66.1459 60.8285ZM66.4131 58.3251C66.9947 58.3251 67.3365 58.4303 67.647 58.6016V59.5632C67.3562 59.9603 66.8886 60.2796 66.2716 60.2796C65.6547 60.2796 65.2892 59.9681 65.2892 59.2595C65.2892 58.6639 65.7136 58.3212 66.417 58.3212L66.4131 58.3251Z" fill="white"/>
<path d="M75.2236 57.9475V60.7312H75.9074V57.8307C75.9074 56.4408 75.2983 55.8763 74.3159 55.8763C73.5378 55.8763 73.1448 56.2344 72.8619 56.69C72.634 56.2344 72.2253 55.8763 71.5455 55.8763C70.9757 55.8763 70.5749 56.1449 70.3273 56.5576V55.9775H69.6436V60.7351H70.3273V57.9514C70.3273 56.8963 70.7399 56.4641 71.4001 56.4641C72.0603 56.4641 72.4336 56.8613 72.4336 57.9514V60.7351H73.1173V57.9514C73.1173 56.8963 73.5378 56.4641 74.1901 56.4641C74.8817 56.4641 75.2236 56.8613 75.2236 57.9514V57.9475Z" fill="white"/>
<path d="M81.0437 57.1416C79.7626 56.69 79.5268 56.3902 79.5268 55.8646C79.5268 55.339 79.8923 54.9302 80.7686 54.9302C81.4131 54.9302 81.8414 55.1365 82.3051 55.5181L82.7609 54.9652C82.2226 54.5409 81.6724 54.2878 80.8158 54.2878C79.6172 54.2878 78.8116 54.8874 78.8116 55.9074C78.8116 56.8223 79.2753 57.2662 80.6625 57.7528C81.8335 58.1733 82.1911 58.5081 82.1911 59.096C82.1911 59.7656 81.6606 60.1822 80.8079 60.1822C80.1477 60.1822 79.5897 59.8786 79.1024 59.4191L78.627 59.9408C79.1299 60.4509 79.9119 60.8207 80.7765 60.8207C82.1086 60.8207 82.8985 60.0499 82.8985 59.0571C82.8985 58.0643 82.4623 57.6399 81.0437 57.1299V57.1416Z" fill="white"/>
<path d="M85.8177 56.4641C86.301 56.4641 86.6233 56.6355 86.9691 56.9469L87.3817 56.4369C87.0044 56.1099 86.5093 55.8763 85.8609 55.8763C84.8549 55.8763 83.7939 56.616 83.7939 58.3796C83.7939 60.0382 84.7567 60.8324 85.8177 60.8324C86.4897 60.8324 86.9573 60.5793 87.362 60.1705L86.9494 59.7384C86.6233 60.0537 86.3089 60.2445 85.8452 60.2445C84.9925 60.2445 84.4895 59.4931 84.4895 58.3212C84.4895 57.1494 85.0711 56.4641 85.8216 56.4641H85.8177Z" fill="white"/>
<path d="M90.3166 55.8763C89.7154 55.8763 89.2635 56.1527 88.9884 56.5576V54.319H88.3047V60.7351H88.9884V57.9514C88.9884 56.908 89.515 56.4642 90.1791 56.4642C90.9493 56.4642 91.3108 56.9236 91.3108 57.9514V60.7351H91.9985V57.8307C91.9985 56.4642 91.3305 55.8763 90.3127 55.8763H90.3166Z" fill="white"/>
<path d="M95.0643 55.8763C93.8972 55.8763 92.9619 56.7406 92.9619 58.3602C92.9619 59.9798 93.8579 60.8324 95.0289 60.8324C96.1999 60.8324 97.1352 59.937 97.1352 58.3212C97.1352 56.7055 96.2314 55.8763 95.0643 55.8763ZM95.0485 60.2445C94.2155 60.2445 93.6535 59.5943 93.6535 58.3407C93.6535 57.0871 94.2155 56.4641 95.0485 56.4641C95.8816 56.4641 96.4435 57.091 96.4435 58.3407C96.4435 59.5905 95.8777 60.2445 95.0485 60.2445Z" fill="white"/>
<path d="M98.8605 54.319H98.1729V60.7351H98.8605V54.319Z" fill="white"/>
<path d="M101.996 55.8763C101.375 55.8763 100.805 56.032 100.388 56.2578L100.644 56.8145C101.037 56.5848 101.449 56.4486 101.952 56.4486C102.656 56.4486 102.994 56.7951 102.994 57.4959V58.0643C102.711 57.9047 102.278 57.7879 101.799 57.7879C100.844 57.7879 99.9561 58.2434 99.9561 59.314C99.9561 60.4664 100.742 60.8324 101.493 60.8324C102.18 60.8324 102.656 60.5209 102.994 60.155V60.7351H103.681V57.418C103.681 56.3084 103.033 55.8763 101.996 55.8763ZM102.994 59.5632C102.703 59.9603 102.231 60.2796 101.614 60.2796C101.033 60.2796 100.636 59.9681 100.636 59.2634C100.636 58.6638 101.06 58.329 101.764 58.329C102.349 58.329 102.687 58.4303 102.998 58.6016V59.5632H102.994Z" fill="white"/>
<path d="M105.678 56.5654V55.9736H104.99V60.7351H105.678V57.9436C105.678 57.0365 106.051 56.5031 106.719 56.5031C107.042 56.5031 107.25 56.5732 107.442 56.6822L107.615 55.9931C107.454 55.923 107.222 55.8763 106.869 55.8763C106.354 55.8763 105.894 56.1799 105.678 56.5654Z" fill="white"/>
<path d="M110.256 57.9708C109.439 57.6049 109.195 57.4414 109.195 57.0404C109.195 56.6977 109.49 56.4486 109.993 56.4486C110.496 56.4486 110.818 56.5887 111.192 56.8768L111.577 56.3785C111.207 56.0787 110.7 55.8724 110.04 55.8724C109.168 55.8724 108.539 56.359 108.539 57.0871C108.539 57.8502 108.944 58.1383 109.907 58.5432C110.755 58.9052 111.042 59.1233 111.042 59.5126C111.042 59.9798 110.728 60.2484 110.076 60.2484C109.596 60.2484 109.148 60.0538 108.763 59.7228L108.362 60.2212C108.818 60.5871 109.396 60.8285 110.056 60.8285C110.885 60.8285 111.702 60.4236 111.702 59.4892C111.702 58.6327 111.172 58.3758 110.264 57.967L110.256 57.9708Z" fill="white"/>
<path d="M114.823 55.8763C114.217 55.8763 113.769 56.1527 113.494 56.5576V54.319H112.811V60.7351H113.494V57.9514C113.494 56.908 114.017 56.4642 114.685 56.4642C115.451 56.4642 115.817 56.9236 115.817 57.9514V60.7351H116.504V57.8307C116.504 56.4642 115.836 55.8763 114.823 55.8763Z" fill="white"/>
<path d="M118.547 55.9736H117.863V60.7351H118.547V55.9736Z" fill="white"/>
<path d="M118.222 54.1516C117.939 54.1516 117.719 54.3696 117.719 54.646C117.719 54.9068 117.939 55.1249 118.222 55.1249C118.473 55.1249 118.697 54.9068 118.697 54.646C118.697 54.3696 118.473 54.1516 118.222 54.1516Z" fill="white"/>
<path d="M122.064 55.8763C121.416 55.8763 120.956 56.1916 120.618 56.5576V55.9775H119.935V62.487H120.618V60.2017C120.956 60.5793 121.369 60.8324 121.974 60.8324C122.98 60.8324 123.786 59.9603 123.786 58.2784C123.786 56.5965 123.023 55.8763 122.064 55.8763ZM121.919 60.2445C121.353 60.2445 120.886 59.9253 120.618 59.5282V57.1533C120.956 56.7406 121.381 56.4641 121.892 56.4641C122.654 56.4641 123.114 57.091 123.114 58.2862C123.114 59.5632 122.721 60.2445 121.919 60.2445Z" fill="white"/>
<path d="M127.416 55.0314H130.466V54.389H126.701V60.7351H127.416V57.7762H129.177V57.1377H127.416V55.0314Z" fill="white"/>
<path d="M132.553 55.8763C131.385 55.8763 130.446 56.7406 130.446 58.3602C130.446 59.9798 131.346 60.8324 132.513 60.8324C133.68 60.8324 134.62 59.937 134.62 58.3212C134.62 56.7055 133.724 55.8763 132.553 55.8763ZM132.533 60.2445C131.7 60.2445 131.142 59.5943 131.142 58.3407C131.142 57.0871 131.7 56.4641 132.533 56.4641C133.366 56.4641 133.936 57.091 133.936 58.3407C133.936 59.5905 133.37 60.2445 132.533 60.2445Z" fill="white"/>
<path d="M138.411 58.7534C138.411 59.7968 137.893 60.2406 137.225 60.2406C136.454 60.2406 136.089 59.7812 136.089 58.7534V55.9736H135.401V58.8741C135.401 60.2445 136.069 60.8324 137.087 60.8324C137.684 60.8324 138.132 60.556 138.408 60.155V60.7351H139.095V55.9736H138.408V58.7534H138.411Z" fill="white"/>
<path d="M142.263 55.8763C141.662 55.8763 141.214 56.1527 140.935 56.5576V55.9775H140.247V60.739H140.935V57.9553C140.935 56.9119 141.457 56.468 142.125 56.468C142.896 56.468 143.261 56.9274 143.261 57.9553V60.739H143.945V57.8346C143.945 56.468 143.277 55.8802 142.259 55.8802L142.263 55.8763Z" fill="white"/>
<path d="M148.078 56.5109C147.74 56.1293 147.328 55.8763 146.723 55.8763C145.717 55.8763 144.911 56.7406 144.911 58.4342C144.911 60.1277 145.67 60.8324 146.632 60.8324C147.281 60.8324 147.737 60.521 148.078 60.155V60.7351H148.766V54.319H148.078V56.5148V56.5109ZM148.078 59.5515C147.74 59.9681 147.316 60.2406 146.805 60.2406C146.047 60.2406 145.587 59.6177 145.587 58.4186C145.587 57.1377 145.98 56.4603 146.778 56.4603C147.347 56.4603 147.807 56.7756 148.078 57.1766V59.5515Z" fill="white"/>
<path d="M151.678 55.8763C151.053 55.8763 150.487 56.032 150.067 56.2578L150.322 56.8145C150.719 56.5848 151.132 56.4486 151.631 56.4486C152.334 56.4486 152.672 56.7951 152.672 57.4959V58.0643C152.389 57.9047 151.957 57.7879 151.474 57.7879C150.527 57.7879 149.635 58.2434 149.635 59.314C149.635 60.4664 150.425 60.8324 151.175 60.8324C151.863 60.8324 152.334 60.5209 152.672 60.155V60.7351H153.36V57.418C153.36 56.3084 152.712 55.8763 151.678 55.8763ZM152.672 59.5632C152.382 59.9603 151.914 60.2796 151.289 60.2796C150.708 60.2796 150.315 59.9681 150.315 59.2634C150.315 58.6638 150.735 58.329 151.438 58.329C152.024 58.329 152.362 58.4303 152.672 58.6016V59.5632Z" fill="white"/>
<path d="M155.549 54.319H154.861V55.9775H154.268V56.5498H154.861V59.7618C154.861 60.5482 155.183 60.8363 155.78 60.8363C156.142 60.8363 156.397 60.7857 156.665 60.6728L156.712 60.0849C156.492 60.1745 156.311 60.2212 156.032 60.2212C155.667 60.2212 155.549 60.0771 155.549 59.6489V56.5498H156.739V55.9775H155.549V54.319Z" fill="white"/>
<path d="M158.296 54.1516C158.013 54.1516 157.789 54.3696 157.789 54.646C157.789 54.9068 158.013 55.1249 158.296 55.1249C158.555 55.1249 158.775 54.9068 158.775 54.646C158.775 54.3696 158.555 54.1516 158.296 54.1516Z" fill="white"/>
<path d="M158.621 55.9736H157.938V60.7351H158.621V55.9736Z" fill="white"/>
<path d="M161.765 55.8763C160.598 55.8763 159.663 56.7406 159.663 58.3602C159.663 59.9798 160.559 60.8324 161.73 60.8324C162.901 60.8324 163.832 59.937 163.832 58.3212C163.832 56.7055 162.936 55.8763 161.765 55.8763ZM161.746 60.2445C160.917 60.2445 160.359 59.5943 160.359 58.3407C160.359 57.0871 160.917 56.4641 161.746 56.4641C162.575 56.4641 163.149 57.091 163.149 58.3407C163.149 59.5905 162.583 60.2445 161.746 60.2445Z" fill="white"/>
<path d="M166.834 55.8763C166.229 55.8763 165.781 56.1527 165.506 56.5576V55.9775H164.818V60.739H165.506V57.9553C165.506 56.9119 166.029 56.468 166.697 56.468C167.471 56.468 167.832 56.9274 167.832 57.9553V60.739H168.516V57.8346C168.516 56.468 167.848 55.8802 166.834 55.8802V55.8763Z" fill="white"/>
<path d="M95.9289 10.5625L90.6514 8.39779L95.9289 6.23313L94.9897 3.99061L89.7162 6.15527L91.9011 0.926599L89.6376 0L87.4527 5.22867L85.2639 0L83.0044 0.926599L85.1893 6.15527L79.9118 3.99061L78.9766 6.23313L84.254 8.39779L78.9766 10.5625L79.9118 12.805L85.1893 10.6364L83.0044 15.8651L85.2679 16.7956L87.4527 11.5669L89.6376 16.7956L91.9011 15.8651L89.7162 10.6364L94.9897 12.805L95.9289 10.5625Z" fill="white"/>
<path d="M61.7722 25.1583H65.2813V15.8651H53.2764V18.9953H61.7722V25.1583Z" fill="white"/>
<path d="M75.4675 25.1583H78.9767V15.8651H66.9717V18.9953H75.4675V25.1583Z" fill="white"/>
<path d="M52.7109 29.9626H75.4673V34.7475H78.9765V26.8324H52.7109V29.9626Z" fill="white"/>
<path d="M61.207 49.3667H78.9768V36.3593H61.207V49.3667ZM64.7201 39.4895H75.4715V46.2365H64.7201V39.4895Z" fill="white"/>
</g>
<defs>
<clipPath id="clip0_22_157">
<rect width="180" height="62.487" fill="white"/>
</clipPath>
</defs>
</svg>
