<svg width="78" height="78" viewBox="0 0 78 78" fill="none" xmlns="http://www.w3.org/2000/svg">
<path d="M19.9975 49.7026V39.3642L17.0326 32.7358C15.7163 29.7941 11.5719 29.7941 10.2589 32.7358L2.38396 50.3526C1.10351 53.2154 3.1822 56.4558 6.30025 56.4558H20.597C21.6494 56.4558 22.5877 56.1078 23.3371 55.5366C21.3431 54.3645 20.0008 52.1944 20.0008 49.7026H19.9975Z" fill="#35763C"/>
<path d="M74.8026 48.2613L66.5106 22.9326C65.2302 19.0225 59.7402 19.0225 58.4597 22.9326L53.7941 37.1843C55.775 39.2888 56.9903 42.1286 56.9903 45.2573C56.9903 49.1478 55.1136 52.5917 52.2236 54.7289C53.3835 55.7894 54.9279 56.4526 56.671 56.4526H68.9249C73.1442 56.4526 76.1254 52.2962 74.8058 48.2581L74.8026 48.2613Z" fill="#648943"/>
<path d="M50.3633 47.6669L53.7941 37.1874C51.6698 34.932 48.6691 33.5203 45.3393 33.5203C42.8663 33.5203 40.5726 34.2983 38.6894 35.6247V49.7024C38.6894 51.2356 38.1779 52.644 37.3242 53.7767C39.4127 55.7761 42.2342 57.0039 45.3425 57.0039C47.9164 57.0039 50.2982 56.1602 52.227 54.7353C50.3731 53.0413 49.4966 50.3328 50.3666 47.6702L50.3633 47.6669Z" fill="#68AC45"/>
<path d="M56.9904 45.2605C56.9904 42.1318 55.7718 39.2919 53.7942 37.1875L50.3633 47.667C49.4901 50.3296 50.3666 53.0381 52.2237 54.7321C55.1137 52.5949 56.9904 49.1509 56.9904 45.2605Z" fill="#35763C"/>
<path d="M33.6884 45.2606C33.6884 41.2685 35.6661 37.7457 38.6897 35.6249V30.1192C38.6897 26.3897 35.6889 23.366 31.9877 23.366H26.703C23.0017 23.366 20.001 26.3897 20.001 30.1192V39.3676L24.7481 49.9882C25.6734 52.0598 24.9436 54.3153 23.3373 55.5399C24.3278 56.121 25.4747 56.4591 26.703 56.4591H31.9877C34.1674 56.4591 36.0995 55.4053 37.3245 53.7802C35.0862 51.6396 33.6917 48.6192 33.6917 45.2639L33.6884 45.2606Z" fill="#A4BC49"/>
<path d="M24.7447 49.9849L19.9976 39.3643V49.7026C19.9976 52.1944 21.3399 54.3645 23.3339 55.5366C24.9402 54.312 25.67 52.0565 24.7447 49.9849Z" fill="#245F2E"/>
<path d="M38.6863 35.6248C35.666 37.7456 33.6851 41.2716 33.6851 45.2605C33.6851 48.6125 35.0828 51.6362 37.3179 53.7768C38.1715 52.6441 38.6831 51.2357 38.6831 49.7025V35.6248H38.6863Z" fill="#3F8937"/>
</svg>
