<svg xmlns="http://www.w3.org/2000/svg" xmlns:xlink="http://www.w3.org/1999/xlink" width="99" height="121.239" viewBox="0 0 99 121.239">
  <defs>
    <clipPath id="clip-path">
      <rect id="사각형_86" data-name="사각형 86" width="99" height="121.239" fill="none"/>
    </clipPath>
    <clipPath id="clip-path-3">
      <rect id="사각형_82" data-name="사각형 82" width="24.153" height="10.18" fill="none"/>
    </clipPath>
    <clipPath id="clip-path-4">
      <rect id="사각형_83" data-name="사각형 83" width="4.616" height="29.317" fill="none"/>
    </clipPath>
    <clipPath id="clip-path-5">
      <rect id="사각형_84" data-name="사각형 84" width="4.796" height="9.847" fill="none"/>
    </clipPath>
  </defs>
  <g id="campaign04" transform="translate(-747 -2653.798)">
    <g id="campaign04-2" data-name="campaign04" transform="translate(747 2653.798)">
      <g id="그룹_39" data-name="그룹 39" clip-path="url(#clip-path)">
        <g id="그룹_38" data-name="그룹 38">
          <g id="그룹_37" data-name="그룹 37" clip-path="url(#clip-path)">
            <path id="패스_104" data-name="패스 104" d="M197.729,47.5c-.342-1.479,1.4-6.586.276-6.7-1.435-.145-1.678,5.663-1.729,6.184s-.8.445-.733-.022c.1-.671,1.058-7.243-.39-7.259-.8-.008-.837,1.453-.837,1.453s-.541,6.476-1.225,6.445-.194-3.716-.125-5.087c.067-1.314-.591-2.069-1.078-1.5-.713.832-.709,4.17-.8,5.485s-.442,5.093-1.8,3.2-3.1-2.845-3.737-2.78-.761.989-.139,1.351a8.685,8.685,0,0,1,1.7,1.619,8.276,8.276,0,0,1,.977,1.606,7.244,7.244,0,0,1,.712,2.289,4.505,4.505,0,0,0,2,3.109l-.076,10.375L190.4,72.4l8.077,2.8L197.419,56.9c.4-3.518,1.945-7.968,2.511-10.03.9-3.288.48-3.432.077-3.45-.889-.039-1.944,5.521-2.278,4.078" transform="translate(-104.335 -22.39)" fill="#a36957"/>
            <path id="패스_105" data-name="패스 105" d="M204.415,67.772a7.573,7.573,0,0,0-.991.166,3.758,3.758,0,0,0-2.366,1.987l-.053.106-.078-.081a5.671,5.671,0,0,0-1.531-1.119c-.427-.213-.7-.3-.7-.322a2.265,2.265,0,0,1,.74.224,5.093,5.093,0,0,1,1.6,1.1l-.132.025a3.82,3.82,0,0,1,.407-.674,3.868,3.868,0,0,1,1.039-.933,3.689,3.689,0,0,1,1.041-.429,3.111,3.111,0,0,1,.746-.084.825.825,0,0,1,.272.035" transform="translate(-112.056 -38.2)" fill="#7c3b29"/>
            <path id="패스_106" data-name="패스 106" d="M206.354,78.952a6.029,6.029,0,0,1-3.51.113c.008-.05.79.073,1.758.039s1.74-.2,1.752-.152" transform="translate(-114.393 -44.52)" fill="#7c3b29"/>
            <path id="패스_107" data-name="패스 107" d="M98.908,7.367a6.07,6.07,0,0,1,4.969-5.456,7.894,7.894,0,0,0,2.048-.381,11.772,11.772,0,0,0,1.421-.952,4.054,4.054,0,0,1,5.015.677c1.158,1.279,1.454-.637,4.062.671a2.069,2.069,0,0,1,1.2,2.876,4.653,4.653,0,0,1,4.868,3.342c.342,1.319.186,2.966,1.291,3.764.535.387,1.248.453,1.8.818,1.023.679,1.16,2.121,1.028,3.341s-.417,2.52.112,3.628c.867,1.816,3.581,2.367,4.052,4.324.222.924-.091,2.073.61,2.716a3.234,3.234,0,0,0,1.02.5,4.244,4.244,0,0,1,.7,7.508c-.364.233-.8.455-.915.871-.129.464.2.912.45,1.326a4.081,4.081,0,0,1-5.411,5.692,6.383,6.383,0,0,1-3.527,3.239,3.876,3.876,0,0,1-2.218.218,4.44,4.44,0,0,1-1.6-.832c-2.3-1.731-5.543-4.4-5.948-7.249" transform="translate(-55.779 0)" fill="#263238"/>
            <path id="패스_108" data-name="패스 108" d="M98.655,20.862l-.1-2.041,12.191-2.713c3.769-.518,7.975,3.145,8.332,6.932a67.65,67.65,0,0,1,.313,12.522c-.808,6.356-5.632,7.312-5.632,7.312l.168,6.28-13.983.61Z" transform="translate(-55.578 -9.057)" fill="#a36957"/>
            <path id="패스_109" data-name="패스 109" d="M138.261,41.694a.812.812,0,0,1-.757.843.776.776,0,0,1-.859-.706.812.812,0,0,1,.756-.843.777.777,0,0,1,.86.706" transform="translate(-77.06 -23.113)" fill="#263238"/>
            <path id="패스_110" data-name="패스 110" d="M138.591,37.287c-.1.109-.726-.327-1.6-.3s-1.5.486-1.6.382c-.048-.046.048-.24.321-.452a2.231,2.231,0,0,1,1.275-.436,2.138,2.138,0,0,1,1.277.369c.275.2.372.386.324.435" transform="translate(-76.349 -20.574)" fill="#263238"/>
            <path id="패스_111" data-name="패스 111" d="M119.573,42.632a.811.811,0,0,1-.757.842.776.776,0,0,1-.859-.705.812.812,0,0,1,.756-.843.777.777,0,0,1,.86.706" transform="translate(-66.521 -23.642)" fill="#263238"/>
            <path id="패스_112" data-name="패스 112" d="M118.924,38.271c-.1.109-.727-.327-1.6-.3s-1.5.486-1.6.382c-.048-.046.048-.24.321-.451a2.227,2.227,0,0,1,1.274-.437,2.143,2.143,0,0,1,1.277.369c.274.2.372.386.324.435" transform="translate(-65.258 -21.129)" fill="#263238"/>
            <path id="패스_113" data-name="패스 113" d="M129.98,44.542a5.791,5.791,0,0,1,1.41-.3c.222-.03.432-.081.465-.234a1.136,1.136,0,0,0-.169-.656l-.712-1.677a29.205,29.205,0,0,1-1.618-4.394,29.3,29.3,0,0,1,1.968,4.253q.358.884.684,1.688a1.29,1.29,0,0,1,.143.871.562.562,0,0,1-.357.338,1.516,1.516,0,0,1-.377.064,5.679,5.679,0,0,1-1.437.047" transform="translate(-72.945 -21.024)" fill="#263238"/>
            <path id="패스_114" data-name="패스 114" d="M122.087,75a16.749,16.749,0,0,1-8.758-2s2.274,4.363,8.8,3.58Z" transform="translate(-63.912 -41.168)" fill="#7c3b29"/>
            <path id="패스_115" data-name="패스 115" d="M126.755,58.065a1.573,1.573,0,0,0-1.428-.54,1.436,1.436,0,0,0-.975.563.91.91,0,0,0-.037,1.043,1.056,1.056,0,0,0,1.153.254,3.311,3.311,0,0,0,1.1-.7.972.972,0,0,0,.242-.266.292.292,0,0,0-.012-.325" transform="translate(-70.024 -32.433)" fill="#7c3b29"/>
            <path id="패스_116" data-name="패스 116" d="M124.784,55.5c.142-.013.173.935,1,1.582s1.838.512,1.849.644c.015.059-.219.191-.645.215a2.36,2.36,0,0,1-1.542-.484,2.055,2.055,0,0,1-.782-1.328c-.048-.4.05-.633.115-.63" transform="translate(-70.3 -31.299)" fill="#263238"/>
            <path id="패스_117" data-name="패스 117" d="M118.21,30.669c-.079.24-.954.154-1.974.31-1.023.135-1.84.46-1.983.252-.064-.1.073-.327.4-.568a3.474,3.474,0,0,1,3.014-.428c.381.14.576.32.542.434" transform="translate(-64.424 -16.955)" fill="#263238"/>
            <path id="패스_118" data-name="패스 118" d="M137.973,31.447c-.147.2-.755.016-1.479.029-.724-.013-1.331.174-1.479-.028-.065-.1.025-.3.287-.5a2.142,2.142,0,0,1,2.383,0c.262.2.352.4.287.5" transform="translate(-76.13 -17.251)" fill="#263238"/>
            <path id="패스_119" data-name="패스 119" d="M119.2,13.5c-.856,2.28-2.9,5.727-5.3,6.138a7.151,7.151,0,0,1-6.552-2.4c-.278,1.818-2.229,2.872-4.028,3.258a7.231,7.231,0,0,1-3.853-.072,3.83,3.83,0,0,1-2.571-2.7c-.257-1.275,1.416-4.519,2.681-4.821" transform="translate(-54.63 -7.276)" fill="#263238"/>
            <path id="패스_120" data-name="패스 120" d="M84.305,47.326A4.983,4.983,0,0,1,80.982,52a3.531,3.531,0,0,1-6.72,1.859,4.232,4.232,0,0,0-.59-1.157c-.674-.738-1.867-.5-2.837-.736-1.748-.431-2.638-2.471-2.573-4.27a4.171,4.171,0,0,0-.025-1.061,4.715,4.715,0,0,0-1.217-1.777c-1.892-2.312-1.43-5.9.31-8.327.58-.81,1.324-1.665,1.2-2.653a5.343,5.343,0,0,0-.652-1.527,4.515,4.515,0,0,1,.863-5,1.421,1.421,0,0,0,.475-.664,1.378,1.378,0,0,0-.041-.522,5.28,5.28,0,0,1,4.049-5.943,1.315,1.315,0,0,0,.457-.138c.39-.241.363-.8.384-1.258a8.437,8.437,0,0,1,1.684-4.367c2.39-2.357,4.984-.764,5.924,0,0,0,2.362,8.515,2.14,10.148s-1.117,5.731-.518,7.519,1.634,5.466,1.016,7.162,0,8.04,0,8.04" transform="translate(-37.106 -7.454)" fill="#263238"/>
            <path id="패스_121" data-name="패스 121" d="M137.914,254.094s18.463,5.11,19.2,5.37c1.112.392.926,4.466-.805,4.4-.818-.03-14.181.5-15.87.392s-6.782-2.113-6.782-2.113Z" transform="translate(-75.377 -143.296)" fill="#e8505b"/>
            <path id="패스_122" data-name="패스 122" d="M161.005,265.48a8.1,8.1,0,0,1,2.119-3.682,4.1,4.1,0,0,0-2.119,3.682" transform="translate(-90.778 -147.637)" fill="#263238"/>
            <path id="패스_123" data-name="패스 123" d="M156.6,263.685c.091.016.277-.857.769-1.821s1.072-1.64,1.006-1.7a4.631,4.631,0,0,0-1.775,3.524" transform="translate(-88.299 -146.715)" fill="#263238"/>
            <path id="패스_124" data-name="패스 124" d="M152.34,262.376a6.481,6.481,0,0,1,1.437-3.677,3.467,3.467,0,0,0-1.437,3.677" transform="translate(-85.843 -145.889)" fill="#263238"/>
            <path id="패스_125" data-name="패스 125" d="M151.355,256.122a3.263,3.263,0,0,0,.2-1.374,6.482,6.482,0,0,0-.187-1.506,6.355,6.355,0,0,0-.275-.857,1.033,1.033,0,0,0-.3-.453.493.493,0,0,0-.634.031.815.815,0,0,0-.246.522,3.514,3.514,0,0,0-.024.488,4.069,4.069,0,0,0,.114.9,5.484,5.484,0,0,0,.568,1.411,3.729,3.729,0,0,0,.829,1.111c.042-.03-.267-.46-.636-1.213a6.066,6.066,0,0,1-.484-1.373,4.054,4.054,0,0,1-.089-.843c.008-.284,0-.638.17-.774a.178.178,0,0,1,.244-.021.772.772,0,0,1,.2.322,6.78,6.78,0,0,1,.28.815,7.394,7.394,0,0,1,.245,1.442c.054.836-.031,1.358.02,1.366" transform="translate(-84.53 -142.02)" fill="#263238"/>
            <path id="패스_126" data-name="패스 126" d="M148.419,260.99a2.584,2.584,0,0,0-1.191-.192,5.375,5.375,0,0,0-1.31.16,2.875,2.875,0,0,0-.754.278.779.779,0,0,0-.417.844.923.923,0,0,0,.665.659,1.691,1.691,0,0,0,.828,0,3.179,3.179,0,0,0,1.2-.59,3.243,3.243,0,0,0,.859-.845,8.176,8.176,0,0,0-.983.666,3.286,3.286,0,0,1-1.132.49,1.461,1.461,0,0,1-.685-.01.626.626,0,0,1-.45-.439.477.477,0,0,1,.274-.515,2.818,2.818,0,0,1,.67-.261,6.2,6.2,0,0,1,1.244-.217c.723-.051,1.176.024,1.183-.026" transform="translate(-81.617 -147.076)" fill="#263238"/>
            <path id="패스_127" data-name="패스 127" d="M167.373,266.67a4.984,4.984,0,0,1,1.268-3.11,2.648,2.648,0,0,0-1.268,3.11" transform="translate(-94.309 -148.629)" fill="#263238"/>
            <path id="패스_128" data-name="패스 128" d="M138.016,272.652a3.832,3.832,0,0,0,.714.336,15.847,15.847,0,0,0,2.055.637,29.32,29.32,0,0,0,7.048.668c2.767-.03,5.26-.157,7.069-.229l2.139-.113a3.835,3.835,0,0,0,.783-.084,3.853,3.853,0,0,0-.787-.037l-2.142.015-7.064.138a33.031,33.031,0,0,1-7-.572c-1.765-.363-2.8-.817-2.816-.76" transform="translate(-77.834 -153.758)" fill="#263238"/>
            <path id="패스_129" data-name="패스 129" d="M136.763,271.593c.025.043.53-.252,1.383-.627a6.429,6.429,0,0,1,3.494-.581,5.534,5.534,0,0,1,3.02,1.8,10.824,10.824,0,0,0,1.064,1.087,5.734,5.734,0,0,0-.9-1.235,7.332,7.332,0,0,0-1.224-1.145,4.383,4.383,0,0,0-1.907-.809,6.106,6.106,0,0,0-3.634.688,4.9,4.9,0,0,0-1.291.825" transform="translate(-77.127 -152.279)" fill="#263238"/>
            <g id="그룹_30" data-name="그룹 30" transform="translate(58.283 110.798)" opacity="0.3">
              <g id="그룹_29" data-name="그룹 29">
                <g id="그룹_28" data-name="그룹 28" clip-path="url(#clip-path-3)">
                  <path id="패스_130" data-name="패스 130" d="M137.914,254.094s18.463,5.11,19.2,5.37c1.112.392.926,4.466-.805,4.4-.818-.03-14.181.5-15.87.392s-6.782-2.113-6.782-2.113Z" transform="translate(-133.66 -254.094)"/>
                </g>
              </g>
            </g>
            <path id="패스_131" data-name="패스 131" d="M42.025,205.462l-3.986,8.191s-21.311-6.48-26.68-6.182S1.592,209.92.548,214.281s-1.187,10.378,5.077,14.554,37.4,6.483,37.4,6.483H55.341l20.136-26.549-3.244-2.631Z" transform="translate(0 -115.87)" fill="#263238"/>
            <path id="패스_132" data-name="패스 132" d="M63.574,230.56a2.289,2.289,0,0,1-.4-.007c-.264-.021-.657-.02-1.156-.09a23.948,23.948,0,0,1-4.177-.862,40.109,40.109,0,0,1-5.89-2.3c-2.155-1.016-4.453-2.267-6.868-3.564a70.936,70.936,0,0,0-6.956-3.337,31.163,31.163,0,0,0-6.018-1.8,21.241,21.241,0,0,0-4.219-.368c-.5-.011-.889.042-1.154.045a2.32,2.32,0,0,1-.4.005,2.273,2.273,0,0,1,.4-.059c.264-.02.651-.091,1.156-.1a19.777,19.777,0,0,1,4.255.286,30.322,30.322,0,0,1,6.076,1.757,67.828,67.828,0,0,1,6.992,3.331c2.417,1.3,4.707,2.553,6.847,3.577a41.934,41.934,0,0,0,5.838,2.346,26.371,26.371,0,0,0,4.135.94c.494.085.885.1,1.147.14a2.336,2.336,0,0,1,.4.061" transform="translate(-14.848 -122.999)" fill="#455a64"/>
            <path id="패스_133" data-name="패스 133" d="M123.865,226.2c3.958-1.555,25.724-8.48,33.429-17.385a8.52,8.52,0,0,0,2.11-7.392c-1.074-5.939-6.536-9.9-12.2-7.654-.805.319-2.657,1.038-3.43,1.454-2.113,1.136-36.354,22.852-36.354,22.852s5.966,11.634,5.817,12.082Z" transform="translate(-60.578 -108.916)" fill="#263238"/>
            <path id="패스_134" data-name="패스 134" d="M134.824,209.757a.415.415,0,0,1-.093.074l-.287.195-1.117.728-4.134,2.635L115.5,221.995l-7.439,4.638.048-.153,3.9,9.384,1.1,2.693.282.72a1.321,1.321,0,0,1,.085.253,1.325,1.325,0,0,1-.123-.238l-.318-.7-1.161-2.666-3.989-9.346-.041-.1.089-.056,7.428-4.655,13.735-8.54,4.18-2.562,1.143-.685.3-.173a.4.4,0,0,1,.107-.051" transform="translate(-60.816 -118.292)" fill="#455a64"/>
            <path id="패스_135" data-name="패스 135" d="M93.162,227.748a3.545,3.545,0,0,1-1.011-.38,14.144,14.144,0,0,1-4.188-3.066,3.563,3.563,0,0,1-.668-.849c.061-.056,1.151,1.176,2.779,2.359s3.123,1.86,3.089,1.935" transform="translate(-49.229 -126.015)" fill="#455a64"/>
            <path id="패스_136" data-name="패스 136" d="M127.734,211.171a8.26,8.26,0,0,1,.052,1.363c.012.839.045,2,.16,3.272s.291,2.42.43,3.248a8.229,8.229,0,0,1,.194,1.35,5.929,5.929,0,0,1-.379-1.313,25.323,25.323,0,0,1-.594-6.558,5.982,5.982,0,0,1,.137-1.36" transform="translate(-71.946 -119.089)" fill="#455a64"/>
            <path id="패스_137" data-name="패스 137" d="M132.034,210.512c0-.013.1-.024.267.037a1.2,1.2,0,0,1,.566.476,1.308,1.308,0,0,1,.161,1.1,1.192,1.192,0,0,1-1.1.777,1.161,1.161,0,0,1-1.167-.681,1.214,1.214,0,0,1,.152-1.1,1.06,1.06,0,0,1,.6-.443c.174-.042.272-.012.271,0a1.27,1.27,0,0,0-.707.543,1.051,1.051,0,0,0-.084.906.928.928,0,0,0,.926.507.959.959,0,0,0,.885-.592,1.154,1.154,0,0,0-.092-.919,1.61,1.61,0,0,0-.671-.609" transform="translate(-73.7 -118.712)" fill="#455a64"/>
            <path id="패스_138" data-name="패스 138" d="M100.951,208.549a1.167,1.167,0,0,1,.187.4,3.679,3.679,0,0,1,.179,1.2,4.332,4.332,0,0,1-.4,1.767,3.957,3.957,0,0,1-3.539,2.38,4.337,4.337,0,0,1-1.786-.3,3.671,3.671,0,0,1-1.048-.62c-.216-.189-.314-.315-.3-.325a6.594,6.594,0,0,0,1.417.768,4.4,4.4,0,0,0,1.708.23,3.827,3.827,0,0,0,3.328-2.239,4.4,4.4,0,0,0,.431-1.669,6.568,6.568,0,0,0-.177-1.6" transform="translate(-53.148 -117.61)" fill="#455a64"/>
            <path id="패스_139" data-name="패스 139" d="M152.5,212.638a1.412,1.412,0,0,1-.808-.114,3.059,3.059,0,0,1-2.042-3.126,1.408,1.408,0,0,1,.221-.785c.042.011-.039.31-.032.791a3.218,3.218,0,0,0,1.923,2.946c.438.2.743.246.737.289" transform="translate(-84.392 -117.646)" fill="#455a64"/>
            <path id="패스_140" data-name="패스 140" d="M177.174,220.327a.965.965,0,0,1,.13-.071l.392-.191,1.509-.727c1.307-.637,3.2-1.553,5.489-2.789a42,42,0,0,0,7.578-5.042,22.441,22.441,0,0,0,3.624-3.947,8.76,8.76,0,0,0,1.312-5.476,8.593,8.593,0,0,0-.72-2.8,7.527,7.527,0,0,0-.7-1.234,9.99,9.99,0,0,0-.9-1.077,23.79,23.79,0,0,0-2.038-1.837,6.133,6.133,0,0,0-2.221-1.328,8.29,8.29,0,0,0-2.464-.273,12.674,12.674,0,0,0-2.338.259,14.29,14.29,0,0,0-3.947,1.491l-5.386,2.985-1.468.807-.384.206a.936.936,0,0,1-.133.065.95.95,0,0,1,.125-.081l.375-.221,1.451-.836c1.266-.718,3.085-1.773,5.362-3.036a14.327,14.327,0,0,1,3.975-1.524,12.793,12.793,0,0,1,2.366-.271,8.431,8.431,0,0,1,2.513.273A6.283,6.283,0,0,1,192.959,195a23.778,23.778,0,0,1,2.056,1.847,10.1,10.1,0,0,1,.914,1.1,7.666,7.666,0,0,1,.72,1.262,8.757,8.757,0,0,1,.737,2.862,8.922,8.922,0,0,1-1.344,5.585,22.447,22.447,0,0,1-3.662,3.975,41.492,41.492,0,0,1-7.625,5.029c-2.3,1.224-4.2,2.123-5.519,2.741l-1.524.7-.4.175a1.034,1.034,0,0,1-.139.054" transform="translate(-98.414 -109.053)" fill="#455a64"/>
            <path id="패스_141" data-name="패스 141" d="M84.863,254.359s-18.524,4.881-19.268,5.133c-1.117.378-.981,4.455.751,4.413.819-.02,14.174.673,15.864.588s6.255-1.824,6.255-1.824Z" transform="translate(-36.586 -143.445)" fill="#e8505b"/>
            <path id="패스_142" data-name="패스 142" d="M90.19,265.492A17.356,17.356,0,0,0,89.4,263.5a17.362,17.362,0,0,0-1.284-1.716,4.1,4.1,0,0,1,2.073,3.708" transform="translate(-49.692 -147.629)" fill="#263238"/>
            <path id="패스_143" data-name="패스 143" d="M95.07,263.757c-.091.014-.267-.861-.747-1.831s-1.051-1.653-.984-1.715a4.631,4.631,0,0,1,1.731,3.546" transform="translate(-52.635 -146.743)" fill="#263238"/>
            <path id="패스_144" data-name="패스 144" d="M99.663,262.5a6.482,6.482,0,0,0-1.392-3.695,3.467,3.467,0,0,1,1.392,3.695" transform="translate(-55.417 -145.952)" fill="#263238"/>
            <path id="패스_145" data-name="패스 145" d="M100.55,256.279a3.272,3.272,0,0,1-.181-1.376,6.472,6.472,0,0,1,.205-1.5,6.364,6.364,0,0,1,.286-.853,1.032,1.032,0,0,1,.3-.449.493.493,0,0,1,.634.039.817.817,0,0,1,.239.525,3.573,3.573,0,0,1,.018.488,4.069,4.069,0,0,1-.125.9,5.477,5.477,0,0,1-.586,1.4,3.724,3.724,0,0,1-.843,1.1c-.042-.03.273-.457.651-1.2a6.063,6.063,0,0,0,.5-1.367,4.065,4.065,0,0,0,.1-.842c0-.284,0-.639-.16-.777a.179.179,0,0,0-.244-.024.783.783,0,0,0-.207.32,6.811,6.811,0,0,0-.29.811,7.434,7.434,0,0,0-.262,1.439c-.065.835.013,1.359-.037,1.366" transform="translate(-56.603 -142.114)" fill="#263238"/>
            <path id="패스_146" data-name="패스 146" d="M100.843,261.153a2.577,2.577,0,0,1,1.193-.177,5.358,5.358,0,0,1,1.308.177,2.89,2.89,0,0,1,.751.287.779.779,0,0,1,.406.849.921.921,0,0,1-.673.651,1.685,1.685,0,0,1-.828-.013,3.179,3.179,0,0,1-1.192-.6,3.234,3.234,0,0,1-.848-.856,8.192,8.192,0,0,1,.975.678,3.279,3.279,0,0,0,1.127.5,1.459,1.459,0,0,0,.685,0,.626.626,0,0,0,.455-.433.476.476,0,0,0-.268-.518,2.8,2.8,0,0,0-.666-.269,6.192,6.192,0,0,0-1.241-.232c-.722-.06-1.176.009-1.183-.041" transform="translate(-56.87 -147.177)" fill="#263238"/>
            <path id="패스_147" data-name="패스 147" d="M84.77,266.615a4.982,4.982,0,0,0-1.229-3.126,2.649,2.649,0,0,1,1.229,3.126" transform="translate(-47.11 -148.589)" fill="#263238"/>
            <path id="패스_148" data-name="패스 148" d="M90.246,272.981a3.835,3.835,0,0,1-.718.327,15.872,15.872,0,0,1-2.063.611,29.3,29.3,0,0,1-7.056.581c-2.766-.065-5.258-.221-7.065-.316l-2.138-.14a3.836,3.836,0,0,1-.782-.093,3.857,3.857,0,0,1,.788-.027l2.142.041,7.061.226a33.035,33.035,0,0,0,7.006-.486c1.769-.341,2.806-.782,2.826-.725" transform="translate(-39.715 -153.944)" fill="#263238"/>
            <path id="패스_149" data-name="패스 149" d="M105.5,271.871c-.025.042-.527-.259-1.375-.644a6.431,6.431,0,0,0-3.486-.624,5.532,5.532,0,0,0-3.042,1.759,10.843,10.843,0,0,1-1.077,1.074,5.73,5.73,0,0,1,.919-1.224,7.334,7.334,0,0,1,1.238-1.129,4.391,4.391,0,0,1,1.917-.785,6.108,6.108,0,0,1,3.626.733,4.9,4.9,0,0,1,1.281.841" transform="translate(-54.434 -152.406)" fill="#263238"/>
            <path id="패스_150" data-name="패스 150" d="M73.61,269.358c-.033-.023.127-.265.278-.694a3.379,3.379,0,0,0-.57-3.315c-.286-.355-.518-.529-.494-.562s.289.1.627.444a3.148,3.148,0,0,1,.6,3.5c-.2.436-.421.646-.443.628" transform="translate(-41.068 -149.324)" fill="#263238"/>
            <path id="패스_151" data-name="패스 151" d="M96.438,88.451,86.914,91.12l3.1,29.63s-1.78,10.579-1.78,13.359a5.526,5.526,0,0,0,2.811,4.968l30.425.919,1.555-1.346a4.391,4.391,0,0,0,1.016-3.394l-5.653-45.212-10.591-2.3Z" transform="translate(-49.015 -49.485)" fill="#e8505b"/>
            <path id="패스_152" data-name="패스 152" d="M89.133,134.436a1.14,1.14,0,0,1-.057-.224c-.033-.166-.075-.382-.128-.649-.107-.585-.256-1.4-.439-2.391-.357-2.04-.843-4.824-1.381-7.9-.518-3.08-.987-5.867-1.331-7.909-.159-1-.289-1.813-.383-2.4l-.1-.654a1.177,1.177,0,0,1-.022-.23,1.117,1.117,0,0,1,.057.224l.128.648.438,2.39c.357,2.04.844,4.824,1.382,7.9.518,3.079.987,5.866,1.331,7.909.16,1,.29,1.813.383,2.4l.1.655a1.1,1.1,0,0,1,.021.23" transform="translate(-48.102 -63.207)" fill="#263238"/>
            <path id="패스_153" data-name="패스 153" d="M120.234,88.983a3.355,3.355,0,0,1-.438.348c-.147.1-.338.215-.555.351-.228.115-.48.267-.78.387a10.282,10.282,0,0,1-2.161.674,16,16,0,0,1-2.755.287,27.515,27.515,0,0,1-2.765-.086,15.991,15.991,0,0,1-2.242-.293,6.744,6.744,0,0,1-1.448-.484,3.852,3.852,0,0,1-.365-.2c-.081-.051-.121-.079-.118-.085s.181.083.511.221a7.689,7.689,0,0,0,1.446.424,17.575,17.575,0,0,0,2.228.253c.844.056,1.774.095,2.749.071a16.88,16.88,0,0,0,2.728-.269,10.81,10.81,0,0,0,2.144-.629,12.816,12.816,0,0,0,1.822-.971" transform="translate(-60.121 -50.181)" fill="#263238"/>
            <path id="패스_154" data-name="패스 154" d="M134.057,190.624a.961.961,0,0,1-.207.042l-.6.086c-.26.038-.579.078-.951.11s-.794.083-1.264.105c-.937.067-2.057.1-3.3.079s-2.608-.11-4.034-.277-2.772-.417-3.986-.682-2.294-.569-3.189-.855c-.451-.133-.85-.28-1.2-.4s-.654-.234-.9-.331l-.562-.225a.907.907,0,0,1-.191-.09.948.948,0,0,1,.2.057l.573.194c.247.088.55.193.906.3s.756.25,1.208.375c.9.27,1.978.549,3.187.815s2.554.492,3.972.666,2.779.252,4.016.29,2.354.01,3.29-.041c.468-.014.891-.054,1.262-.079s.691-.053.952-.08l.6-.053a.96.96,0,0,1,.211-.007" transform="translate(-64.106 -106.126)" fill="#263238"/>
            <path id="패스_155" data-name="패스 155" d="M165.4,121.546a2.063,2.063,0,0,1-.145-.412c-.083-.268-.194-.658-.326-1.142-.264-.968-.6-2.311-.935-3.8s-.6-2.855-.767-3.842c-.086-.494-.15-.895-.189-1.173a2.112,2.112,0,0,1-.044-.434,2.051,2.051,0,0,1,.111.422l.245,1.161c.2.981.485,2.335.816,3.828s.651,2.837.884,3.812c.108.46.2.848.271,1.155a2.056,2.056,0,0,1,.078.43" transform="translate(-91.916 -62.45)" fill="#263238"/>
            <g id="그룹_33" data-name="그룹 33" transform="translate(48.622 40.312)" opacity="0.3">
              <g id="그룹_32" data-name="그룹 32">
                <g id="그룹_31" data-name="그룹 31" clip-path="url(#clip-path-4)">
                  <path id="패스_156" data-name="패스 156" d="M113.629,92.448c.381,1.324.026,3.254.213,4.439a63.205,63.205,0,0,1,.763,14.36,1.921,1.921,0,0,0,.049.778,2.347,2.347,0,0,0,.386.6,6.309,6.309,0,0,1,1.018,4.563,18.726,18.726,0,0,1-1.379,4.576c-.034-1.279.034-3.192.135-4.469.02-.255.15-.091.157-.346a5.237,5.237,0,0,0-1.291-4.051,3.289,3.289,0,0,1-.61-.687,2.274,2.274,0,0,1-.208-.819q-.991-8.035-1.354-16.131a1.29,1.29,0,0,1,.175-.881,2.355,2.355,0,0,1,.593-.406c.413-.272.67-.753,1.117-.965" transform="translate(-111.504 -92.448)"/>
                </g>
              </g>
            </g>
            <path id="패스_157" data-name="패스 157" d="M77.969,95.482s-8.7,2.049-6.587,15.082a80.573,80.573,0,0,0,5.189,18.506,8.031,8.031,0,0,0,8.265,5.188c1.579-.207,3.142.044,4.2-.593,1.6-.967,2.3-4.228,2.6-7.746.206-2.4.119-4.893.437-6.938.518-3.339-1.014-4.913-2.974-5.3l-7.686-1.532-.443,4.066Z" transform="translate(-40.07 -53.847)" fill="#e8505b"/>
            <path id="패스_158" data-name="패스 158" d="M100.958,145.546c.022-.017.145.157.443.38a3.064,3.064,0,0,0,1.435.57,4.791,4.791,0,0,0,2.275-.324,7.257,7.257,0,0,0,2.457-1.416,4.339,4.339,0,0,0,1.276-2.458,4.243,4.243,0,0,0-.273-2.268,5.947,5.947,0,0,0-1.223-1.767,1.523,1.523,0,0,1,.48.353,4.206,4.206,0,0,1,.942,1.328,4.317,4.317,0,0,1,.354,2.395,4.525,4.525,0,0,1-1.344,2.639,7.24,7.24,0,0,1-2.574,1.46,4.818,4.818,0,0,1-2.4.272,2.954,2.954,0,0,1-1.478-.692,1.16,1.16,0,0,1-.367-.472" transform="translate(-56.934 -77.972)" fill="#263238"/>
            <path id="패스_159" data-name="패스 159" d="M82.634,158.2c.027-.01.163.41.52,1.114a9.968,9.968,0,0,0,1.981,2.661,9.382,9.382,0,0,0,4.256,2.353,9.52,9.52,0,0,0,5.889-.413c.984-.4,1.34-1.493,1.717-2.405a15.9,15.9,0,0,0,.733-2.82c.313-1.84.385-3.532.491-4.947.1-1.383.184-2.518.246-3.354.033-.367.061-.668.082-.911a1.243,1.243,0,0,1,.05-.317,1.274,1.274,0,0,1,.012.32c-.007.244-.015.546-.025.914-.037.837-.088,1.974-.149,3.359a45.038,45.038,0,0,1-.429,4.981,15.821,15.821,0,0,1-.73,2.877,10.438,10.438,0,0,1-.648,1.445,2.593,2.593,0,0,1-1.221,1.135,9.686,9.686,0,0,1-6.087.409,9.559,9.559,0,0,1-6.275-5.236,6.918,6.918,0,0,1-.334-.856,1.262,1.262,0,0,1-.079-.31" transform="translate(-46.6 -84.12)" fill="#263238"/>
            <path id="패스_160" data-name="패스 160" d="M89.247,144.375a7.926,7.926,0,0,1,.019-1.566c.051-.964.143-2.295.263-3.763.064-.736.113-1.429.19-2.073a3.258,3.258,0,0,1,.593-1.636,1.744,1.744,0,0,1,.985-.643c.28-.056.434,0,.431.014s-.154.014-.4.1a1.768,1.768,0,0,0-.844.659c-.57.753-.5,2.147-.65,3.6-.12,1.468-.246,2.8-.352,3.755a7.933,7.933,0,0,1-.235,1.548" transform="translate(-50.316 -75.947)" fill="#263238"/>
            <path id="패스_161" data-name="패스 161" d="M90.441,108.43c-.078-.413-.2-1.009-.356-1.743-.314-1.469-.769-3.494-1.289-5.726a32.194,32.194,0,0,0-.826-3.137A7.278,7.278,0,0,0,86.7,95.481l-.169.137a7.445,7.445,0,0,1,1.175,2.3c.311.931.53,2,.794,3.115.521,2.233,1.009,4.249,1.377,5.706.184.728.338,1.316.451,1.721a2.709,2.709,0,0,0,.206.622,2.66,2.66,0,0,0-.09-.649" transform="translate(-48.797 -53.846)" fill="#263238"/>
            <g id="그룹_36" data-name="그룹 36" transform="translate(36.929 57.314)" opacity="0.3">
              <g id="그룹_35" data-name="그룹 35">
                <g id="그룹_34" data-name="그룹 34" clip-path="url(#clip-path-5)">
                  <path id="패스_162" data-name="패스 162" d="M89.486,131.513a3.4,3.4,0,0,0-1.957.661,6.5,6.5,0,0,0-2.589,3.665,7.6,7.6,0,0,0,.2,4.508c.158.449.466.958.941.939.559-.022.785-.72.863-1.275l.644-4.608A4.277,4.277,0,0,1,88,133.884a1.452,1.452,0,0,1,1.266-.8q.072-.82.143-1.641" transform="translate(-84.689 -131.438)"/>
                </g>
              </g>
            </g>
            <path id="패스_163" data-name="패스 163" d="M203.572,127.6a12.892,12.892,0,0,0,1.8-6.032,20.153,20.153,0,0,0-.853-6.631l-9.238-2.863-.059,3.084Z" transform="translate(-110.093 -63.207)" fill="#e8505b"/>
            <path id="패스_164" data-name="패스 164" d="M174.84,104.412l-15.757-11.4v.789l1.7,17.742s13.026,5.836,16.477,6.695a6.874,6.874,0,0,0,5.932-1.388Z" transform="translate(-89.714 -52.456)" fill="#e8505b"/>
            <path id="패스_165" data-name="패스 165" d="M199.659,127.7a1.237,1.237,0,0,1-.357-.188,6.223,6.223,0,0,1-.867-.676,9.7,9.7,0,0,1-2.1-2.939,19.206,19.206,0,0,1-1.2-3.407c-.117-.447-.2-.81-.256-1.062a1.361,1.361,0,0,1-.061-.4,10.823,10.823,0,0,1,.472,1.415,24.511,24.511,0,0,0,1.251,3.353,10.716,10.716,0,0,0,2.012,2.922c.645.647,1.135.946,1.112.98" transform="translate(-109.861 -67.124)" fill="#263238"/>
            <path id="패스_166" data-name="패스 166" d="M204.582,118.26a1.419,1.419,0,0,1-.408.005,9.527,9.527,0,0,1-1.1-.12,13.5,13.5,0,0,1-6.584-3.06,9.377,9.377,0,0,1-.8-.766,1.438,1.438,0,0,1-.259-.315c.028-.027.438.381,1.166.958a15.342,15.342,0,0,0,6.511,3.025c.91.184,1.487.235,1.484.273" transform="translate(-110.207 -64.291)" fill="#263238"/>
            <path id="패스_167" data-name="패스 167" d="M195.451,126.106a3.277,3.277,0,0,1-.49-.977,9.414,9.414,0,0,1-.524-2.585,18.574,18.574,0,0,1,.02-2.632,4.883,4.883,0,0,1,.136-1.081,5.485,5.485,0,0,1,.024,1.088c-.007.67-.026,1.594.045,2.608a11.607,11.607,0,0,0,.45,2.551c.194.635.372,1.011.338,1.028" transform="translate(-109.631 -67.014)" fill="#263238"/>
            <path id="패스_168" data-name="패스 168" d="M158.535,108.641a2.2,2.2,0,0,1,.164.483c.092.314.215.771.359,1.338.29,1.133.661,2.707,1.027,4.453s.656,3.338.845,4.492c.095.577.166,1.045.208,1.37a2.163,2.163,0,0,1,.043.508,2.191,2.191,0,0,1-.13-.492l-.279-1.356-.91-4.474c-.37-1.717-.7-3.27-.961-4.463-.114-.535-.21-.987-.289-1.354a2.208,2.208,0,0,1-.078-.5" transform="translate(-89.403 -61.268)" fill="#263238"/>
            <path id="패스_169" data-name="패스 169" d="M94.6,109.748,96.53,88.383l6.4,2.526.824,21.731a4.763,4.763,0,0,1-5.506,1.827,5.612,5.612,0,0,1-3.647-4.72" transform="translate(-53.349 -49.843)" fill="#a36957"/>
            <path id="패스_170" data-name="패스 170" d="M95.476,45.473,107.44,56l-2.166,7.857-.868.258L93.947,53.406l.661-7.675Z" transform="translate(-52.981 -25.644)" fill="#263238"/>
            <path id="패스_171" data-name="패스 171" d="M93.486,46.063,105.45,56.586l-2.166,7.857L91.956,54Z" transform="translate(-51.858 -25.977)" fill="#455a64"/>
            <path id="패스_172" data-name="패스 172" d="M103.2,71.1a4.663,4.663,0,0,0,1.2-2.941c-.027-1.61-.471-5.486-.471-5.486s2.078-4.375,2.025-4.957-.147-.573-.894-.338S102,61.6,102,61.6l-.757-2.957s1.927-3.105,2.08-3.538.409-.791-.075-.831-4.1,3.468-4.1,3.468l.292,3.24s-.072.258-.593-.2-.389-4.321-.389-4.321a16.626,16.626,0,0,0,1.2-2.621c-.03-.332.226-.69-.017-1.255s-.952.085-.952.085l-2.4,3.148L95.435,52.7s.036-.664-.828-.67l.334,10.1,2.189,7.775Z" transform="translate(-53.353 -29.344)" fill="#a36957"/>
            <path id="패스_173" data-name="패스 173" d="M103.68,91.984s-.018-.129-.034-.38c-.014-.267-.034-.638-.059-1.113-.044-.993-.108-2.423-.189-4.242-.146-3.681-.355-8.932-.607-15.288l0-.061.052-.044A4.185,4.185,0,0,0,104,69.22a4.781,4.781,0,0,0,.242-2.1c-.076-1.48-.259-3.019-.465-4.591l-.006-.042.018-.039c.391-.832.783-1.689,1.163-2.568.189-.44.378-.885.551-1.338.085-.226.169-.455.235-.683l.043-.169a1.233,1.233,0,0,0,.014-.141,1.029,1.029,0,0,0-.059-.3c.023-.07-.306,0-.518.075a.666.666,0,0,0-.283.144,2.066,2.066,0,0,0-.254.246,11.787,11.787,0,0,0-.912,1.191c-.575.837-1.119,1.718-1.647,2.614l-.188.32-.092-.358-.758-2.958-.016-.063.034-.056.977-1.6c.372-.63.781-1.277,1.082-1.9.062-.174.148-.353.19-.5.023-.08.01-.115.008-.108a.23.23,0,0,0-.145-.028,1.043,1.043,0,0,0-.174.087c-.072.039-.144.1-.216.144-.143.1-.285.212-.424.325-1.109.91-2.148,1.894-3.158,2.86l.045-.122q.147,1.644.29,3.24l0,.031-.007.023a.27.27,0,0,1-.287.18.588.588,0,0,1-.21-.066,1.6,1.6,0,0,1-.293-.2,1.2,1.2,0,0,1-.312-.66,8.922,8.922,0,0,1-.145-1.294c-.045-.853-.043-1.691-.02-2.519v-.032l.016-.031a21.582,21.582,0,0,0,1.159-2.41A.7.7,0,0,0,99.5,53.7c0-.036,0-.126.006-.181.014-.123.041-.232.059-.335a1.156,1.156,0,0,0-.02-.583c-.066-.212-.131-.3-.294-.269a1.173,1.173,0,0,0-.487.273l.016-.018-2.409,3.143-.156.2-.067-.247L95.3,52.573l0-.015v-.023a.515.515,0,0,0-.219-.42.89.89,0,0,0-.491-.128l.116-.119c.119,4.111.218,7.52.293,10.106l0-.017L96.1,66.24c.118.476.21.844.276,1.108s.081.379.081.379-.047-.123-.119-.369c-.074-.262-.178-.626-.312-1.1l-1.173-4.265,0-.007v-.009c-.1-2.585-.223-5.994-.375-10.1l0-.12h.121a1.112,1.112,0,0,1,.622.165.746.746,0,0,1,.324.627l0-.038q.416,1.5.864,3.113l-.223-.044,2.4-3.153.009-.011.007-.006a1.412,1.412,0,0,1,.623-.343.472.472,0,0,1,.417.113.788.788,0,0,1,.185.344,1.434,1.434,0,0,1,.03.711c-.02.112-.045.218-.055.314-.007.055,0,.076,0,.15a.775.775,0,0,1-.04.2,21.466,21.466,0,0,1-1.174,2.464l.017-.063c-.021.818-.021,1.654.025,2.492a8.718,8.718,0,0,0,.142,1.248.957.957,0,0,0,.215.495,1.335,1.335,0,0,0,.238.167.326.326,0,0,0,.1.034h.007a.15.15,0,0,0,.01.031l.005.008,0,0,.01.005.018.007,0,0c.072.027-.092-.035-.076-.027l0,.007,0,.054q-.145-1.6-.294-3.24l-.007-.072.052-.05c1.016-.973,2.05-1.955,3.177-2.881.141-.116.287-.227.438-.337.079-.052.15-.109.237-.158a.819.819,0,0,1,.322-.13.485.485,0,0,1,.365.113.4.4,0,0,1,.076.407c-.061.2-.138.356-.2.527-.338.7-.726,1.3-1.106,1.947l-.979,1.6.018-.119.757,2.958-.28-.039c.534-.9,1.079-1.786,1.663-2.632a11.934,11.934,0,0,1,.941-1.223,2.365,2.365,0,0,1,.289-.277,1.009,1.009,0,0,1,.38-.194,3.828,3.828,0,0,1,.379-.1.7.7,0,0,1,.237-.01.346.346,0,0,1,.253.18,1.2,1.2,0,0,1,.094.419,1.336,1.336,0,0,1-.018.227l-.048.19c-.072.245-.157.478-.245.709-.177.46-.368.907-.558,1.349-.385.883-.778,1.739-1.173,2.575l.013-.081c.2,1.582.382,3.12.454,4.618a5.041,5.041,0,0,1-.268,2.211A4.425,4.425,0,0,1,103,71.058l.049-.106c.208,6.357.378,11.61.5,15.291.051,1.821.091,3.251.119,4.245.009.476.016.847.021,1.114,0,.252-.006.382-.006.382" transform="translate(-53.276 -29.187)" fill="#7c3b29"/>
            <path id="패스_174" data-name="패스 174" d="M98.991,66.11a12.721,12.721,0,0,1-.372-2.762,12.726,12.726,0,0,1-.065-2.787,12.792,12.792,0,0,1,.372,2.763,12.8,12.8,0,0,1,.065,2.786" transform="translate(-55.552 -34.153)" fill="#7c3b29"/>
          </g>
        </g>
      </g>
    </g>
  </g>
</svg>
