<svg xmlns="http://www.w3.org/2000/svg" xmlns:xlink="http://www.w3.org/1999/xlink" width="71" height="115.066" viewBox="0 0 71 115.066">
  <defs>
    <clipPath id="clip-path">
      <rect id="사각형_89" data-name="사각형 89" width="71" height="115.066" fill="none"/>
    </clipPath>
  </defs>
  <g id="campaign03" transform="translate(-1342 -2545.732)">
    <g id="campaign03-2" data-name="campaign03" transform="translate(1342 2545.732)">
      <g id="그룹_45" data-name="그룹 45" clip-path="url(#clip-path)">
        <path id="패스_179" data-name="패스 179" d="M70.461,39.995c-5.134.6-11.619,1.089-18.563,1.479-.094-1.129-33.561.873-32.544.858,2.3-.033-19.026.545-19.282.188,0,0,.307,61.4-.073,91.958,23.792.077,47.288.132,70.071-.079q1.4-47.2.39-94.405" transform="translate(0 -19.647)" fill="#8dbac7"/>
        <path id="패스_180" data-name="패스 180" d="M.219,22.047C5.023,11.7,6.532,10.529,8.7,1.6,24.474,1.289,29.951.951,45.729.638,53.926.475,52.617.708,61.08,0c2.14,7.43,6.05,14.5,9.991,21.459-19.928,1.8-45.645,1.876-70.928,1.415Z" transform="translate(-0.07)" fill="#dbab70"/>
        <path id="패스_181" data-name="패스 181" d="M55.85,193.577q-.4-11.655-1.388-23.262a90.2,90.2,0,0,1,15.86-.264q.137,12.306-.1,24.607A18.526,18.526,0,0,1,57,194.423c-.68-.27-1.515-1.03-1.217-1.883" transform="translate(-26.754 -83.423)" fill="#dbab70"/>
        <path id="패스_182" data-name="패스 182" d="M55.874,192.845q-.4-11.646-1.388-23.262l-.763.763a91.694,91.694,0,0,1,15.86-.264l-.763-.763q.136,12.3-.1,24.607l.56-.736a18.206,18.206,0,0,1-7.435,1.029,17.77,17.77,0,0,1-3.621-.661c-.586-.169-2.7-.579-2.446-1.548a.764.764,0,0,0-1.472-.406,2.441,2.441,0,0,0,1.659,2.783,17.952,17.952,0,0,0,4.545,1.212,19.438,19.438,0,0,0,9.175-.938.79.79,0,0,0,.56-.736q.239-12.3.1-24.607a.781.781,0,0,0-.763-.763,91.7,91.7,0,0,0-15.86.264.775.775,0,0,0-.763.763q.987,11.611,1.388,23.262c.034.979,1.56.984,1.526,0" transform="translate(-26.015 -82.691)" fill="#a48054"/>
        <path id="패스_183" data-name="패스 183" d="M21.663,8.162l10.521-.095c3.453-.032,6.891.112,10.341.26,6.367.273,12.687-.2,19.042-.539,2.964-.16,5.943-.317,8.911-.195.982.041.98-1.486,0-1.526-5.608-.232-11.249.356-16.846.647-3.285.171-6.557.257-9.846.137-3.45-.126-6.9-.352-10.351-.322q-5.886.051-11.773.106a.764.764,0,0,0,0,1.526" transform="translate(-10.28 -2.955)" fill="#bf914d"/>
        <path id="패스_184" data-name="패스 184" d="M18.767,16.162l11-.094c3.69-.031,7.362.106,11.048.256,6.754.275,13.461-.188,20.2-.533,3.165-.162,6.344-.322,9.512-.2.982.038.981-1.488,0-1.526-5.963-.234-11.957.358-17.909.649-3.435.168-6.86.254-10.3.138-3.685-.125-7.365-.355-11.054-.325q-6.251.051-12.5.106a.764.764,0,0,0,0,1.526" transform="translate(-8.857 -6.884)" fill="#bf914d"/>
        <path id="패스_185" data-name="패스 185" d="M13.663,27.162l12.275-.095c4-.031,7.989.109,11.987.257,7.426.274,14.811-.188,22.226-.533,3.483-.162,6.98-.323,10.466-.2.982.035.981-1.491,0-1.526-6.577-.235-13.184.36-19.751.651-3.817.169-7.624.252-11.444.131-3.994-.126-7.984-.35-11.982-.321q-6.889.05-13.778.106a.764.764,0,0,0,0,1.526" transform="translate(-6.35 -12.288)" fill="#bf914d"/>
        <path id="패스_186" data-name="패스 186" d="M7.767,36.5,21.094,36.4c4.413-.031,8.813.108,13.223.257,8.145.275,16.253-.193,24.389-.538,3.773-.16,7.559-.317,11.336-.193.982.032.981-1.494,0-1.526-7.169-.235-14.366.357-21.525.648-4.147.168-8.287.256-12.437.138-4.451-.126-8.9-.355-13.351-.324l-14.962.106a.764.764,0,0,0,0,1.526" transform="translate(-3.453 -16.873)" fill="#bf914d"/>
        <path id="패스_187" data-name="패스 187" d="M62.292,178.785q.554,4.187,1.109,8.374l5.573-.071a.4.4,0,0,0,.5-.458,68.145,68.145,0,0,0-.234-8.515.451.451,0,0,0-.633-.5l-6.072,1.133a1.014,1.014,0,0,0-.208.1c-.072.031-.178.018-.2-.057s.143-.1.119-.022" transform="translate(-30.52 -87.237)" fill="#faf6e6"/>
        <path id="패스_188" data-name="패스 188" d="M68.593,177.981c.546,2.977.356,6.037.651,9.04a.784.784,0,0,0,.763.763.769.769,0,0,0,.763-.763c-.309-3.143-.133-6.328-.706-9.446a.77.77,0,0,0-.939-.533.78.78,0,0,0-.533.939" transform="translate(-33.688 -86.958)" fill="#dbab70"/>
        <path id="패스_189" data-name="패스 189" d="M62.321,186.133a48.345,48.345,0,0,0,7.291.289c.978-.043.984-1.57,0-1.526a48.347,48.347,0,0,1-7.291-.289.768.768,0,0,0-.763.763.781.781,0,0,0,.763.763" transform="translate(-30.24 -90.685)" fill="#dbab70"/>
        <path id="패스_190" data-name="패스 190" d="M45.28,221.728c.187-1.159.485-4.325.724-4.419.176-.069,15.947-.238,22.776.011-.168.958.837,3.311.67,4.269-7.392.265-24.17.139-24.17.139" transform="translate(-22.243 -106.692)" fill="#bf914d"/>
        <path id="패스_191" data-name="패스 191" d="M61.972,200.7a.328.328,0,0,0,.51-.031" transform="translate(-30.443 -98.576)" fill="#bf914d"/>
        <path id="패스_192" data-name="패스 192" d="M60.7,200.5a1.074,1.074,0,0,0,.207.169.379.379,0,0,0,.036.022l.016.008c.061.027.131.057.193.081a.366.366,0,0,0,.076.02,1.372,1.372,0,0,0,.276.03,1.156,1.156,0,0,0,.525-.144l.031-.019c.055-.039.111-.084.164-.127l.018-.015a.251.251,0,0,0,.025-.026c.043-.052.087-.109.127-.164,0-.007.01-.013.014-.02a.565.565,0,0,0,.091-.283.783.783,0,0,0-.364-.761l-.182-.077a.764.764,0,0,0-.406,0l-.182.077a.763.763,0,0,0-.274.274l-.014.02.119-.155a.3.3,0,0,1-.051.051l.155-.12a.337.337,0,0,1-.068.04l.182-.077a.376.376,0,0,1-.088.024l.2-.027a.349.349,0,0,1-.1,0l.2.027a.348.348,0,0,1-.082-.022l.182.077a.317.317,0,0,1-.067-.039l.154.12a.342.342,0,0,1-.043-.043.565.565,0,0,0-.245-.158.687.687,0,0,0-.588,0,.567.567,0,0,0-.246.158l-.12.154a.759.759,0,0,0-.1.385c.009.068.018.135.027.2a.766.766,0,0,0,.2.337" transform="translate(-29.706 -97.838)" fill="#dec9a4"/>
        <path id="패스_193" data-name="패스 193" d="M17.414,62.961q.327,4.889,1.089,9.736l7.309.056c.225-3.336.44-6.766-.573-9.952a.691.691,0,0,0-.264-.419.7.7,0,0,0-.384-.055l-6.724.3" transform="translate(-8.554 -30.616)" fill="#faf6e6"/>
        <path id="패스_194" data-name="패스 194" d="M23.389,61.674a54.423,54.423,0,0,1,.622,9.583.764.764,0,0,0,1.526,0,56.745,56.745,0,0,0-.677-9.989.768.768,0,0,0-.939-.533.782.782,0,0,0-.533.939" transform="translate(-11.483 -29.824)" fill="#8dbac7"/>
        <path id="패스_195" data-name="패스 195" d="M17.707,72.2a68.721,68.721,0,0,0,8.264.206c.98-.034.984-1.561,0-1.526a68.718,68.718,0,0,1-8.264-.206.769.769,0,0,0-.763.763.779.779,0,0,0,.763.763" transform="translate(-8.324 -34.716)" fill="#8dbac7"/>
        <path id="패스_196" data-name="패스 196" d="M15.54,82.522l.221,1.012a1.179,1.179,0,0,0,.356.73,1.156,1.156,0,0,0,.691.158,62.713,62.713,0,0,0,8.925-.768A.24.24,0,0,0,26,83.383l.111-1.321q-4.757-.215-9.52-.121c-.329.007-.763.111-.772.44" transform="translate(-7.634 -40.239)" fill="#bf914d"/>
        <path id="패스_197" data-name="패스 197" d="M46.911,62.543c.219,3.26-.042,6.43.465,9.657,2.436.019,5.5.117,7.933.136.225-3.336.118-6.483.068-10.043,0-.169-.758-.244-.9-.328a.7.7,0,0,0-.383-.055l-6.725.3" transform="translate(-23.045 -30.411)" fill="#faf6e6"/>
        <path id="패스_198" data-name="패스 198" d="M52.886,61.256a54.423,54.423,0,0,1,.622,9.583.764.764,0,0,0,1.526,0,56.745,56.745,0,0,0-.677-9.989.768.768,0,0,0-.939-.533.782.782,0,0,0-.533.939" transform="translate(-25.973 -29.619)" fill="#8dbac7"/>
        <path id="패스_199" data-name="패스 199" d="M47.2,71.781a68.727,68.727,0,0,0,8.265.206c.979-.034.984-1.561,0-1.526a68.725,68.725,0,0,1-8.265-.206.769.769,0,0,0-.763.763.779.779,0,0,0,.763.763" transform="translate(-22.814 -34.511)" fill="#8dbac7"/>
        <path id="패스_200" data-name="패스 200" d="M45.037,82.1q.111.506.222,1.012a1.177,1.177,0,0,0,.355.731,1.156,1.156,0,0,0,.691.157c2.988.029,6.377.376,9.339-.022.073-.01.125-.129-.212-.824-.03-.062.054-.124.06-.192l.111-1.321q-4.757-.215-9.52-.121c-.329.007-.763.111-.772.44" transform="translate(-22.124 -40.034)" fill="#bf914d"/>
        <path id="패스_201" data-name="패스 201" d="M76.408,62.057q.328,4.889,1.089,9.736l7.309.056c.225-3.336-.549-6.609-.573-9.952-.008-.973-.117-.335-.264-.419a.7.7,0,0,0-.383-.055l-6.725.3" transform="translate(-37.535 -30.138)" fill="#faf6e6"/>
        <path id="패스_202" data-name="패스 202" d="M82.383,60.838a54.424,54.424,0,0,1,.622,9.583.764.764,0,0,0,1.526,0,56.7,56.7,0,0,0-.677-9.989.768.768,0,0,0-.939-.533.782.782,0,0,0-.533.939" transform="translate(-40.463 -29.413)" fill="#8dbac7"/>
        <path id="패스_203" data-name="패스 203" d="M76.7,71.363a68.72,68.72,0,0,0,8.264.206c.98-.034.984-1.561,0-1.526a68.721,68.721,0,0,1-8.264-.206.769.769,0,0,0-.763.763.779.779,0,0,0,.763.763" transform="translate(-37.304 -34.306)" fill="#8dbac7"/>
        <path id="패스_204" data-name="패스 204" d="M74.534,81.687q.111.506.222,1.012a1.181,1.181,0,0,0,.355.731,1.156,1.156,0,0,0,.691.157,64.375,64.375,0,0,0,9.081-.273c.073-.01,1.224.428.76-.265a2.462,2.462,0,0,1-.262-.505c.037-.441-.317-.877-.28-1.317q-4.757-.215-9.52-.121c-.329.007-.763.111-.772.44" transform="translate(-36.614 -39.828)" fill="#bf914d"/>
        <path id="패스_205" data-name="패스 205" d="M113.439,61.8c-.126,3.264.153,6.392-.262,9.632l-7.3.263c-.32-3.329-.259-5.587-.576-10.034-.012-.169.975-.269,1.119-.357a.706.706,0,0,1,.381-.066l6.73.11" transform="translate(-51.726 -30.084)" fill="#faf6e6"/>
        <path id="패스_206" data-name="패스 206" d="M111.793,61.223c.322,3.09.293,6.178.451,9.276.05.977,1.577.983,1.526,0-.158-3.1-.129-6.186-.451-9.276a.785.785,0,0,0-.763-.763.768.768,0,0,0-.763.763" transform="translate(-54.916 -29.7)" fill="#8dbac7"/>
        <path id="패스_207" data-name="패스 207" d="M112.914,69.211a68.85,68.85,0,0,1-8.256.44.764.764,0,0,0,0,1.526,68.853,68.853,0,0,0,8.256-.44.786.786,0,0,0,.763-.763.768.768,0,0,0-.763-.763" transform="translate(-51.051 -33.997)" fill="#8dbac7"/>
        <path id="패스_208" data-name="패스 208" d="M114.6,81.03q-.1.509-.193,1.018a1.178,1.178,0,0,1-.334.74,1.155,1.155,0,0,1-.687.177c-2.986.114-6.2.682-9.177.367-.074-.008.079-.9.028-.955a.318.318,0,0,1-.065-.19q-.074-.659-.149-1.318,4.748-.35,9.512-.39c.329,0,.766.089.785.418" transform="translate(-51.1 -39.534)" fill="#bf914d"/>
        <path id="패스_209" data-name="패스 209" d="M17.9,96.957q.328,4.889,1.089,9.736l7.309.056c.225-3.336.44-6.766-.573-9.952a.691.691,0,0,0-.264-.419.7.7,0,0,0-.383-.055l-6.725.3" transform="translate(-8.791 -47.317)" fill="#faf6e6"/>
        <path id="패스_210" data-name="패스 210" d="M23.87,95.671a54.423,54.423,0,0,1,.622,9.583.764.764,0,0,0,1.526,0,56.745,56.745,0,0,0-.677-9.989.768.768,0,0,0-.939-.533.782.782,0,0,0-.533.939" transform="translate(-11.719 -46.525)" fill="#8dbac7"/>
        <path id="패스_211" data-name="패스 211" d="M18.189,106.2a68.724,68.724,0,0,0,8.265.206c.979-.034.983-1.561,0-1.526a68.725,68.725,0,0,1-8.265-.206.769.769,0,0,0-.763.763.779.779,0,0,0,.763.763" transform="translate(-8.56 -51.417)" fill="#8dbac7"/>
        <path id="패스_212" data-name="패스 212" d="M16.022,116.519q.111.506.222,1.012a1.177,1.177,0,0,0,.355.731,1.156,1.156,0,0,0,.691.157,62.564,62.564,0,0,0,8.925-.768.323.323,0,0,0,.2-.078.319.319,0,0,0,.06-.192l.111-1.321q-4.757-.215-9.52-.121c-.329.007-.763.111-.772.44" transform="translate(-7.871 -56.939)" fill="#bf914d"/>
        <path id="패스_213" data-name="패스 213" d="M47.392,96.539c.219,3.26-.042,6.43.465,9.657,2.436.019,5.5.117,7.933.136.225-3.336.118-6.483.068-10.043,0-.169-.758-.244-.9-.328a.7.7,0,0,0-.384-.055l-6.724.3" transform="translate(-23.281 -47.111)" fill="#faf6e6"/>
        <path id="패스_214" data-name="패스 214" d="M53.368,95.253a54.423,54.423,0,0,1,.622,9.583.764.764,0,0,0,1.526,0,56.744,56.744,0,0,0-.677-9.989.768.768,0,0,0-.939-.533.782.782,0,0,0-.533.939" transform="translate(-26.21 -46.319)" fill="#8dbac7"/>
        <path id="패스_215" data-name="패스 215" d="M47.686,105.778a68.72,68.72,0,0,0,8.264.206c.98-.034.984-1.561,0-1.526a68.72,68.72,0,0,1-8.264-.206.769.769,0,0,0-.763.763.779.779,0,0,0,.763.763" transform="translate(-23.05 -51.212)" fill="#8dbac7"/>
        <path id="패스_216" data-name="패스 216" d="M45.519,116.1q.111.506.222,1.012a1.178,1.178,0,0,0,.355.731,1.156,1.156,0,0,0,.691.157c2.988.029,6.377.376,9.339-.022.073-.01.125-.129-.212-.824-.03-.062.054-.124.06-.192l.111-1.321q-4.757-.215-9.52-.121c-.329.007-.763.111-.772.44" transform="translate(-22.361 -56.734)" fill="#bf914d"/>
        <path id="패스_217" data-name="패스 217" d="M76.889,96.053q.328,4.889,1.089,9.736l7.309.056c.225-3.336-.549-6.609-.573-9.952-.008-.973-.117-.335-.264-.419a.7.7,0,0,0-.383-.055l-6.725.3" transform="translate(-37.771 -46.838)" fill="#faf6e6"/>
        <path id="패스_218" data-name="패스 218" d="M82.865,94.835a54.423,54.423,0,0,1,.622,9.583.764.764,0,0,0,1.526,0,56.745,56.745,0,0,0-.677-9.989A.768.768,0,0,0,83.4,93.9a.782.782,0,0,0-.533.939" transform="translate(-40.7 -46.114)" fill="#8dbac7"/>
        <path id="패스_219" data-name="패스 219" d="M77.183,105.36a68.726,68.726,0,0,0,8.265.206c.979-.034.984-1.561,0-1.526a68.726,68.726,0,0,1-8.265-.206.769.769,0,0,0-.763.763.779.779,0,0,0,.763.763" transform="translate(-37.541 -51.006)" fill="#8dbac7"/>
        <path id="패스_220" data-name="패스 220" d="M75.016,115.683q.111.506.222,1.012a1.178,1.178,0,0,0,.355.731,1.156,1.156,0,0,0,.691.157,64.373,64.373,0,0,0,9.081-.273c.073-.01,1.223.428.759-.265a2.485,2.485,0,0,1-.262-.505c.037-.441-.317-.877-.28-1.317q-4.757-.215-9.52-.121c-.329.007-.763.111-.772.44" transform="translate(-36.851 -56.528)" fill="#bf914d"/>
        <path id="패스_221" data-name="패스 221" d="M113.922,95.8c-.126,3.264.153,6.392-.262,9.632l-7.3.263c-.32-3.329-.259-5.587-.576-10.034-.012-.169.974-.269,1.119-.357a.706.706,0,0,1,.381-.066l6.73.11" transform="translate(-51.963 -46.785)" fill="#faf6e6"/>
        <path id="패스_222" data-name="패스 222" d="M112.274,95.219c.321,3.09.293,6.178.451,9.276.05.977,1.577.983,1.526,0-.158-3.1-.13-6.186-.451-9.276a.785.785,0,0,0-.763-.763.768.768,0,0,0-.763.763" transform="translate(-55.152 -46.401)" fill="#8dbac7"/>
        <path id="패스_223" data-name="패스 223" d="M113.4,103.207a68.847,68.847,0,0,1-8.255.44.764.764,0,0,0,0,1.526,68.848,68.848,0,0,0,8.255-.44.786.786,0,0,0,.763-.763.768.768,0,0,0-.763-.763" transform="translate(-51.287 -50.698)" fill="#8dbac7"/>
        <path id="패스_224" data-name="패스 224" d="M115.08,115.027q-.1.509-.193,1.018a1.178,1.178,0,0,1-.334.74,1.155,1.155,0,0,1-.687.177c-2.986.114-6.2.682-9.176.367-.074-.008.079-.9.028-.955a.318.318,0,0,1-.065-.19q-.074-.659-.149-1.318,4.748-.35,9.512-.39c.329,0,.766.089.785.418" transform="translate(-51.337 -56.235)" fill="#bf914d"/>
        <path id="패스_225" data-name="패스 225" d="M18.373,130.7q.328,4.889,1.089,9.736l7.309.056c.225-3.336.44-6.766-.573-9.952a.691.691,0,0,0-.264-.419.7.7,0,0,0-.383-.055l-6.725.3" transform="translate(-9.026 -63.894)" fill="#faf6e6"/>
        <path id="패스_226" data-name="패스 226" d="M24.349,129.417A54.423,54.423,0,0,1,24.971,139a.764.764,0,0,0,1.526,0,56.745,56.745,0,0,0-.677-9.989.768.768,0,0,0-.939-.533.782.782,0,0,0-.533.939" transform="translate(-11.955 -63.102)" fill="#8dbac7"/>
        <path id="패스_227" data-name="패스 227" d="M18.667,139.942a68.722,68.722,0,0,0,8.265.206c.979-.034.984-1.561,0-1.526a68.722,68.722,0,0,1-8.265-.206.769.769,0,0,0-.763.763.779.779,0,0,0,.763.763" transform="translate(-8.795 -67.994)" fill="#8dbac7"/>
        <path id="패스_228" data-name="패스 228" d="M16.5,150.266q.111.506.222,1.012a1.178,1.178,0,0,0,.355.731,1.156,1.156,0,0,0,.691.157,62.565,62.565,0,0,0,8.925-.768.24.24,0,0,0,.263-.271l.111-1.321q-4.757-.215-9.52-.121c-.329.007-.763.111-.772.44" transform="translate(-8.105 -73.517)" fill="#bf914d"/>
        <path id="패스_229" data-name="패스 229" d="M47.87,130.286c.219,3.26-.042,6.43.465,9.657,2.436.019,5.5.117,7.933.136.225-3.336.118-6.483.068-10.043,0-.169-.758-.244-.9-.328a.7.7,0,0,0-.383-.055l-6.725.3" transform="translate(-23.516 -63.689)" fill="#faf6e6"/>
        <path id="패스_230" data-name="패스 230" d="M53.846,129a54.423,54.423,0,0,1,.622,9.583.764.764,0,0,0,1.526,0,56.745,56.745,0,0,0-.677-9.989.768.768,0,0,0-.939-.533.782.782,0,0,0-.533.939" transform="translate(-26.445 -62.897)" fill="#8dbac7"/>
        <path id="패스_231" data-name="패스 231" d="M48.164,139.524a68.726,68.726,0,0,0,8.265.207c.979-.034.984-1.561,0-1.526A68.729,68.729,0,0,1,48.164,138a.77.77,0,0,0-.763.763.778.778,0,0,0,.763.763" transform="translate(-23.285 -67.789)" fill="#8dbac7"/>
        <path id="패스_232" data-name="패스 232" d="M46,149.848q.111.506.222,1.012a1.177,1.177,0,0,0,.355.731,1.156,1.156,0,0,0,.691.157c2.988.029,6.377.376,9.339-.022.073-.01.125-.129-.212-.824-.03-.062.054-.124.06-.192l.111-1.321q-4.757-.215-9.52-.121c-.329.007-.763.111-.772.44" transform="translate(-22.596 -73.312)" fill="#bf914d"/>
        <path id="패스_233" data-name="패스 233" d="M77.367,129.8q.328,4.889,1.089,9.736l7.309.056c.225-3.336-.549-6.609-.573-9.952-.008-.972-.117-.335-.264-.419a.7.7,0,0,0-.383-.055l-6.724.3" transform="translate(-38.006 -63.416)" fill="#faf6e6"/>
        <path id="패스_234" data-name="패스 234" d="M83.343,128.581a54.423,54.423,0,0,1,.622,9.583.764.764,0,0,0,1.526,0,56.745,56.745,0,0,0-.677-9.989.768.768,0,0,0-.939-.533.782.782,0,0,0-.533.939" transform="translate(-40.935 -62.691)" fill="#8dbac7"/>
        <path id="패스_235" data-name="패스 235" d="M77.661,139.107a68.722,68.722,0,0,0,8.265.206c.979-.034.984-1.561,0-1.526a68.725,68.725,0,0,1-8.265-.206.769.769,0,0,0-.763.763.779.779,0,0,0,.763.763" transform="translate(-37.775 -67.584)" fill="#8dbac7"/>
        <path id="패스_236" data-name="패스 236" d="M75.494,149.43q.111.506.222,1.012a1.178,1.178,0,0,0,.355.731,1.156,1.156,0,0,0,.691.157,64.375,64.375,0,0,0,9.081-.273c.073-.01,1.223.428.759-.265a2.485,2.485,0,0,1-.262-.505c.037-.441-.317-.877-.28-1.317q-4.757-.215-9.52-.121c-.329.007-.763.111-.772.44" transform="translate(-37.086 -73.106)" fill="#bf914d"/>
        <path id="패스_237" data-name="패스 237" d="M114.4,129.547c-.126,3.264.153,6.392-.262,9.632l-7.3.263c-.319-3.329-.259-5.587-.576-10.034-.012-.169.974-.269,1.119-.357a.706.706,0,0,1,.381-.066l6.73.11" transform="translate(-52.198 -63.363)" fill="#faf6e6"/>
        <path id="패스_238" data-name="패스 238" d="M112.753,128.966c.321,3.09.292,6.178.45,9.276.05.977,1.577.983,1.526,0-.158-3.1-.129-6.186-.45-9.276a.786.786,0,0,0-.763-.763.768.768,0,0,0-.763.763" transform="translate(-55.387 -62.978)" fill="#8dbac7"/>
        <path id="패스_239" data-name="패스 239" d="M113.874,136.954a68.856,68.856,0,0,1-8.256.44.764.764,0,0,0,0,1.526,68.853,68.853,0,0,0,8.256-.44.786.786,0,0,0,.763-.763.768.768,0,0,0-.763-.763" transform="translate(-51.522 -67.275)" fill="#8dbac7"/>
        <path id="패스_240" data-name="패스 240" d="M115.558,148.774q-.1.509-.193,1.018a1.178,1.178,0,0,1-.334.74,1.155,1.155,0,0,1-.687.177c-2.986.114-6.2.682-9.177.367-.074-.008.079-.9.028-.955a.322.322,0,0,1-.065-.19q-.074-.659-.149-1.318,4.748-.35,9.512-.39c.329,0,.766.089.785.418" transform="translate(-51.571 -72.813)" fill="#bf914d"/>
        <path id="패스_241" data-name="패스 241" d="M18.878,166.058q.361,7.215,1.154,14.37l7.31.132c.2-4.92.394-9.977-.641-14.685a1.17,1.17,0,0,0-.266-.62.51.51,0,0,0-.384-.083l-6.723.4" transform="translate(-9.274 -81.137)" fill="#faf6e6"/>
        <path id="패스_242" data-name="패스 242" d="M24.8,164.241a120.2,120.2,0,0,1,.715,14.44.764.764,0,0,0,1.526,0,120.2,120.2,0,0,0-.715-14.44c-.106-.966-1.634-.976-1.526,0" transform="translate(-12.179 -80.324)" fill="#8dbac7"/>
        <path id="패스_243" data-name="패스 243" d="M19.229,179.631a46.872,46.872,0,0,0,8.267.36c.978-.044.983-1.571,0-1.526a46.874,46.874,0,0,1-8.267-.36.767.767,0,0,0-.763.763.783.783,0,0,0,.763.763" transform="translate(-9.071 -87.49)" fill="#8dbac7"/>
        <path id="패스_244" data-name="패스 244" d="M17.15,195.876c.076.5.131-.53.207-.032a2.17,2.17,0,0,0,.36,1.08.88.88,0,0,0,.693.237c2.989.064,6.253.592,9.213.024.073-.014-.139-1.13-.09-1.211a.637.637,0,0,0,.058-.283c.034-.65.09.227.124-.423q-4.758-.349-9.521-.242c-.329.007-.762.159-.77.643" transform="translate(-8.425 -95.792)" fill="#bf914d"/>
        <path id="패스_245" data-name="패스 245" d="M114.9,164.959c-.1,4.814.2,9.43-.2,14.207l-7.3.339c-.342-4.912-.3-8.243-.644-14.805-.013-.249.973-.39,1.117-.518a.5.5,0,0,1,.381-.094l6.731.207" transform="translate(-52.444 -80.605)" fill="#faf6e6"/>
        <path id="패스_246" data-name="패스 246" d="M113.256,164.47c.342,4.56.334,9.121.513,13.686.038.979,1.565.984,1.526,0-.179-4.566-.171-9.127-.513-13.686-.073-.973-1.6-.981-1.526,0" transform="translate(-55.634 -80.434)" fill="#8dbac7"/>
        <path id="패스_247" data-name="패스 247" d="M114.236,176.688a45.708,45.708,0,0,1-8.05.567.764.764,0,0,0,0,1.526,48.036,48.036,0,0,0,8.456-.621.769.769,0,0,0,.533-.939.781.781,0,0,0-.939-.533" transform="translate(-51.801 -86.79)" fill="#8dbac7"/>
        <path id="패스_248" data-name="패스 248" d="M116.206,194.382l-.186,1.5c-.049.4-.135-.688-.351-.436a.882.882,0,0,1-.686.256c-3.036.151-6.291.949-9.175.48-.074-.012.073-1.329.022-1.408s-.036,1.345-.044,1.244q-.079-.972-.158-1.945,4.746-.484,9.511-.512a.693.693,0,0,1,.788.621" transform="translate(-51.889 -95.085)" fill="#bf914d"/>
        <path id="패스_249" data-name="패스 249" d="M60.9,8.906q.337,5.515,1.106,10.984l7.31.076c.219-3.762.428-7.63-.592-11.226a.8.8,0,0,0-.264-.473A.631.631,0,0,0,68.08,8.2l-6.724.327" transform="translate(-29.918 -4.029)" fill="#faf6e6"/>
        <path id="패스_250" data-name="패스 250" d="M66.878,7.525a69.281,69.281,0,0,1,.64,10.836.764.764,0,0,0,1.526,0A71.879,71.879,0,0,0,68.35,7.119a.769.769,0,0,0-.939-.533.782.782,0,0,0-.533.939" transform="translate(-32.847 -3.225)" fill="#dbab70"/>
        <path id="패스_251" data-name="패스 251" d="M61.212,19.313a61.078,61.078,0,0,0,8.265.248c.979-.037.984-1.563,0-1.526a61.077,61.077,0,0,1-8.265-.248.769.769,0,0,0-.763.763.78.78,0,0,0,.763.763" transform="translate(-29.695 -8.736)" fill="#dbab70"/>
        <path id="패스_252" data-name="패스 252" d="M59.065,30.961l.223,1.142a1.409,1.409,0,0,0,.357.825,1.053,1.053,0,0,0,.692.179,55.524,55.524,0,0,0,8.924-.851.3.3,0,0,0,.2-.088.391.391,0,0,0,.059-.217q.055-.746.109-1.491-4.757-.25-9.52-.154c-.329.007-.762.124-.772.495" transform="translate(-29.015 -14.875)" fill="#a38b6c"/>
        <path id="패스_253" data-name="패스 253" d="M95.4,8.906q.337,5.515,1.106,10.984l7.31.076c.219-3.762.428-7.63-.592-11.226a.8.8,0,0,0-.264-.473.631.631,0,0,0-.383-.063l-6.724.327" transform="translate(-46.866 -4.029)" fill="#faf6e6"/>
        <path id="패스_254" data-name="패스 254" d="M101.378,7.525a69.281,69.281,0,0,1,.64,10.836.764.764,0,0,0,1.526,0,71.879,71.879,0,0,0-.694-11.242.769.769,0,0,0-.939-.533.782.782,0,0,0-.533.939" transform="translate(-49.795 -3.225)" fill="#dbab70"/>
        <path id="패스_255" data-name="패스 255" d="M95.712,19.313a61.078,61.078,0,0,0,8.265.248c.979-.037.984-1.563,0-1.526a61.077,61.077,0,0,1-8.265-.248.769.769,0,0,0-.763.763.78.78,0,0,0,.763.763" transform="translate(-46.643 -8.736)" fill="#dbab70"/>
        <path id="패스_256" data-name="패스 256" d="M93.565,30.961l.223,1.142a1.409,1.409,0,0,0,.357.825,1.053,1.053,0,0,0,.692.179,55.524,55.524,0,0,0,8.924-.851.3.3,0,0,0,.2-.088.391.391,0,0,0,.059-.217q.055-.746.109-1.491-4.757-.25-9.52-.154c-.329.007-.762.124-.772.495" transform="translate(-45.963 -14.875)" fill="#a38b6c"/>
        <path id="패스_257" data-name="패스 257" d="M26.9,8.906q.337,5.515,1.106,10.984l7.31.076c.219-3.762.428-7.63-.592-11.226a.8.8,0,0,0-.264-.473A.631.631,0,0,0,34.08,8.2l-6.724.327" transform="translate(-13.216 -4.029)" fill="#faf6e6"/>
        <path id="패스_258" data-name="패스 258" d="M32.878,7.525a69.282,69.282,0,0,1,.64,10.836.764.764,0,0,0,1.526,0A71.88,71.88,0,0,0,34.35,7.119a.769.769,0,0,0-.939-.533.782.782,0,0,0-.533.939" transform="translate(-16.145 -3.225)" fill="#dbab70"/>
        <path id="패스_259" data-name="패스 259" d="M27.212,19.313a61.078,61.078,0,0,0,8.265.248c.979-.037.984-1.563,0-1.526a61.077,61.077,0,0,1-8.265-.248.769.769,0,0,0-.763.763.78.78,0,0,0,.763.763" transform="translate(-12.993 -8.736)" fill="#dbab70"/>
        <path id="패스_260" data-name="패스 260" d="M25.065,30.961l.223,1.142a1.409,1.409,0,0,0,.357.825,1.053,1.053,0,0,0,.692.179,55.524,55.524,0,0,0,8.924-.851.3.3,0,0,0,.2-.088.391.391,0,0,0,.059-.217q.055-.746.109-1.491-4.757-.25-9.52-.154c-.329.007-.762.124-.772.495" transform="translate(-12.313 -14.875)" fill="#a38b6c"/>
      </g>
    </g>
  </g>
</svg>
