<svg xmlns="http://www.w3.org/2000/svg" xmlns:xlink="http://www.w3.org/1999/xlink" width="103" height="91.4" viewBox="0 0 103 91.4">
  <defs>
    <clipPath id="clip-path">
      <rect id="사각형_87" data-name="사각형 87" width="59.781" height="88.963" fill="none"/>
    </clipPath>
    <clipPath id="clip-path-2">
      <rect id="사각형_88" data-name="사각형 88" width="38.695" height="91.4" fill="none"/>
    </clipPath>
  </defs>
  <g id="campaign01" transform="translate(-966 -2335.183)">
    <g id="campaign01-2" data-name="campaign01" transform="translate(0 30)">
      <g id="그룹_42" data-name="그룹 42" transform="translate(966 2306.4)">
        <g id="그룹_41" data-name="그룹 41" clip-path="url(#clip-path)">
          <path id="패스_175" data-name="패스 175" d="M30.774,45.9c-9.041,5.21-21.845,2.384-27.853-6.148C.675,36.561-.674,32.483.346,28.716S5.291,21.885,9.1,22.738c-1.719-3.151-2.557-7.073-1.03-10.321S14.1,7.305,17.006,9.411a8.137,8.137,0,0,1,3.368-8.1,8.136,8.136,0,0,1,8.772-.056A9.83,9.83,0,0,0,32.06,2.98a9.533,9.533,0,0,0,3.014-.135c5.336-.485,10.214,5.314,8.824,10.488,3.275-2.567,8.53.047,9.938,3.964s.08,8.269-1.654,12.052c4.275.319,7.685,4.561,7.6,8.846s-3.254,8.182-7.265,9.695a15.121,15.121,0,0,1-12.4-1.225c-1.248-.686-2.6-1.55-3.984-1.206a8.91,8.91,0,0,0-2.281,1.314,5.743,5.743,0,0,1-6.229-.3" transform="translate(0 0)" fill="#b3c77d"/>
          <path id="패스_176" data-name="패스 176" d="M27.794,93.371l7.929-.028L34.613,63.931a26.149,26.149,0,0,1,.679-8.866c1.68-5.331,6.495-8.955,11.036-12.213L38.492,47c-.952.5-2.587,2.024-3.643,1.809-1.967-.4-1.966-3.884-2.142-5.883q-.63-7.143-1.258-14.287A120.411,120.411,0,0,1,28.4,46.9c-.162.654-.431,1.415-1.081,1.586a1.943,1.943,0,0,1-1.567-.569l-11.72-8.885A49.617,49.617,0,0,0,27.14,53.521s1.107,26.336.653,39.85" transform="translate(-2.16 -4.408)" fill="#bf8348"/>
        </g>
      </g>
      <g id="그룹_44" data-name="그룹 44" transform="translate(1030.305 2305.183)">
        <g id="그룹_43" data-name="그룹 43" clip-path="url(#clip-path-2)">
          <path id="패스_177" data-name="패스 177" d="M20.7,60.97C9.272,59.6,1.509,51,.249,42.513s2.484-16.9,6.178-24.993c3.641-7.978,6.48-10.807,9.564-15.2a5.476,5.476,0,0,1,9.329.641c3.544,6.69,7.49,10.8,10.483,21.026,1.839,6.281,3.688,12.715,2.533,19.083C36.924,50.852,30.813,58.11,21.978,62.5" transform="translate(0 0)" fill="#b3c77d"/>
          <path id="패스_178" data-name="패스 178" d="M19.606,69.015a17.941,17.941,0,0,0-5.27-11.555l4.714,4.931c.4.415.888.865,1.456.782.792-.117,1.047-1.116,1.122-1.912q.434-4.613.869-9.228c-.326,2.527-.58,5.344.953,7.378s5.562,1.941,6-.569a71.087,71.087,0,0,0-1.614,40.564l-8.669-.876a77.826,77.826,0,0,0-.282-34.472" transform="translate(-2.206 -8.007)" fill="#bf8348"/>
        </g>
      </g>
    </g>
  </g>
</svg>
