<?xml version="1.0" encoding="UTF-8"?>
<svg id="Layer_1" data-name="Layer 1" xmlns="http://www.w3.org/2000/svg" version="1.1" viewBox="0 0 326.63 88.6">
  <defs>
    <style>
      .cls-1 {
        fill: #fff;
        stroke-width: 0px;
      }
    </style>
  </defs>
  <g>
    <path class="cls-1" d="M96.46,56.71H10.15v-1.5c0-.45.06-11.07,5.46-21.85,5.02-10.03,15.76-21.99,38.4-21.99h.05c41.94.03,42.4,43.4,42.4,43.84v1.5ZM13.2,53.71h80.21c-.42-7.47-4.25-39.31-39.36-39.34h-.05c-36.38,0-40.37,31.86-40.81,39.34Z"/>
    <path class="cls-1" d="M63.25,56.71c-.54,0-1.06-.29-1.33-.8-.39-.73-.11-1.64.62-2.03,2.49-1.32,4.92-3.12,5.53-4.04-.1-.04-.23-.08-.4-.12-5.75-1.44-12.45-5.05-12.73-5.2l-.59-.32-.15-.66c-.85-3.62-2.75-6.34-5.67-8.07-7.59-4.51-19.65-1.27-19.77-1.23-.8.22-1.62-.25-1.84-1.05-.22-.8.25-1.62,1.04-1.84.54-.15,13.39-3.62,22.09,1.54,3.47,2.06,5.79,5.18,6.9,9.3,1.73.89,7.01,3.52,11.46,4.63,2.11.53,2.68,1.66,2.79,2.52.34,2.75-4.39,5.7-7.23,7.21-.22.12-.47.18-.7.18Z"/>
    <path class="cls-1" d="M33.7,56.71c-.67,0-1.28-.45-1.45-1.12-.88-3.4-2.49-5.7-4.79-6.84-3.98-1.97-8.89.04-8.94.06-.76.32-1.64-.04-1.96-.8-.32-.76.03-1.64.79-1.96.25-.11,6.19-2.57,11.42,0,3.12,1.54,5.27,4.5,6.38,8.79.21.8-.27,1.62-1.08,1.83-.13.03-.25.05-.38.05Z"/>
    <path class="cls-1" d="M36.26,50.35c-.16,0-.33,0-.5-.03-5.8-.72-4.81-11.66-4.68-12.9.09-.82.82-1.42,1.65-1.33.82.09,1.42.82,1.34,1.65-.4,3.87.09,9.37,2.07,9.61,2.11.26,4.98-5.75,6.25-10.18.23-.8,1.06-1.26,1.85-1.03s1.26,1.06,1.03,1.85c-.6,2.11-3.8,12.36-9.01,12.37Z"/>
    <path class="cls-1" d="M45.91,48.14c-1.25,0-2.28-.27-2.48-.32-.8-.22-1.26-1.05-1.04-1.85.22-.8,1.05-1.26,1.84-1.04h0c.6.16,2.51.47,3.41-.21.14-.1.56-.42.56-1.52,0-.82.68-1.49,1.5-1.49h.01c.83,0,1.49.68,1.49,1.51-.02,2.14-.97,3.3-1.76,3.9-1.07.8-2.39,1.02-3.53,1.02Z"/>
    <path class="cls-1" d="M63.12,48.14c-.11,0-.23-.01-.34-.04-.81-.19-1.31-1-1.12-1.8,1.85-7.91,4.93-12.77,9.18-14.45,4.55-1.8,8.56.82,8.73.94.69.46.88,1.39.42,2.08-.46.69-1.39.87-2.08.42-.14-.09-2.94-1.87-6-.63-3.21,1.29-5.75,5.55-7.33,12.33-.16.69-.78,1.16-1.46,1.16Z"/>
  </g>
  <g>
    <path class="cls-1" d="M107.53,23.39h12.44c2.37,0,4.42.45,6.14,1.35,1.72.9,3.03,2.16,3.92,3.79s1.34,3.49,1.34,5.6-.45,3.99-1.36,5.59c-.91,1.6-2.23,2.86-3.98,3.76-1.74.9-3.82,1.35-6.22,1.35h-8v-5.32h6.97c1.27,0,2.35-.22,3.22-.67.87-.45,1.52-1.07,1.94-1.88s.64-1.75.64-2.83-.21-2.02-.64-2.82c-.42-.8-1.08-1.41-1.96-1.85-.88-.43-1.96-.65-3.23-.65h-4.64v26.39h-6.59v-31.82Z"/>
    <path class="cls-1" d="M135.57,23.39h21.36v5.45h-14.77v7.73h13.65v5.43h-13.65v7.76h14.81v5.45h-21.4v-31.82Z"/>
    <path class="cls-1" d="M160.77,23.39h26.06v5.45h-9.76v26.37h-6.53v-26.37h-9.78v-5.45Z"/>
    <path class="cls-1" d="M201.38,23.39h6.59v13.18h13.8v-13.18h6.59v31.82h-6.59v-13.21h-13.8v13.21h-6.59v-31.82Z"/>
    <path class="cls-1" d="M260.05,23.39v20.68c0,2.3-.55,4.33-1.64,6.08-1.09,1.75-2.64,3.11-4.64,4.06-2,.96-4.3,1.44-6.89,1.44s-4.92-.48-6.9-1.44c-1.98-.96-3.51-2.31-4.6-4.06-1.09-1.75-1.64-3.78-1.64-6.08v-20.68h6.59v20.13c0,1.22.27,2.3.81,3.25s1.31,1.7,2.3,2.25c.99.55,2.14.82,3.44.82s2.44-.27,3.44-.82c1-.55,1.77-1.3,2.3-2.25s.8-2.04.81-3.25v-20.13h6.61Z"/>
    <path class="cls-1" d="M285.13,31.05c-.62-.72-1.39-1.28-2.3-1.67-.91-.39-1.94-.58-3.1-.58-1.64,0-3.08.41-4.32,1.23s-2.2,2.02-2.9,3.59-1.04,3.46-1.04,5.66.34,4.1,1.03,5.67,1.66,2.77,2.9,3.59c1.25.83,2.71,1.25,4.39,1.26,1.51,0,2.82-.28,3.93-.83s1.96-1.34,2.53-2.35.86-2.2.88-3.58l1.36.2h-8.26v-5.03h13.27v4c0,2.74-.58,5.12-1.74,7.15s-2.78,3.58-4.87,4.67c-2.09,1.08-4.46,1.63-7.13,1.63-2.97,0-5.59-.66-7.85-1.99-2.26-1.33-4.02-3.22-5.26-5.68s-1.87-5.35-1.87-8.66.64-6.25,1.93-8.72,3.05-4.37,5.3-5.68,4.78-1.97,7.6-1.97c2.36,0,4.52.45,6.49,1.35,1.97.9,3.57,2.16,4.81,3.79s2,3.48,2.3,5.56h-6.72c-.29-1.01-.75-1.88-1.37-2.6Z"/>
  </g>
</svg>