<?xml version="1.0" encoding="UTF-8"?>
<svg id="Layer_1" data-name="Layer 1" xmlns="http://www.w3.org/2000/svg" version="1.1" viewBox="0 0 313.12 308.36">
  <defs>
    <style>
      .cls-1 {
        fill: #fff;
        stroke-width: 0px;
      }
    </style>
  </defs>
  <path class="cls-1" d="M43.08,60.57c-.24.07-.66.27-1.27.62l-.21.11c-.31.18-.5.21-.58.1-.09-.1.03-.36.35-.78.57-.56,1.09-1.03,1.56-1.42.54-.43.99-.74,1.35-.92,1-1.13,1.78-2.02,2.33-2.67.94-1.09,1.84-2.17,2.71-3.24.32-.42.54-.77.66-1.04.08-.18.14-.38.18-.59.04-.24.11-.45.22-.64.17-.3.51-.72,1.03-1.25.3-.31.58-.52.85-.61.25-.08.44-.05.57.09.14.12.18.31.11.55-.04.27-.19.55-.45.85-.81,1-2.02,2.44-3.65,4.34-.9,1.04-2.1,2.43-3.6,4.15l-.22.29-.07.2c-.02.08-.03.15-.03.2.03.05.12.14.26.27.5.44,1.05.93,1.65,1.46.71.6,1.25,1.04,1.63,1.32.3.26.55.37.76.33.2-.03.46-.2.77-.53.85-.93,1.55-1.72,2.08-2.35.89-1.06,1.85-2.25,2.89-3.57.13-.24.24-.44.32-.62.04-.14.08-.29.11-.47.05-.28.12-.52.22-.71.19-.33.53-.78,1.02-1.33.31-.35.61-.58.9-.68.25-.08.45-.05.61.08.14.15.21.35.2.59-.04.27-.15.52-.33.76l-1.27,1.52c-.66.78-1.16,1.37-1.5,1.78-.59.69-1.03,1.25-1.34,1.69.47.44.93.9,1.39,1.38.3.32.72.77,1.27,1.35.68-.74,1.43-1.61,2.25-2.62.52-.65,1.17-1.48,1.95-2.51.15-.22.27-.43.36-.62.05-.11.1-.26.17-.45.1-.31.24-.6.41-.85.31-.41.86-.96,1.65-1.65.28-.26.55-.39.82-.41.23-.03.4.04.51.19.13.17.16.37.1.62-.08.26-.24.51-.48.75-1.56,1.59-3.5,3.71-5.81,6.35-2.88,3.31-5.06,5.97-6.55,8-.12.19-.22.39-.29.58-.03.1-.09.23-.16.39-.12.4-.32.7-.59.92-.36.26-1.22.71-2.59,1.34-.48.16-.79.18-.91.06-.13-.14.02-.37.46-.69,1.02-.84,2.24-2.02,3.68-3.56,1.21-1.3,2.56-2.88,4.07-4.72l-2.96-2.39-2.25,2.54c-.68.74-1.29,1.16-1.83,1.25-.47.11-.95-.03-1.41-.42l-3.18-2.74c-.24-.13-.54-.13-.9,0ZM57.99,64.2c-.07-.21-.21-.33-.42-.38-.38-.03-.58-.08-.61-.16-.04-.06.05-.2.28-.4.6-.33,1.01-.48,1.26-.44.16.02.3.17.43.46l.16.25c1.25-1.19,2.56-1.79,3.92-1.82,1.23-.02,2.26.41,3.09,1.3.83.89,1.22,1.97,1.18,3.24-.03,1.43-.61,2.78-1.72,4.04-1.08,1.22-2.29,1.93-3.62,2.13-1.21.19-2.29-.03-3.25-.68-.98-.66-1.57-1.57-1.79-2.72-.24-1.27.06-2.59.9-3.97l.13-.23c.15-.2.18-.4.08-.61ZM58.95,64.9c-.8.9-1.16,1.87-1.09,2.9.1.92.52,1.69,1.27,2.33.73.62,1.58.91,2.54.85,1.08-.08,2.04-.6,2.89-1.56.86-.98,1.28-2.01,1.23-3.11-.04-.97-.42-1.79-1.11-2.46-.71-.68-1.53-1.01-2.45-.99-1.01.04-1.92.5-2.7,1.39l-.24.28-.34.38Z"/>
  <path class="cls-1" d="M66.4,37.52c-.33.03-.78.13-1.36.29-.41.14-.67.14-.77,0-.13-.14.06-.42.56-.83.4-.29.85-.56,1.37-.82.43-.22.9-.42,1.41-.61.58-.42,1.72-1.3,3.44-2.64,1.65-1.29,2.78-2.19,3.4-2.69.1-.09.17-.18.22-.27.05-.06.1-.12.15-.18.08-.11.17-.21.27-.3.16-.14.47-.35.93-.64.72-.45,1.18-.62,1.38-.51.13.05.17.26.12.65,0,.15-.02.25-.03.3,0,.11.03.2.06.27l2.21,4.91c.73-.32,1.17-.38,1.33-.2.16.19.02.48-.42.87-.73.53-2.13,1.59-4.21,3.17-1.37,1.04-2.75,2.11-4.15,3.2.23.77.25,1.24.06,1.43-.21.2-.56.03-1.06-.49-.21-.2-.79-.84-1.72-1.93-.88-1.02-1.65-1.91-2.3-2.67l-.08-.11c-.12-.17-.39-.23-.8-.19ZM84.12,35.72c.07-.1.17-.24.29-.42.17-.28.35-.52.54-.71.3-.29.79-.62,1.48-1,.43-.27.82-.41,1.16-.42.29-.02.5.06.63.24.11.18.12.38.03.61-.11.27-.31.49-.59.68-1.06.7-2.28,1.53-3.66,2.49-1.8,1.28-3.44,2.51-4.94,3.66l1.45,2.28.42.67c.26-.19.6-.46,1.02-.81.36-.28.81-.65,1.37-1.1.09-.09.17-.17.22-.23.04-.03.09-.09.13-.16.08-.11.17-.21.27-.3.16-.16.42-.37.79-.61.67-.46,1.09-.63,1.28-.51.11.06.15.29.12.69v.35c.13.36.24.74.35,1.15.07.25.15.58.25.97l.2.66c.58-.35.95-.39,1.11-.11.15.27-.09.63-.72,1.08-.91.64-1.92,1.37-3.02,2.2-.66.48-1.59,1.17-2.8,2.07l-1.89,1.45-.1.11c-.1.09-.15.17-.16.22-.01.08.02.17.1.28l1.1,1.65c.24.34.47.51.67.53.16.02.42-.1.79-.36.62-.4,1.57-1.08,2.86-2.04,1.27-.95,2.35-1.77,3.25-2.47.19-.16.33-.32.42-.48.05-.09.11-.21.18-.38.09-.26.21-.47.34-.63.23-.26.63-.55,1.21-.88.39-.24.73-.37,1.01-.39.26,0,.44.08.55.23.08.15.08.34,0,.57-.1.24-.28.47-.54.71l-9.21,6.7c-.65.42-1.22.63-1.72.62-.5-.01-.91-.24-1.23-.68l-1.21-1.57c-.12-.13-.31-.16-.57-.11-.17.03-.53.12-1.1.27l-.05.03c-.38.18-.62.23-.71.13-.13-.12,0-.38.37-.79.4-.29.88-.59,1.44-.91.58-.3,1.09-.54,1.55-.71.81-.59,1.84-1.35,3.1-2.29,1.26-.94,2.19-1.65,2.79-2.13.23-.19.43-.36.58-.5.11-.1.24-.25.39-.42l.33-.31c-.22-.4-.44-.78-.65-1.14-.27-.46-.55-.95-.86-1.47l-7.12,5.53c-.11.13-.21.26-.28.38-.05.06-.1.15-.15.28-.1.24-.28.42-.51.55-.33.15-1.08.38-2.24.68-.59.08-.92.06-.96-.07-.05-.13.13-.3.53-.52.95-.55,1.8-1.08,2.56-1.58.8-.56,1.9-1.38,3.29-2.46l-2.02-2.73c-.98.71-1.94,1.44-2.9,2.18-.89.7-1.74,1.38-2.53,2.05-.18.18-.32.35-.43.52-.06.11-.13.25-.23.41-.15.34-.37.57-.66.69-.43.18-1.38.37-2.83.59-.49,0-.74-.07-.75-.22-.02-.12.21-.3.71-.52,1.61-.84,3.83-2.31,6.67-4.4,1.96-1.45,4.69-3.53,8.2-6.25l.65-.55c.27-.34.46-.6.59-.78ZM71.87,40.79l5.66-4.3c.26-.19.47-.36.63-.53.11-.1.24-.25.39-.42l.5-.47-1.18-1.67c-.56-.8-.97-1.4-1.22-1.77-.47-.64-.79-1.09-.98-1.35-.7.51-1.84,1.39-3.41,2.63-1.68,1.32-2.92,2.3-3.73,2.96l-.08.13c-.04.08-.05.13-.05.17,0,.07.04.15.1.24l3.36,4.38Z"/>
  <path class="cls-1" d="M94.63,22.64c-.33,0-.78.05-1.35.16-.41.1-.63.07-.66-.08-.02-.18.2-.43.66-.75.5-.22,1.03-.41,1.58-.57.51-.16,1.04-.28,1.6-.36.33-.04.55,0,.67.11.09.06.16.23.22.49l.11.54,1.05,2.39,8.75-3.96-1.6-3.66c-.15-.24-.44-.41-.86-.49-.38-.06-.92-.07-1.62-.03-.41.01-.6-.05-.57-.18.03-.18.3-.38.82-.61.45-.15.93-.29,1.47-.4.5-.12,1.03-.21,1.58-.26.27-.04.47.02.6.17.06.1.12.29.19.57l.11.39,3.33,7.66.13.44c.26.77.43,1.33.51,1.66.11.53.12,1.01.04,1.44-.14.35-.3.52-.48.52-.24-.02-.5-.22-.79-.61l-3.4,1.55c.59,1.31,1.08,2.44,1.46,3.41.27.66.54,1.34.8,2.03l1.16-.54c.85-.37,1.52-.68,2.01-.91.82-.38,1.66-.78,2.51-1.19.25-.17.47-.34.65-.5.1-.09.22-.21.33-.36.22-.26.47-.46.75-.61.43-.23,1.23-.5,2.4-.81.42-.12.77-.14,1.06-.06.28.06.45.2.51.39.07.2.02.4-.13.61-.17.22-.44.41-.8.57l-2.02.76c-1.66.63-3.01,1.16-4.04,1.59-1.81.75-3.46,1.51-4.95,2.26-.72.34-1.58.76-2.6,1.26-.62.29-1.58.78-2.89,1.45l-.78.4c-.19.13-.36.26-.5.41-.08.1-.18.22-.3.38-.24.31-.54.5-.93.56-.54.09-1.66.09-3.37,0-.46-.07-.74-.16-.84-.28-.11-.16.12-.3.71-.43,1.33-.25,2.83-.72,4.5-1.38,1.56-.62,3.61-1.57,6.14-2.85l-2.48-5.38-3.84,1.75c.04.56.04.99.01,1.29-.04.29-.11.49-.22.62-.21.13-.4.1-.57-.09-.13-.17-.35-.5-.65-.98l-4.02-9.15c-.22-.23-.6-.34-1.14-.34ZM101.07,30.42l8.72-4.01-2.23-5.08-8.74,3.99,2.24,5.11Z"/>
  <path class="cls-1" d="M136.64,9.63c.18-.07.36-.2.53-.37.23-.18.45-.31.64-.39.35-.17.89-.3,1.62-.41.61-.12,1.11-.14,1.49-.07.32.07.52.21.61.43.08.2.02.38-.18.56-.19.21-.47.35-.84.43-.95.15-2.96.57-6.02,1.26-3.09.7-5.47,1.27-7.14,1.72-.2.08-.37.16-.53.25-.1.06-.22.13-.36.22-.34.24-.67.36-.99.37-.48,0-1.39-.17-2.73-.52-.5-.21-.74-.37-.71-.49.02-.1.31-.16.86-.17,1.5-.09,3.24-.33,5.23-.73,1.39-.26,3.69-.78,6.88-1.55l.44-.12c.51-.12.91-.26,1.19-.41ZM131.98,13.45c.13-.2.14-.41.02-.64-.34-.24-.43-.41-.28-.52.13-.12.42-.11.87.03.42.17.67.35.74.54.04.11,0,.26-.11.46l-.07.25c1.7-.15,3.11.12,4.2.8.97.62,1.55,1.45,1.74,2.51.17,1.06-.06,2.07-.69,3.03-.7,1.03-1.72,1.78-3.07,2.26l.61,3.49,3.31-.78,2.84-.68c.17-.09.33-.17.47-.24.08-.06.19-.14.33-.24.27-.19.54-.32.82-.39.45-.13,1.19-.24,2.22-.33.54-.07.98-.03,1.32.11.31.11.5.29.57.52.05.24-.02.46-.19.64-.21.2-.5.31-.88.35-1.79.19-3.55.42-5.29.71-2.29.38-4.45.83-6.49,1.35-1.49.36-2.7.65-3.63.9-1.23.32-2.36.65-3.42.97-.18.07-.33.16-.47.27-.06.07-.15.16-.27.25-.24.26-.54.38-.91.36-.54,0-1.7-.24-3.46-.69-.5-.19-.74-.35-.73-.49.03-.14.36-.21,1-.2,1.26-.04,2.85-.23,4.76-.58,1.84-.33,3.99-.8,6.45-1.4l-.78-3.48c-1.52.09-2.82-.19-3.89-.84-.97-.6-1.59-1.4-1.87-2.43-.28-1-.14-1.97.4-2.91.6-1.04,1.62-1.83,3.05-2.37l.19-.07c.27-.17.47-.34.59-.52ZM128.9,8.32c-.49-.13-1.13-.39-1.92-.77-.32-.17-.48-.31-.46-.43.03-.14.32-.21.88-.21.73,0,1.62-.05,2.65-.18.89-.1,2.09-.28,3.62-.55.34-.05.63-.02.88.08.23.09.35.23.37.42.02.19-.11.38-.38.57-.29.19-.72.36-1.29.49l-3.44.72c-.24.03-.55-.01-.92-.13ZM129.95,16.2c-.54.76-.72,1.6-.54,2.5s.67,1.61,1.46,2.1c.9.55,2,.7,3.29.44,1.22-.24,2.13-.79,2.73-1.64.52-.76.69-1.59.51-2.5-.18-.91-.66-1.61-1.43-2.11-.88-.54-1.93-.68-3.15-.44-1.3.26-2.26.81-2.88,1.64Z"/>
  <path class="cls-1" d="M159.33,7.39c-.28-.29-.68-.59-1.2-.9-.34-.18-.47-.33-.39-.46.06-.15.39-.2,1-.15.41.08.93.26,1.55.54.58.26,1.04.5,1.37.74.2.17.3.35.3.52,0,.11-.07.32-.21.62l-.12.31c-.29.54-.62,1.12-.97,1.74-.25.37-.54.81-.85,1.31.17.25.37.52.61.81.15.15.35.39.61.72l.3.35c.15.15.3.3.44.43.09.12.24.24.45.38.41.31.7.62.86.92.29.44.51,1.12.64,2.05.04.57-.11.91-.47,1.04-.36.13-.67-.05-.92-.53l-.38-.77c-.43-.97-.79-1.73-1.09-2.29-.51-.97-1.02-1.82-1.53-2.55-1.01,1.21-2.07,2.28-3.18,3.22-1.13,1-2.34,1.89-3.62,2.67-.54.25-.84.33-.91.24-.05-.1.15-.33.61-.7,1.73-1.4,3.13-2.73,4.22-3.99,1.51-1.72,2.61-3.52,3.31-5.37l.06-.25c-.01-.17-.17-.38-.47-.63ZM159.47,21.05c-.35-.25-.91-.44-1.66-.57-.47-.07-.72-.16-.76-.27-.05-.12.05-.23.32-.33.27-.18.67-.27,1.22-.26.3-.01.76.02,1.39.08l.76.07c.53.01.86.12.99.33.09.13.11.4.07.79v.42s-.08,3.31-.08,3.31c0,.51.05.84.18,1,.17.21.55.32,1.16.34l3.65.08c1.55.01,2.68-.04,3.4-.16.4-.09.77-.23,1.11-.43.25-.13.5-.21.77-.24.42-.07,1.1-.05,2.04.04.36.03.64.13.84.3.17.15.24.34.22.57-.02.21-.14.37-.35.5-.21.17-.47.24-.77.24l-11.47-.24c-.74-.02-1.33-.16-1.78-.43-.56-.31-.83-.82-.82-1.52v-3.06c0-.21-.16-.4-.43-.58ZM166.17,5.21c-.28-.21-.71-.47-1.29-.76-.45-.16-.68-.32-.7-.47-.03-.17.31-.28,1.03-.32.19.02.44.08.76.16.17.04.45.11.84.22l1.04.3c.43.2.69.4.78.61.05.13.05.34-.01.62l-.07.48-.27,11.58c-.06,1.28-.18,2.28-.34,3-.13.73-.33,1.28-.6,1.63-.27.2-.47.14-.59-.18-.14-.36-.21-.98-.19-1.85l.16-7.9-1.67.08c-.17.02-.32.05-.46.1-.08.02-.18.05-.31.11-.17.09-.34.13-.51.1-.26-.04-.72-.2-1.38-.48-.43-.27-.62-.47-.58-.58.04-.13.33-.16.88-.1l4.05-.03.11-5.32c0-.3-.22-.64-.69-1.01ZM171.14,3.56c-.37-.33-.88-.65-1.51-.97-.49-.26-.72-.45-.7-.58.04-.15.37-.22,1-.21.51.07,1.03.19,1.58.37.3.1.7.25,1.21.45l.36.15c.32.14.51.29.59.44.04.1.03.27-.01.54l-.07.42-.34,15.04c-.07,1.26-.23,2.28-.49,3.05-.22.69-.48,1.09-.76,1.17-.17,0-.3-.12-.39-.35-.11-.3-.15-.78-.14-1.42l.35-17.22c0-.25-.23-.54-.69-.89Z"/>
  <path class="cls-1" d="M185.1,9.11c-.35-.32-.75-.6-1.19-.84-.36-.18-.54-.35-.52-.5.02-.17.36-.25,1.02-.25.62.15,1.25.34,1.87.57.54.19.96.38,1.26.57.47.15,1.03.3,1.7.44.42.1,1.08.24,1.97.42l.71.17c.22,0,.4-.03.54-.07.1-.02.23-.05.38-.11.23-.08.46-.12.67-.13.33-.02.83.06,1.49.22.5.12.86.29,1.1.5.22.21.32.42.29.62-.03.19-.16.33-.4.43-.24.1-.52.12-.86.05l-4.76-1.04-2.41-.53-.27.05c-.07-.02-.12-.01-.15.02-.03.03-.06.13-.1.3l-1.24,5.12,2.94.63c.19,0,.37,0,.53-.02.1-.01.23-.05.4-.11.31-.08.6-.12.87-.11.47,0,1.09.1,1.88.31.69.21.97.52.85.94-.14.43-.57.58-1.27.45l-6.38-1.35-1.28,5.28c-.11.36-.11.62-.02.78.12.16.35.27.71.32,1.56.22,3.06.35,4.51.37,1.64.05,3.34-.02,5.09-.19.63-.1.97-.07,1.03.08.04.15-.24.32-.86.52-2.04.4-4.22.65-6.53.74-1.71.07-3.25.07-4.63-.02-.44-.03-.78-.35-1.02-.95-.21-.5-.27-.95-.19-1.36l2.79-11.62c.02-.15-.16-.39-.53-.71ZM202.16,8.94c-.26-.3-.7-.71-1.33-1.25l-.05-.04-.12-.12c-.36-.26-.57-.45-.62-.56-.09-.2.19-.26.84-.2.41.08,1.01.32,1.8.73.63.35,1.13.65,1.5.92.45.29.71.53.78.74.05.13,0,.34-.15.63-.07.14-.13.25-.17.34-.05.14-.1.29-.13.43l-4.15,16.96c-.54,2-.99,3.45-1.34,4.33-.34.83-.72,1.49-1.15,1.99-.33.25-.56.25-.67.01-.11-.28-.07-.77.12-1.46l3.27-13.48-2.75-.43c-.19-.03-.35-.04-.49-.03-.08,0-.17.02-.27.05-.19.05-.37.03-.54-.07-.24-.12-.69-.42-1.35-.91-.38-.36-.54-.6-.47-.7.05-.12.34-.08.87.12,1.04.27,1.9.48,2.56.62.48.1,1.31.24,2.49.43l.19.05,1.91-7.88c.07-.29-.12-.7-.58-1.22Z"/>
  <path class="cls-1" d="M229.86,42.09c-.15.8-.09,1.44.18,1.93.22.46.69.89,1.4,1.27l-.35.65-6.47-3.51.35-.65c1.1.59,1.86.87,2.29.82.5-.05.81-.48.93-1.3l.7-5.22-7.7-4.17-3.39,3c-.82.76-1.16,1.38-1.01,1.87.14.46.78,1,1.92,1.62l-.35.65-5.55-3.01.35-.65c.71.39,1.32.52,1.81.4.53-.14,1.29-.66,2.29-1.56l13.43-12.08,1.73.2-2.57,19.74ZM221.85,31.31l7.15,3.87,1.6-11.63-8.74,7.76Z"/>
  <path class="cls-1" d="M231.98,45.9c.58.43,1.06.62,1.44.58.37-.03.75-.29,1.12-.79l5.07-6.82c.37-.5.52-.91.45-1.22-.07-.31-.4-.69-1-1.13l.2-.41,3.61,1.27-1.54,2.07.2-.03c1.18-.06,2.08-.05,2.72.04,1.09.15,2.04.53,2.86,1.14.94.7,1.45,1.53,1.54,2.49.09.96-.26,1.96-1.03,3.01l-4.46,6c-.37.5-.51.94-.41,1.32.07.38.38.78.95,1.2l-.44.59-4.5-3.34.44-.59c.56.42,1.04.61,1.44.58.39-.02.77-.28,1.14-.77l4.51-6.07c.54-.73.8-1.37.77-1.93-.01-.65-.38-1.24-1.11-1.78-.73-.54-1.54-.89-2.42-1.06-.72-.14-1.62-.16-2.7-.07l-4.88,6.57c-.37.5-.51.94-.41,1.32.08.39.41.8.97,1.21l-.44.59-4.5-3.34.44-.59Z"/>
  <path class="cls-1" d="M244.61,56.57l.49-.55c.52.47.95.72,1.29.77.35.06.71-.12,1.09-.54l5.93-6.59c.29-.32.41-.64.37-.96-.07-.37-.39-.81-.95-1.31l.22-.37,3.69,1.53-7.97,8.86c-.38.42-.53.79-.46,1.11.07.32.39.73.97,1.25l-.49.55-4.17-3.75ZM261.01,42.57c-.38-.34-.77-.49-1.17-.44-.36.03-.68.2-.96.51-.25.28-.38.6-.37.96,0,.4.18.77.56,1.11.35.32.73.46,1.15.42.37-.02.69-.17.94-.45.28-.31.41-.65.39-1.02,0-.41-.19-.78-.54-1.09Z"/>
  <path class="cls-1" d="M250.97,60.82c.47.54.92.85,1.34.94.41.07.83-.08,1.26-.45l6.42-5.57c.48-.42.7-.82.65-1.2-.03-.32-.28-.76-.75-1.3l.31-.42,3.36,2.11-1.97,1.71c1.13.12,2.03.28,2.72.49,1.1.37,1.99.95,2.67,1.73.47.54.75,1.18.83,1.91.08.81-.12,1.56-.6,2.25,1.08.09,2.03.29,2.85.6,1.03.38,1.86.93,2.49,1.66.64.74.92,1.58.83,2.51-.07.86-.43,1.58-1.07,2.13l-6.42,5.57c-.41.36-.62.76-.61,1.2.04.44.28.92.72,1.44l-.53.46-3.75-4.32.53-.46c.43.5.85.78,1.25.83.41.07.83-.08,1.26-.45l6.07-5.27c.5-.43.77-.97.82-1.61.06-.68-.17-1.32-.71-1.94-.48-.56-1.13-.98-1.94-1.28-.64-.25-1.45-.42-2.43-.51l-6.29,5.46c-.41.36-.62.75-.62,1.18.01.42.23.87.67,1.37l-.53.46-3.68-4.23.54-.46c.45.51.87.8,1.26.85.4.05.81-.1,1.24-.47l6.12-5.31c.48-.42.75-.95.79-1.59.03-.65-.18-1.24-.64-1.77-.57-.66-1.25-1.12-2.03-1.39-.61-.22-1.45-.35-2.52-.4l-6.16,5.35c-.43.37-.64.76-.64,1.16.01.42.25.89.72,1.44l-.54.46-3.8-4.39.54-.46Z"/>
  <path class="cls-1" d="M272.41,90.26c-.45-.18-.81-.49-1.09-.92-.32-.51-.37-.98-.16-1.41.17-.33.5-.65,1-.97-.9-.26-1.67-.59-2.3-.99-.77-.52-1.45-1.23-2.02-2.14-.73-1.15-1-2.2-.83-3.16.16-.88.66-1.59,1.5-2.12,1.12-.71,2.47-.67,4.06.11,1.64.79,3.45,2.33,5.43,4.6l1.75-1.11c.77-.48,1.24-1.04,1.42-1.67.2-.67.08-1.35-.36-2.05-.58-.92-1.16-1.53-1.72-1.82-.53-.27-1.19-.31-1.99-.12-.37.08-.68.11-.92.08-.34-.05-.61-.22-.79-.51-.2-.32-.26-.62-.17-.9.07-.27.28-.51.61-.72.64-.4,1.48-.29,2.53.34,1.09.7,2.13,1.83,3.12,3.39.68,1.07.93,2.09.77,3.07-.16,1.02-.77,1.86-1.82,2.53l-6.79,4.3c-.4.25-.69.48-.87.69-.21.22-.26.43-.14.62.11.18.25.32.4.42.23.15.52.27.86.36l-.13.38c-.59-.05-1.04-.14-1.35-.28ZM273.36,80.24c-1.47-.73-2.72-.75-3.78-.09-.57.36-.92.85-1.02,1.45-.1.65.08,1.35.56,2.1.53.84,1.1,1.47,1.69,1.88.53.38,1.23.69,2.09.92l4.43-2.8c-1.28-1.63-2.6-2.78-3.97-3.46Z"/>
  <path class="cls-1" d="M274.41,92.45c.32.62.67,1,1.06,1.14.39.14.86.07,1.42-.22l13.8-7.09c.42-.22.66-.5.71-.84.06-.37-.07-.88-.4-1.52l.3-.28,2.92,2.77-16.55,8.51c-.56.28-.89.63-1,1.02-.1.42.01.95.35,1.6l-.65.34-2.62-5.09.65-.34Z"/>
  <path class="cls-1" d="M281.77,107.87c.31.99.7,1.64,1.17,1.95.44.28,1.02.31,1.72.09l14.76-4.58c.67-.21,1.07-.54,1.21-1,.11-.47.01-1.21-.3-2.22l.7-.22,3.21,10.33c.49,1.59.46,3.03-.08,4.33-.58,1.4-1.63,2.34-3.16,2.82-1.73.54-3.28.4-4.64-.4-1.29-.77-2.2-2.01-2.73-3.72l-1.76-5.68-6.66,2.07c-.7.22-1.16.57-1.37,1.05-.21.54-.14,1.36.2,2.46l-.7.22-2.26-7.28.7-.22ZM294.2,114.57c.43,1.37,1.3,2.3,2.62,2.8,1.15.45,2.35.49,3.59.1,1.19-.37,2.07-1.05,2.63-2.03.61-1.08.71-2.31.28-3.68l-1.02-3.3c-.21-.69-.48-1.14-.81-1.38-.37-.22-.87-.23-1.52-.03l-7.38,2.29,1.62,5.22Z"/>
  <path class="cls-1" d="M286.95,125.46c.11.61.31,1.06.59,1.33.31.31.73.41,1.27.31l8.75-1.61c.52-.1.84-.27.97-.52.14-.28.15-.77.02-1.47l.41-.25,2.03,3.37-3.51.65.43.32c1.24.98,2.12,1.75,2.64,2.31.88.93,1.39,1.79,1.54,2.57.07.39,0,.76-.23,1.11-.22.35-.51.56-.87.62-.32.06-.64-.04-.97-.28-.33-.25-.54-.56-.61-.95-.04-.24-.03-.47.04-.7.04-.12.1-.29.2-.5.15-.24.22-.42.21-.56.03-.24-.05-.48-.25-.73-.31-.42-.7-.86-1.16-1.31-.39-.37-1.07-.94-2.01-1.7l-7.32,1.35c-.56.1-.92.3-1.1.61-.17.3-.19.82-.06,1.57l-.72.13-1.02-5.52.73-.13Z"/>
  <path class="cls-1" d="M301.17,149.13c-1.26,1.17-2.91,1.83-4.94,1.97-2,.14-3.7-.28-5.12-1.25-1.57-1.1-2.43-2.71-2.59-4.84-.15-2.15.47-3.87,1.88-5.16,1.26-1.15,2.89-1.8,4.89-1.94,2.03-.14,3.76.26,5.17,1.22,1.57,1.08,2.44,2.69,2.59,4.84.15,2.13-.47,3.85-1.88,5.16ZM300.08,140.57c-1.26-.65-2.81-.91-4.66-.78-1.81.13-3.28.6-4.41,1.42-1.3.94-1.89,2.19-1.78,3.73.11,1.53.87,2.66,2.29,3.41,1.24.67,2.76.94,4.57.81,1.85-.13,3.34-.62,4.5-1.46,1.28-.94,1.86-2.18,1.75-3.7-.11-1.54-.86-2.69-2.26-3.44Z"/>
  <path class="cls-1" d="M302.88,154.41c.06,1.02.48,1.83,1.25,2.42.81.61,2.04.98,3.68,1.11l-.02.6-4.78-.15-.12,3.91-.85-.03.12-3.91-10.45-.33c-.53-.02-.94.13-1.23.44s-.45.78-.47,1.4c-.01.41.12.86.41,1.34.23.42.57.85,1.01,1.28l-.24.33c-.83-.5-1.46-1.08-1.87-1.73-.38-.62-.55-1.28-.53-2,0-.89.29-1.58.83-2.07.6-.51,1.45-.75,2.54-.71l10.05.32.07-2.24.59.02Z"/>
  <path class="cls-1" d="M290.27,178.06c-.97-.85-1.67-1.75-2.1-2.68-.53-1.16-.69-2.48-.49-3.98.27-2.02,1.16-3.56,2.65-4.62,1.51-1.04,3.35-1.41,5.52-1.11,2.04.27,3.65,1.09,4.84,2.45,1.22,1.42,1.7,3.11,1.43,5.08-.25,1.89-1.04,3.31-2.34,4.26-1.35.96-3.08,1.3-5.19,1.01l1.47-10.89c-2.32-.31-4.12-.02-5.4.87-1.11.78-1.78,1.94-1.98,3.48-.15,1.12-.05,2.15.3,3.1.33.92.91,1.81,1.73,2.66l-.42.37ZM299.78,175.97c.92-.62,1.47-1.58,1.65-2.89.17-1.23-.18-2.37-1.03-3.4-.89-1.05-2.06-1.72-3.53-1.99l-1.21,9.01c1.79.15,3.17-.1,4.13-.73Z"/>
  <path class="cls-1" d="M284.84,190.42c-.47-1.18-.54-2.41-.21-3.68.44-1.7,1.48-2.98,3.11-3.84,1.61-.87,3.32-1.06,5.13-.59,2.19.57,3.82,1.73,4.89,3.47,1.01,1.67,1.27,3.42.79,5.27-.26.99-.71,1.85-1.35,2.6-.59.7-1.19,1.11-1.79,1.23-.58.12-1.04.04-1.37-.24-.35-.29-.47-.67-.35-1.14.09-.37.29-.62.58-.76.16-.08.44-.14.84-.19l.49-.08c.67-.16,1.16-.38,1.49-.67.41-.36.71-.92.9-1.67.3-1.17.03-2.29-.82-3.37-.93-1.14-2.35-1.96-4.25-2.45-1.81-.47-3.36-.44-4.65.1-1.36.56-2.23,1.61-2.63,3.15-.23.88-.25,1.69-.05,2.44.21.85.69,1.83,1.46,2.93l-.33.35c-.9-1.04-1.53-1.99-1.89-2.86Z"/>
  <path class="cls-1" d="M295.54,199.18c-.26.99-.12,1.89.43,2.69.58.83,1.63,1.57,3.14,2.21l-.2.56-4.49-1.65-1.34,3.67-.8-.29,1.34-3.67-9.81-3.6c-.5-.18-.93-.17-1.31.03-.38.2-.67.6-.89,1.18-.14.39-.15.86-.03,1.41.09.47.27.98.55,1.53l-.33.24c-.63-.74-1.05-1.48-1.23-2.23-.16-.7-.12-1.39.12-2.07.29-.84.77-1.41,1.44-1.71.73-.29,1.61-.25,2.64.12l9.44,3.46.77-2.1.56.2Z"/>
  <path class="cls-1" d="M279.13,204.43l.67.3c-.28.64-.4,1.12-.34,1.46.05.35.33.65.85.88l8.09,3.62c.4.18.74.2,1.03.06.33-.18.65-.62.96-1.31l.42.1-.33,3.98-10.88-4.87c-.52-.23-.92-.27-1.2-.1-.28.16-.58.6-.9,1.31l-.67-.3,2.29-5.12ZM297.49,215.75c.21-.46.23-.88.06-1.24-.14-.33-.4-.58-.78-.75-.35-.16-.69-.17-1.03-.06-.38.12-.68.41-.89.87-.19.43-.21.84-.05,1.22.13.35.37.6.72.76.38.17.74.19,1.09.06.39-.14.68-.42.88-.85Z"/>
  <path class="cls-1" d="M280.41,227.86c-1.7.28-3.43-.09-5.21-1.09-1.74-.99-2.93-2.28-3.57-3.88-.7-1.79-.53-3.61.53-5.46,1.06-1.87,2.53-2.96,4.42-3.26,1.69-.26,3.4.1,5.14,1.09,1.77,1,2.98,2.3,3.63,3.88.71,1.77.54,3.59-.52,5.46-1.05,1.86-2.52,2.94-4.42,3.26ZM284.24,220.14c-.69-1.24-1.84-2.31-3.45-3.22-1.58-.89-3.06-1.31-4.46-1.26-1.6.07-2.78.78-3.55,2.12-.75,1.33-.75,2.7.02,4.11.66,1.24,1.78,2.31,3.36,3.21,1.61.91,3.13,1.34,4.55,1.28,1.58-.08,2.75-.78,3.51-2.11.76-1.35.77-2.72.02-4.12Z"/>
  <path class="cls-1" d="M268.68,225.85c-.43.58-.62,1.06-.58,1.44.03.37.29.75.79,1.12l6.81,5.08c.5.37.9.52,1.22.45.31-.07.69-.4,1.13-.99l.41.2-1.28,3.61-2.07-1.54.03.2c.06,1.18.04,2.08-.05,2.72-.15,1.09-.53,2.04-1.14,2.86-.7.94-1.53,1.45-2.49,1.53-.96.08-1.96-.26-3-1.04l-5.99-4.47c-.5-.37-.94-.51-1.31-.42-.38.07-.78.38-1.2.94l-.59-.44,3.36-4.49.59.44c-.42.56-.61,1.04-.58,1.44.02.39.27.77.77,1.14l6.06,4.52c.73.54,1.37.8,1.93.77.65-.01,1.24-.38,1.78-1.11s.9-1.53,1.06-2.42c.14-.72.16-1.62.07-2.7l-6.56-4.9c-.5-.37-.94-.51-1.32-.42-.39.08-.8.41-1.22.97l-.59-.44,3.35-4.49.59.44Z"/>
  <path class="cls-1" d="M241.83,255.96c.29-1.88,1.21-3.5,2.76-4.85,1.99-1.74,4.25-2.44,6.77-2.11,2.69.36,5.16,1.82,7.41,4.4,2,2.29,3.09,4.71,3.26,7.27.17,2.69-.73,4.88-2.67,6.58-.6.52-1.17.94-1.73,1.25-.35.2-.89.45-1.61.73l-.29.1-1.11,1.87-5-2.67.21-.49c1.58.4,3,.57,4.28.51,1.87-.1,3.43-.7,4.7-1.81,1.54-1.34,2.15-3.14,1.83-5.4-.32-2.23-1.44-4.45-3.36-6.65-1.81-2.08-3.86-3.31-6.13-3.71-2.3-.42-4.32.13-6.07,1.66-1.12.98-1.86,2.13-2.2,3.46-.35,1.35-.3,2.97.13,4.85l-.55.14c-.63-1.88-.84-3.59-.61-5.14Z"/>
  <path class="cls-1" d="M227.26,267.94c.01-1.29.23-2.41.66-3.34.53-1.16,1.43-2.15,2.69-2.98,1.71-1.12,3.45-1.45,5.22-1.01,1.77.47,3.26,1.62,4.45,3.45,1.13,1.72,1.56,3.48,1.31,5.27-.28,1.85-1.25,3.32-2.91,4.4-1.6,1.04-3.18,1.38-4.75,1.01-1.61-.39-3-1.48-4.17-3.27l9.2-6.01c-1.28-1.96-2.68-3.13-4.19-3.52-1.32-.33-2.63-.07-3.93.77-.95.62-1.67,1.37-2.15,2.25-.48.85-.77,1.87-.88,3.05l-.56-.08ZM235.06,273.77c1.07.29,2.16.08,3.27-.65,1.04-.68,1.67-1.68,1.9-3,.22-1.36-.05-2.69-.8-3.97l-7.61,4.97c1.06,1.45,2.14,2.33,3.25,2.65Z"/>
  <path class="cls-1" d="M224,267.29c-.64.32-1.04.65-1.17,1.02-.15.34-.08.8.19,1.36l3.73,7.63c.27.56.57.88.88.96.31.08.8-.04,1.46-.37l.28.37-2.78,2.62-1.13-2.31-.06.19c-.48,1.08-.91,1.87-1.29,2.4-.63.9-1.41,1.57-2.32,2.02-1.05.51-2.02.59-2.92.23-.89-.36-1.62-1.13-2.2-2.3l-3.29-6.72c-.27-.56-.6-.88-.98-.97-.37-.11-.87-.02-1.5.29l-.32-.66,5.04-2.46.32.66c-.63.31-1.02.65-1.17,1.02-.16.35-.11.81.17,1.37l3.32,6.79c.4.81.85,1.34,1.37,1.57.58.28,1.28.23,2.09-.17.81-.4,1.5-.95,2.05-1.67.45-.58.89-1.37,1.3-2.37l-3.6-7.35c-.27-.56-.6-.88-.98-.97-.39-.1-.9,0-1.52.3l-.32-.66,5.04-2.46.32.66Z"/>
  <path class="cls-1" d="M213.9,286.09c-.92.44-1.51,1.13-1.77,2.07-.26.98-.14,2.26.36,3.82l-.56.21-1.66-4.49-3.66,1.36-.29-.8,3.66-1.36-3.63-9.8c-.18-.5-.48-.82-.88-.98-.4-.15-.89-.12-1.48.09-.39.14-.75.44-1.09.89-.3.37-.57.85-.8,1.42l-.4-.09c.15-.96.45-1.76.9-2.39.43-.58.98-1,1.65-1.25.83-.33,1.57-.33,2.23-.01.7.36,1.24,1.06,1.62,2.09l3.49,9.43,2.1-.78.21.56Z"/>
  <path class="cls-1" d="M187.24,283.35c.43-1.22.99-2.21,1.69-2.95.87-.93,2.04-1.58,3.5-1.96,1.97-.51,3.73-.28,5.27.71,1.53,1.01,2.57,2.57,3.12,4.69.52,1.99.37,3.8-.44,5.41-.86,1.67-2.24,2.75-4.16,3.24-1.85.48-3.46.29-4.83-.56-1.4-.89-2.37-2.36-2.9-4.43l10.64-2.76c-.59-2.27-1.54-3.82-2.85-4.67-1.15-.74-2.47-.91-3.97-.52-1.1.29-2.01.77-2.76,1.45-.73.66-1.33,1.52-1.81,2.6l-.5-.25ZM192.77,291.36c.92.62,2.02.76,3.3.43,1.21-.31,2.12-1.06,2.75-2.24.64-1.22.81-2.56.51-4.02l-8.8,2.28c.54,1.71,1.29,2.89,2.24,3.54Z"/>
  <path class="cls-1" d="M184.38,281.59c-.62.09-1.07.27-1.35.54-.32.29-.44.71-.36,1.25l1.27,8.8c.08.52.24.85.49.99.27.15.76.18,1.47.07l.23.42-3.44,1.9-.51-3.53-.34.42c-1.03,1.2-1.83,2.05-2.41,2.55-.96.85-1.84,1.33-2.62,1.44-.39.06-.76-.03-1.1-.27-.34-.24-.54-.53-.59-.89-.05-.32.06-.64.32-.96.26-.32.58-.51.98-.57.24-.03.48-.01.7.07.12.04.28.11.49.22.23.16.42.24.55.24.24.04.48-.03.74-.22.43-.29.89-.66,1.36-1.11.38-.38.98-1.03,1.78-1.95l-1.07-7.37c-.08-.56-.27-.93-.56-1.12-.29-.19-.81-.23-1.56-.12l-.11-.73,5.55-.8.11.73Z"/>
  <path class="cls-1" d="M142.51,303.99c.39.36.99.8,1.82,1.32.51.25.74.46.68.63-.03.17-.37.22-1.01.17-.5-.1-1.07-.27-1.72-.52-.37-.13-.84-.32-1.43-.58-.45-.23-.73-.45-.82-.67-.06-.14-.06-.36,0-.65l.06-.42.98-11.4h-.45s-.68-.04-.68-.04c-.23.04-.43.08-.61.15-.1.03-.22.08-.38.17-.26.13-.51.2-.76.22-.38.04-.97,0-1.75-.12-.38-.05-.65-.16-.83-.33-.18-.15-.26-.33-.24-.53,0-.19.08-.35.24-.49.16-.14.37-.21.61-.2l4.92.31.56-6.19c.13-1.35.3-2.45.48-3.31.13-.65.3-1.27.5-1.86.33-.59.63-.91.88-.95.29-.01.4.44.34,1.37l-1.98,22.94c0,.28.18.61.57.99ZM153.32,301.59c.17.26.5.63.98,1.11.51.42.63.69.36.8-.27.09-.76-.02-1.45-.32-1.37-.76-2.19-1.34-2.44-1.72-.2-.26-.16-.62.12-1.07.2-.32.45-.73.76-1.21.2-.3.51-.79.95-1.45l.62-.94c-.24-.53-.62-1.11-1.16-1.72-.36-.43-.92-1.02-1.67-1.76l-.74-.6c-.36-.26-.61-.5-.76-.72-.24-.32-.5-.84-.78-1.55-.17-.47-.26-.89-.26-1.27,0-.32.05-.57.18-.75.13-.16.29-.23.5-.21.19.04.36.16.51.38l1.9,3.01,2.85,4.48c1.14-1.4,2.47-2.74,3.99-4.03,1.41-1.21,2.83-2.23,4.24-3.07.54-.29.85-.39.94-.29.1.1-.08.32-.54.66-1.7,1.29-3.34,2.86-4.92,4.69-2,2.29-3.47,4.54-4.42,6.75l-.05.19c.04.21.13.42.29.62Z"/>
  <path class="cls-1" d="M109.36,296.38c.31.39.82.89,1.52,1.49.44.31.61.54.53.67-.09.15-.45.15-1.09-.01-.68-.29-1.28-.62-1.8-.98-.31-.22-.68-.51-1.12-.88l-.19-.15c-.27-.22-.4-.42-.41-.6,0-.12.06-.29.19-.5l.17-.36,5.79-18.16c.57-1.82,1.1-3.17,1.59-4.04.42-.72.79-1.08,1.11-1.08.17.01.27.16.28.44.02.32-.07.79-.26,1.4l-6.76,21.65c-.07.28.08.65.45,1.12ZM116.84,295.04c-.14.01-.28.01-.41,0-.19-.04-.48-.12-.87-.24-.82-.28-1.24-.52-1.26-.72,0-.12.19-.28.59-.47l.48-.3c1.06-.87,1.89-1.54,2.49-1.98.88-.66,1.83-1.32,2.85-1.99-.51-1.01-.99-1.8-1.42-2.37-.25-.34-.56-.67-.93-1-.31-.27-.55-.52-.72-.73-.25-.35-.52-.87-.82-1.56-.24-.57-.34-1.05-.32-1.44-.01-.34.08-.57.27-.69.15-.09.34-.07.58.06.23.15.42.38.59.69.39.79.78,1.58,1.19,2.36.61,1.2,1.39,2.67,2.33,4.41,1.24-.68,2.86-1.36,4.85-2.05,2.28-.77,4.31-1.29,6.09-1.54.61-.05.94-.01.98.1.04.11-.23.22-.82.34-2.56.66-5.01,1.57-7.35,2.72-3.17,1.52-5.9,3.4-8.2,5.63.76.24,1.92.55,3.5.94,1.51.37,2.44.58,2.8.64.19.04.35.05.49.03.1,0,.21-.02.34-.04.32-.06.59-.02.83.11.35.21.96.73,1.82,1.58.29.35.38.58.29.69-.09.11-.38.03-.87-.24-.66-.35-1.7-.75-3.1-1.2-.81-.27-2.06-.65-3.77-1.15l-1.77-.52-.31-.07-.42.02Z"/>
  <path class="cls-1" d="M81,282.63c.26.5.64,1.06,1.15,1.7.34.39.45.64.33.74-.12.13-.47.04-1.05-.27-.52-.32-1-.69-1.45-1.12-.29-.25-.65-.63-1.08-1.14-.25-.32-.37-.57-.35-.75,0-.13.11-.3.29-.52l.29-.39,3.39-5.95-.41-.2-.6-.31c-.21-.05-.41-.09-.59-.11-.12-.02-.26-.03-.42,0-.3.03-.57,0-.81-.07-.39-.11-.93-.39-1.62-.82-.3-.19-.5-.4-.59-.63-.09-.23-.09-.42,0-.58.09-.16.24-.27.45-.33s.42-.03.64.07l4.36,2.35.03-.05c.34-.56.67-1.05.99-1.46.38-.5.72-.9,1.03-1.17.57-.39.98-.53,1.21-.42.27.13.19.58-.24,1.33l-5.23,9.18c-.07.16.02.47.25.93ZM96.02,287.44c.16.29.45.64.87,1.05.2.26.27.44.22.52-.06.14-.4.11-1.02-.09-.43-.24-.89-.54-1.39-.89-.49-.36-.88-.69-1.17-.99-1.04-.57-1.9-1.04-2.56-1.4-.64-.32-1.66-.85-3.05-1.57-.11-.06-.22-.11-.31-.14-.04,0-.11-.02-.2-.05-.12-.02-.23-.07-.35-.13-.21-.1-.5-.25-.88-.47-.62-.35-.93-.63-.91-.81,0-.13.18-.24.53-.35.15-.07.25-.12.31-.15.11-.05.19-.1.23-.17.4-.44.94-1.05,1.6-1.83.36-.45.89-1.08,1.57-1.91l.94-1.19c-.58-.57-.86-.98-.81-1.21.08-.26.51-.18,1.29.25.56.34,1.65.95,3.26,1.83,1.33.71,2.49,1.33,3.48,1.85.22-.27.46-.48.72-.63.3-.18.56-.24.8-.2.13.12.14.34.04.67-.11.37-.34.9-.71,1.58l-2.72,5.52c-.05.28.02.58.2.9ZM99.4,270.99c.17.25.44.56.82.96.37.27.49.46.36.57-.11.11-.44.06-.99-.14-.61-.35-1.2-.73-1.79-1.15-.57-.41-.93-.71-1.08-.91-1.12-.64-2.04-1.14-2.76-1.51-.78-.42-1.69-.89-2.71-1.42-.17-.08-.33-.14-.47-.2-.09-.03-.22-.08-.37-.15l-.82-.34-1.82,2.97,7.42,3.8c.19.09.37.14.52.17.09.03.21.05.37.05.27.02.5.12.68.29.27.24.73.8,1.35,1.68.22.38.28.62.19.7-.1.05-.35-.07-.77-.37-.99-.67-2.43-1.54-4.32-2.59-1.78-.99-3.55-1.91-5.3-2.76l-.4-.1c-.14-.02-.27-.06-.39-.12-.17-.08-.45-.24-.84-.48-.52-.32-.76-.57-.75-.75,0-.11.15-.24.45-.39l.35-.22,1.58-1.58.7-.71c-.68-.48-.96-.86-.84-1.16.12-.28.5-.24,1.16.14l8,4.33.21.02c.12.02.2.04.24.04.06-.03.12-.1.17-.19l1.3-2.16c.12-.24.15-.43.09-.57-.05-.14-.18-.27-.4-.39-.75-.45-1.58-.92-2.51-1.43-1.26-.72-2.47-1.39-3.62-2-.33-.14-.62-.24-.88-.28-.15-.04-.34-.06-.56-.06-.31-.02-.59-.07-.83-.15-.4-.17-.97-.5-1.68-.99-.29-.21-.48-.43-.57-.65-.07-.22-.06-.41.03-.57.09-.16.25-.26.46-.29.23-.02.48.04.74.19l9.73,5.58c.82.47,1.33.96,1.54,1.47.17.42.15.83-.08,1.23l-1.15,2.08c-.05.08.03.26.22.52ZM97.22,280.24c-.43-.24-1-.56-1.71-.94-.89-.49-1.75-.95-2.58-1.37-.3-.13-.57-.24-.82-.34-.18-.06-.42-.14-.71-.24-.19.3-.5.78-.91,1.43-.23.41-.64,1.08-1.21,2.01l-1.42,2.32,5.52,2.95.16.06c.13.03.23.03.29,0,.09-.04.18-.15.28-.33l3.1-5.57Z"/>
  <path class="cls-1" d="M56.4,259.33c-.07-.04-.16-.08-.27-.13-.16-.07-.3-.16-.41-.26-.19-.15-.46-.42-.8-.8-.38-.48-.52-.8-.41-.98.08-.11.32-.2.73-.26l.38-.08.66-.47c2.49-1.87,4.22-3.14,5.21-3.81,1.58-1.09,2.75-1.77,3.53-2.04.82-.28,1.33-.35,1.53-.22.22.12.04.34-.55.65-1.13.74-2.51,1.79-4.16,3.15-1.94,1.61-3.58,3.12-4.91,4.53l.15.13c1.77,1.53,3.18,2.72,4.21,3.58,1.85,1.53,3.18,2.57,3.96,3.13.29.21.56.38.81.5.14.07.31.15.53.21.29.13.5.28.64.43.16.22.42.7.79,1.44.42.86.63,1.43.63,1.71-.01.32-.29.19-.82-.4-1.46-1.48-2.96-2.9-4.5-4.27-1.71-1.55-3.67-3.21-5.9-5l-.63-.49c-.14-.13-.27-.22-.39-.28ZM68.64,259.57c.06.21.22.6.48,1.16l.16.33c.16.25.18.42.07.52-.13.09-.42-.06-.86-.44-.61-.68-1.07-1.21-1.38-1.6-.3-.4-.5-.7-.59-.91-.09-.18-.1-.34-.04-.46.04-.07.15-.16.33-.28.12-.07.19-.13.23-.17.09-.07.17-.15.25-.23l5.09-5.24c-.57-.52-1.38-1.2-2.43-2.04-.77-.64-1.83-1.51-3.18-2.61-.28-.2-.54-.36-.79-.48-.15-.09-.34-.18-.56-.27-.37-.13-.65-.27-.86-.44-.35-.26-.79-.72-1.33-1.36-.38-.45-.62-.86-.72-1.23-.08-.3-.05-.54.08-.73.13-.14.32-.2.57-.17.27.07.52.22.76.46,1.63,1.8,3.85,3.91,6.67,6.31,2.6,2.22,4.94,4.16,7.04,5.81.28.2.5.35.66.45.22.04.42.1.61.17.3.12.55.29.75.52.37.44.83,1.28,1.37,2.54.3.57.4,1,.3,1.27-.09.38-.38.25-.86-.4-1.07-1.18-2.15-2.32-3.24-3.43-1.26-1.14-2.48-2.24-3.67-3.29l-4.91,5.42c-.12.19-.13.47-.02.82Z"/>
  <path class="cls-1" d="M28.26,227.02c-.04.55.01,1.3.16,2.22.1.53.07.81-.1.82-.17.04-.43-.21-.76-.76-.26-.5-.47-.99-.63-1.47-.11-.29-.24-.74-.39-1.35l-.11-.46c-.08-.46-.09-.77-.04-.94.06-.12.21-.23.47-.32l.48-.19,5.1-3.06c1.11-.68,2.01-1.18,2.7-1.5.77-.4,1.44-.67,1.99-.81.75-.1,1.19-.03,1.3.24.12.26-.19.61-.92,1.05l-8.86,5.38c-.21.2-.34.58-.39,1.16ZM35.16,236.09c-.18.02-.33.16-.45.41-.11.44-.24.63-.39.57-.14-.05-.29-.32-.46-.81-.14-.62-.13-1.04.01-1.23.08-.12.28-.17.6-.16.08,0,.16,0,.23,0,.08,0,.16-.03.22-.07-.68-1.71-.8-3.24-.34-4.6.41-1.22,1.19-2.08,2.34-2.58,1.13-.51,2.32-.53,3.56-.08,1.37.52,2.51,1.51,3.4,2.97.91,1.5,1.26,2.99,1.05,4.46-.18,1.3-.77,2.35-1.78,3.13s-2.13,1.08-3.37.89c-1.42-.22-2.69-1.03-3.82-2.42l-.13-.15c-.27-.23-.5-.34-.69-.31ZM39.11,237.3c.99.24,1.91.1,2.79-.43.87-.53,1.43-1.29,1.67-2.27.27-1.09.04-2.22-.67-3.4-.74-1.21-1.66-1.97-2.78-2.29-1.01-.27-1.94-.15-2.82.38s-1.42,1.3-1.64,2.32c-.22,1.13.04,2.3.77,3.51.71,1.18,1.61,1.9,2.68,2.18ZM46.74,227.72c-.01.34.02.78.11,1.33.18.51.19.8.03.87-.14.06-.39-.12-.77-.56-.73-1.35-1.11-2.27-1.15-2.78-.03-.31.09-.52.38-.63l.19-.12,1.91-1.16-4.64-7.32-1.89,1.15c-.17.15-.27.37-.29.67-.03.28,0,.69.09,1.24.14.56.14.89,0,.99-.15.11-.43-.11-.84-.68-.62-1.38-.94-2.3-.97-2.75,0-.29.18-.5.54-.63l.27-.16c2.26-1.37,3.87-2.33,4.82-2.86,1.56-.88,2.71-1.44,3.43-1.66.7-.09,1.09-.02,1.19.21.09.3-.36.77-1.36,1.42l4.68,7.44c.95-.29,1.65-.34,2.1-.15.46.18.3.52-.48,1.02l-6.94,4.28-.14.09c-.16.14-.25.39-.27.76ZM51.73,222.08l-4.59-7.35-3.63,2.21,4.64,7.32,3.58-2.18Z"/>
  <path class="cls-1" d="M16.02,198.28c-.1.41-.2,1.05-.31,1.9,0,.56-.1.83-.29.82-.2-.01-.41-.31-.61-.9-.09-.49-.15-1-.2-1.55-.05-.6-.08-1.16-.09-1.67,0-.5.04-.82.15-.98.08-.11.28-.19.58-.23l.6-.18,4.69-1.58-.52-1.35c-.09-.15-.18-.28-.28-.38-.07-.08-.15-.16-.26-.24-.22-.17-.37-.33-.47-.5-.2-.29-.39-.76-.58-1.42-.13-.37-.16-.69-.09-.96.06-.24.17-.41.34-.5.16-.07.33-.05.53.06.18.12.33.31.43.57l1.65,4.46,5.3-1.82-.45-1.22c-.09-.15-.18-.28-.28-.38-.06-.06-.14-.14-.23-.25-.19-.15-.34-.33-.45-.53-.18-.34-.38-.87-.6-1.59-.1-.36-.12-.68-.05-.94.06-.22.18-.37.36-.45.15-.07.32-.05.5.07.16.12.29.33.39.62l1.69,4.57c.42-.06.79-.1,1.1-.11.26,0,.53,0,.82.02.59.1.87.27.84.52-.05.26-.49.53-1.31.81l-12.24,4.19c-.26.11-.47.48-.64,1.12ZM20.97,207.59c-.2-.01-.38.1-.52.33-.21.43-.38.61-.51.53-.12-.08-.21-.39-.26-.93,0-.72.09-1.15.28-1.29.11-.08.32-.05.63.08.11.04.2.07.27.09.09.03.17.04.25.03-.25-1.73-.02-3.17.71-4.31.67-1.03,1.61-1.65,2.83-1.87,1.18-.23,2.31,0,3.4.66,1.18.71,2.02,1.8,2.53,3.27.56,1.64.59,3.13.09,4.46-.46,1.22-1.25,2.08-2.37,2.61-1.12.52-2.27.55-3.45.07-1.31-.51-2.37-1.54-3.19-3.1l-.09-.18c-.23-.28-.44-.43-.6-.45ZM24.57,209.62c.86.42,1.77.47,2.71.15.95-.32,1.63-.92,2.05-1.78.48-.98.51-2.09.09-3.32-.42-1.21-1.11-2.05-2.09-2.52-.86-.42-1.77-.47-2.71-.15-.95.33-1.63.92-2.05,1.78-.47.96-.5,2.05-.08,3.26.42,1.23,1.12,2.09,2.08,2.58ZM31,196.94c-.21.07-.4.26-.56.55-.1.29-.22.43-.37.4-.17-.02-.27-.28-.32-.76.01-.84.09-1.36.25-1.55.09-.13.29-.15.58-.05.09.03.17.04.23.04.09.03.18.03.27,0-.28-1.74-.06-3.2.65-4.38.65-1.08,1.58-1.75,2.79-2,1.19-.27,2.32-.07,3.41.6,1.19.73,2.05,1.88,2.59,3.45.58,1.68.6,3.19.08,4.52-.46,1.23-1.25,2.1-2.37,2.61-1.12.52-2.26.56-3.44.1-1.27-.5-2.29-1.52-3.05-3.06l-.15-.28c-.14-.19-.34-.25-.58-.19ZM34.47,198.84c.88.46,1.79.53,2.73.2.93-.32,1.6-.93,2.01-1.83.47-1.02.48-2.17.04-3.46-.44-1.29-1.16-2.18-2.14-2.68-.88-.48-1.79-.56-2.72-.24-.95.32-1.62.94-2.03,1.86-.46,1-.47,2.14-.03,3.42.44,1.29,1.15,2.19,2.13,2.71Z"/>
  <path class="cls-1" d="M10.05,165.83c-.29.45-.59,1.12-.91,2.01-.17.55-.33.81-.48.77-.16-.06-.28-.41-.35-1.07-.02-.32.01-.74.08-1.26.04-.29.13-.71.26-1.25l.13-.61c.13-.51.29-.83.46-.96.12-.09.33-.12.62-.1l.45-.02,11.11-1.29-.16-1.12c-.08-.22-.17-.41-.26-.57-.05-.09-.14-.2-.27-.34-.18-.21-.31-.43-.39-.67-.12-.39-.2-.98-.23-1.8-.02-.36.03-.64.16-.84.11-.2.26-.31.45-.34.19-.02.36.04.5.17.17.13.27.31.32.53l.7,4.91,7.4-.84c1.05-.08,1.91-.11,2.55-.09.72.01,1.35.09,1.88.24.61.16.93.37.96.63.07.28-.35.47-1.25.57l-22.88,2.6c-.28.05-.56.3-.85.75ZM14.22,176.92c-.19.5-.51,1.11-.96,1.85-.19.33-.34.48-.46.45-.14-.04-.17-.34-.1-.9.07-.75.07-1.61.02-2.6-.05-.94-.15-2.07-.3-3.39-.02-.34.03-.63.16-.87.13-.22.29-.34.48-.34.21.02.4.16.56.42.19.32.32.76.41,1.32l.39,3.15c.01.27-.05.57-.18.9ZM16.55,171.33c-.08-.16-.18-.34-.32-.53-.16-.25-.28-.49-.37-.73-.14-.38-.26-.96-.37-1.73-.06-.56-.04-1.02.07-1.38.1-.3.25-.47.45-.54.18-.06.36,0,.54.2.17.21.28.49.32.85l.52,3.56,1.09,7.06c.06.2.13.39.21.58.05.09.12.21.21.37.23.35.33.68.31.99-.04.46-.28,1.27-.72,2.42-.19.36-.34.53-.46.51-.13-.02-.19-.29-.18-.81,0-1.33-.09-2.84-.29-4.53-.11-.99-.33-2.49-.65-4.49l-.04-.37-.04-.34c-.09-.46-.19-.83-.3-1.11ZM20.23,174.39c-.24-.09-.44,0-.6.24-.24.24-.4.31-.49.23-.11-.1-.13-.37-.06-.79.18-.63.37-.99.59-1.09.13-.05.32,0,.58.13l.33.13c.03-1.71.5-3.08,1.39-4.09.83-.91,1.83-1.37,3.01-1.37,1.16,0,2.19.44,3.09,1.33.98.97,1.57,2.28,1.76,3.93.19,1.67-.08,3.1-.82,4.28-.66,1.04-1.56,1.71-2.71,1.99-1.15.26-2.23.06-3.23-.6-1.09-.73-1.85-1.9-2.28-3.5l-.06-.31c-.1-.25-.27-.43-.49-.51ZM22.97,176.9c.73.6,1.58.85,2.54.74.94-.11,1.7-.53,2.28-1.28.65-.83.9-1.9.75-3.19-.14-1.28-.63-2.25-1.44-2.91-.73-.6-1.57-.85-2.51-.74-.96.11-1.72.54-2.3,1.29-.63.83-.87,1.89-.72,3.16.15,1.29.62,2.28,1.42,2.95Z"/>
  <path class="cls-1" d="M11.23,130.96c-.34.36-.72.85-1.12,1.45-.27.45-.48.65-.61.62-.15-.05-.19-.39-.12-1.01.1-.43.25-.87.46-1.35.1-.25.25-.62.46-1.09l.3-.65c.18-.28.35-.46.51-.52.12-.03.29,0,.53.06l.42.1,20.42,2.18c1.25.19,2.25.44,3,.74.69.28,1.06.58,1.1.88-.02.15-.13.26-.35.33-.27.07-.75.07-1.43.02l-22.59-2.38c-.25,0-.57.2-.98.61ZM12.71,135.82c-.24.28-.56.76-.98,1.44-.23.41-.42.63-.55.65-.2.05-.28-.27-.24-.97.09-.46.24-.99.45-1.58.16-.4.35-.86.57-1.36.17-.38.37-.61.58-.68.14-.04.35-.02.65.07l.36.07,15.57,1.7c1.25.17,2.24.36,2.96.57.72.23,1.26.5,1.62.83.18.27.11.45-.23.55-.35.1-.96.1-1.82,0l-10.7-1.13-.14,2.69c0,.23.01.42.05.58.03.12.06.24.1.38.09.24.11.44.05.6-.06.26-.29.71-.68,1.35-.31.39-.51.55-.62.5-.13-.05-.13-.34-.02-.86.07-.68.14-1.44.21-2.28.03-.49.09-1.22.17-2.2l.06-.85-6.36-.67c-.32-.03-.67.17-1.06.6ZM14.61,143.96c-.21.21-.55.57-1.03,1.09-.2.32-.37.44-.5.37-.14-.07-.17-.41-.07-1,.12-.42.35-.93.7-1.52.31-.56.58-.97.82-1.25.19-.21.38-.31.54-.31.13.01.33.11.6.29l.3.15c.48.28,1.07.65,1.76,1.1.39.25.92.6,1.57,1.05l.43.27c.38-.21.75-.42,1.09-.65.37-.25.7-.48.98-.69.17-.12.33-.25.5-.4.08-.09.21-.21.38-.39.34-.38.67-.65.97-.81.48-.23,1.17-.38,2.07-.44.57,0,.92.17,1.06.51.13.36-.07.66-.61.9l-1.46.62c-.89.34-1.58.62-2.08.83-.85.37-1.63.73-2.34,1.09,1.14,1.09,2.17,2.19,3.1,3.32.92,1.14,1.77,2.36,2.55,3.66.23.56.28.86.16.93-.12.04-.33-.17-.65-.64-1.23-1.65-2.57-3.12-4.01-4.41-1.79-1.59-3.77-2.92-5.96-3.99l-.22-.08c-.15-.02-.37.12-.67.41Z"/>
  <path class="cls-1" d="M18.56,107.53c-.2-.17-.45-.18-.73-.06-.44.26-.68.31-.73.15-.05-.15.07-.47.37-.95.41-.52.73-.81.96-.85.16,0,.33.11.51.35.08.12.14.21.19.24.07.08.15.14.24.17.88-1.74,2.05-2.91,3.52-3.51,1.3-.53,2.6-.52,3.89.04,1.27.55,2.18,1.49,2.72,2.82.63,1.43.66,3.02.1,4.76-.59,1.77-1.56,3.09-2.91,3.94-1.22.76-2.51,1-3.87.74-1.37-.25-2.44-.96-3.21-2.14-.84-1.28-1.1-2.88-.8-4.78v-.12c.04-.35-.04-.61-.24-.79ZM20.43,111.59c.53,1,1.35,1.69,2.46,2.05s2.18.29,3.2-.22c1.14-.58,1.95-1.6,2.42-3.06.45-1.4.38-2.65-.21-3.76-.53-.99-1.36-1.66-2.47-2.02-1.11-.36-2.18-.3-3.19.19-1.11.55-1.89,1.53-2.35,2.93-.47,1.45-.42,2.75.14,3.89ZM30.2,116.15c-.31.22-.63.52-.98.9-.3.3-.49.41-.58.32-.1-.11-.08-.43.07-.96.3-.7.56-1.24.77-1.63.2-.37.38-.63.55-.77.14-.13.28-.19.41-.17.1,0,.25.04.43.14l.45.17,3.8,1.23,1.79-6.09c-.41-.15-.88-.34-1.43-.55-.72-.27-1.54-.59-2.43-.94-.3-.1-.59-.08-.85.05-.21.09-.46.3-.77.62-.33.39-.54.54-.65.44-.11-.08-.09-.37.07-.87.14-.37.35-.76.62-1.17.19-.29.45-.63.77-1,.17-.22.34-.34.5-.34.1.01.23.08.41.22l.45.27,3.72,2.04c.12-.36.24-.75.38-1.19.08-.37.16-.78.25-1.23.07-.34.09-.63.07-.87.01-.16,0-.33-.04-.52-.05-.33-.04-.64.03-.91.1-.44.4-1.14.89-2.09.21-.45.45-.78.74-.98.25-.18.48-.22.67-.14.19.08.31.27.35.56.06.32,0,.69-.15,1.11-.97,2.32-2.01,5.26-3.12,8.81-1.05,3.37-1.98,6.49-2.79,9.37-.09.29-.13.53-.12.73.01.2.03.45.06.73.07.26.03.58-.13.97-.2.49-.71,1.18-1.53,2.06-.5.45-.85.66-1.03.62-.19-.02-.12-.32.2-.89.58-1.24,1.15-2.67,1.72-4.3.35-1.14.66-2.18.92-3.13l-3.72-.91c-.18-.04-.43.05-.74.27Z"/>
</svg>